<?xml version="1.0" encoding="utf-8"?>
<!-- Generator: Adobe Illustrator 16.0.0, SVG Export Plug-In . SVG Version: 6.00 Build 0)  -->
<!DOCTYPE svg PUBLIC "-//W3C//DTD SVG 1.1//EN" "http://www.w3.org/Graphics/SVG/1.1/DTD/svg11.dtd">
<svg version="1.1" id="Layer_1" xmlns="http://www.w3.org/2000/svg" xmlns:xlink="http://www.w3.org/1999/xlink" x="0px" y="0px"
	 width="5517.711px" height="672.423px" viewBox="0 0 5517.711 672.423" enable-background="new 0 0 5517.711 672.423"
	 xml:space="preserve">
<g>
	<path fill="#174885" stroke="#174885" stroke-width="3.0087" d="M693.683,322.671c-36.378-32.625-45.377-75.375-45.377-111.004
		c0-25.121,8.623-68.996,42-102.383c22.503-22.498,56.626-40.12,114.381-40.12c15.002,0,36.001,1.122,54.376,4.499
		c14.25,2.624,26.254,4.872,38.253,5.628c4.125,0.375,4.876,1.871,4.876,4.114c0,3.01-1.124,7.51-1.875,21.006
		c-0.751,12.381-0.751,33.002-1.125,38.629c-0.373,5.622-1.124,7.87-3.375,7.87c-2.626,0-3.001-2.618-3.001-7.87
		c0-14.628-5.997-30.002-15.747-38.252c-13.125-11.249-42.005-21.383-75.007-21.383c-49.877,0-73.127,14.634-86.253,27.385
		c-27.374,26.248-33.749,59.624-33.749,97.878c0,71.629,55.123,137.258,135.378,137.258c28.126,0,50.251-3.379,65.252-18.756
		c7.875-8.249,12.751-24.749,13.878-31.496c0.748-4.12,1.5-5.628,3.749-5.628c1.875,0,2.623,2.623,2.623,5.628
		c0,2.628-4.5,35.254-8.248,48.005c-2.251,7.117-3,7.869-9.753,10.873c-15.001,5.996-43.5,8.627-67.502,8.627
		C761.183,363.179,723.31,349.294,693.683,322.671z"/>
	<path fill="#174885" stroke="#174885" stroke-width="3.0087" d="M1073.521,112.292c74.256,0,130.503,45.367,130.503,119.631
		c0,71.25-52.873,130.128-132.375,130.128c-90.381,0-129.007-67.882-129.007-125.258
		C942.643,185.414,982.392,112.292,1073.521,112.292z M1081.023,348.923c29.625,0,89.255-15.748,89.255-108
		c0-76.498-46.501-116.636-98.629-116.636c-55.127,0-94.882,34.503-94.882,103.887
		C976.768,302.421,1021.397,348.923,1081.023,348.923z"/>
	<path fill="#174885" stroke="#174885" stroke-width="3.0087" d="M1302.979,266.046c0,46.879,0.748,65.998,6.75,71.63
		c5.251,5.245,18,7.495,43.875,7.495c17.253,0,31.878-0.371,39.755-9.749c4.123-4.872,6.75-11.618,7.875-17.996
		c0.376-2.246,1.497-4.128,3.375-4.128c1.499,0,2.25,1.495,2.25,4.874c0,3.381-2.25,22.497-4.873,31.884
		c-2.253,7.495-3.38,8.626-21.004,8.626c-23.623,0-42-0.387-57.375-1.131c-15.002-0.371-26.25-0.745-35.999-0.745
		c-1.506,0-7.129,0-13.504,0.374c-6.753,0.371-13.875,0.741-19.125,0.741c-3.374,0-5.252-0.741-5.252-2.618
		c0-1.126,0.754-2.628,2.623-2.628c3.002,0,7.127-0.74,10.131-1.502c6.371-1.503,7.121-7.494,8.625-16.877
		c1.87-13.127,1.87-38.248,1.87-68.998v-56.254c0-49.508,0-58.509-0.747-68.626c-0.75-10.873-2.628-16.131-13.503-17.633
		c-2.624-0.371-8.246-0.746-11.25-0.746c-1.123,0-2.628-1.502-2.628-2.623c0-1.877,1.506-2.624,5.254-2.624
		c15.002,0,35.628,0.747,37.506,0.747c1.497,0,26.25-0.747,36.372-0.747c3.375,0,5.252,0.747,5.252,2.624
		c0,1.121-1.503,2.248-2.629,2.248c-2.25,0-7.124,0.375-10.876,0.751c-9.746,1.873-11.621,6.749-12.373,18.003
		c-0.375,10.117-0.375,19.118-0.375,68.626V266.046z"/>
	<path fill="#174885" stroke="#174885" stroke-width="3.0087" d="M1454.825,209.044c0-49.508,0-58.509-0.751-68.626
		c-0.75-10.127-2.627-16.131-13.5-17.633c-2.628-0.371-8.253-0.746-11.255-0.746c-1.125,0-2.623-1.502-2.623-2.623
		c0-1.877,1.497-2.624,5.252-2.624c15.001,0,34.876,0.747,37.876,0.747c2.996,0,23.623-0.747,33.374-0.747
		c3.75,0,5.625,0.747,5.625,2.624c0,1.121-1.5,2.623-2.996,2.623c-2.251,0-4.128,0-8.253,0.746
		c-8.627,1.502-10.503,7.129-11.252,17.633c-0.751,10.117-0.751,19.118-0.751,68.626v44.625c0,46.133,10.125,65.252,24.376,78.003
		c16.128,14.63,30.377,17.251,49.126,17.251c20.251,0,39.755-8.999,51.004-22.498c15.374-18.383,18.748-44.63,18.748-77.262v-40.119
		c0-49.508-0.373-58.509-0.746-68.626c-0.377-10.127-2.251-16.131-13.126-17.633c-2.626-0.371-8.253-0.746-11.251-0.746
		c-1.5,0-2.627-1.502-2.627-2.623c0-1.877,1.5-2.624,5.255-2.624c14.619,0,33.75,0.747,35.622,0.747
		c2.25,0,18.002-0.747,27.755-0.747c3.746,0,5.249,0.747,5.249,2.624c0,1.121-1.123,2.623-2.63,2.623c-2.247,0-4.124,0-8.244,0.746
		c-9.004,1.877-10.876,7.129-11.627,17.633c-0.753,10.117-0.376,19.118-0.376,68.626v34.133c0,34.492-4.497,73.116-30.753,95.613
		c-24.001,20.632-49.503,23.261-69.002,23.261c-10.877,0-45.378-0.751-68.629-22.498c-16.126-15.003-28.874-37.132-28.874-83.63
		V209.044z"/>
	<path fill="#174885" stroke="#174885" stroke-width="3.0087" d="M1987.668,316.669c1.126,11.262,3.377,28.502,16.874,33.001
		c9.38,3.005,18.003,3.005,21.381,3.005c1.499,0,2.623,0.751,2.623,2.252c0,1.879-3,2.994-6.751,2.994
		c-7.499,0-44.249-0.741-56.25-1.873c-7.879-0.745-9.376-1.871-9.376-3.373c0-1.127,0.752-2.246,2.248-2.619
		c1.877-0.386,2.251-5.256,1.5-11.266l-15.75-161.239h-0.751l-79.505,162.747c-6.749,13.879-8.622,16.882-11.622,16.882
		c-3.001,0-4.876-3.003-11.251-14.633c-8.624-15.749-30.375-56.626-38.626-73.88c-9.752-20.243-36.375-73.876-42.001-87.004h-1.501
		l-12.75,144.008c-0.376,4.879-0.376,10.873-0.376,16.132c0,4.872,3.005,7.867,7.876,8.993c5.624,1.503,10.5,1.879,12.751,1.879
		c1.126,0,2.625,1.118,2.625,2.252c0,2.253-2.251,2.994-6,2.994c-12.376,0-28.127-1.115-30.748-1.115
		c-3.005,0-18.754,1.115-27.755,1.115c-3.375,0-5.627-0.741-5.627-2.994c0-1.134,1.499-2.252,3.377-2.252
		c2.628,0,4.876-0.376,9.751-1.127c10.874-1.878,11.247-13.498,12.752-25.496l24.003-208.138c0.369-3.373,1.871-5.622,3.746-5.622
		c2.251,0,4.877,1.122,6.749,4.876l99.756,198.012l96.003-197.641c1.5-2.998,3.003-5.247,5.252-5.247c2.25,0,4.12,2.623,4.871,8.625
		L1987.668,316.669z"/>
	<path fill="#174885" stroke="#174885" stroke-width="3.0087" d="M2086.984,209.044c0-49.508,0-58.509-0.748-68.626
		c-0.752-10.873-2.628-16.877-13.503-18.379c-2.625-0.375-8.246-0.751-11.251-0.751c-1.125,0-2.621-0.751-2.621-1.872
		c0-1.877,1.496-2.624,5.246-2.624c15.002,0,36.378,0.747,38.249,0.747c7.883,0,23.257-0.747,38.631-0.747
		c55.127,0,69.381,31.87,69.381,48.752c0,25.126-16.501,40.875-33.378,55.875c25.126,7.499,58.128,30.379,58.128,66.379
		c0,35.621-26.629,70.884-82.879,70.884c-6,0-18-0.387-28.5-1.131c-10.505-0.371-19.878-0.745-21.383-0.745
		c-0.744,0-6.745,0.374-13.497,0.374c-6.747,0.371-14.623,0.741-19.876,0.741c-3.373,0-5.25-0.741-5.25-2.618
		c0-1.126,0.754-1.877,2.625-1.877c2.999,0,7.127-1.127,10.126-1.491c6.378-1.139,7.124-8.256,8.628-17.639
		c1.872-13.127,1.872-38.248,1.872-68.998V209.044z M2115.485,215.792c0,2.248,0.751,2.999,2.248,3.379
		c1.877,0.375,7.88,1.497,20.252,1.497c18.379,0,25.499-0.751,32.255-8.244c7.127-7.881,12.747-18.759,12.747-34.135
		c0-24.369-13.5-51.379-46.498-51.379c-3.755,0-11.626,0.387-16.879,1.502c-3.002,0.751-4.125,1.502-4.125,3.379V215.792z
		 M2115.485,251.041c0,24.761,0,63.011,0.379,67.88c1.123,15.375,1.123,19.129,11.246,24c9.002,4.127,22.877,4.499,28.879,4.499
		c21.747,0,48.375-8.244,48.375-49.118c0-14.26-5.627-41.629-31.499-58.135c-11.253-7.124-21.753-6.747-29.628-8.244
		c-4.125-0.75-20.625-0.75-25.876-0.75c-1.125,0-1.876,0.75-1.876,2.247V251.041z"/>
	<path fill="#174885" stroke="#174885" stroke-width="3.0087" d="M2335.956,265.298c0,30.75,0,55.871,1.498,68.998
		c1.121,9.383,2.248,15.374,12.001,16.877c4.881,0.762,11.998,1.502,14.999,1.502c1.875,0,2.628,1.502,2.628,2.628
		c0,1.503-1.503,2.618-5.258,2.618c-18.368,0-39.749-1.115-41.245-1.115c-1.873,0-22.5,1.115-32.622,1.115
		c-3.38,0-5.257-0.741-5.257-2.618c0-1.126,0.75-2.628,2.629-2.628c2.993,0,7.124-0.74,10.127-1.502
		c6.373-1.503,7.5-7.494,8.621-16.877c1.497-13.127,1.873-38.248,1.873-68.998v-56.254c0-49.508,0-58.509-0.746-68.626
		c-0.752-10.873-3.375-15.755-10.5-17.252c-3.754-0.751-7.873-1.127-10.127-1.127c-1.501,0-2.628-1.502-2.628-2.623
		c0-1.877,1.501-2.624,5.257-2.624c10.873,0,31.5,0.747,33.373,0.747c1.496,0,22.877-0.747,33.005-0.747
		c3.744,0,5.246,0.747,5.246,2.624c0,1.121-1.502,2.623-2.628,2.623c-2.246,0-4.494,0-8.25,0.746
		c-8.996,1.877-10.874,6.378-11.625,17.633c-0.371,10.117-0.371,19.118-0.371,68.626V265.298z"/>
	<path fill="#174885" stroke="#174885" stroke-width="3.0087" d="M2502.053,123.166c4.125-10.499,5.627-12.376,7.881-12.376
		c3.369,0,4.496,4.5,7.875,11.625c5.997,13.508,58.878,145.133,79.123,193.509c12.006,28.499,21.007,32.63,28.126,34.872
		c4.876,1.503,9.758,1.879,13.126,1.879c1.878,0,4.125,0.751,4.125,2.628s-3.75,2.618-7.493,2.618c-4.882,0-29.257,0-52.137-0.741
		c-6.373-0.374-11.62-0.374-11.62-2.253c0-1.501,0.746-1.501,2.25-2.252c1.877-0.74,5.245-3.381,2.997-8.627l-29.626-73.131
		c-0.747-1.492-1.127-1.866-2.999-1.866h-76.126c-1.503,0-2.629,0.745-3.374,2.62l-18.754,51
		c-2.999,7.879-4.876,15.751-4.876,21.377c0,6.381,5.627,8.627,11.254,8.627h2.992c2.63,0,3.381,1.118,3.381,2.628
		c0,1.877-1.877,2.618-4.871,2.618c-7.88,0-25.877-1.115-29.633-1.115c-3.373,0-19.873,1.115-33.372,1.115
		c-4.124,0-6.378-0.741-6.378-2.618c0-1.51,1.497-2.628,3.006-2.628c2.246,0,7.117-0.376,9.745-0.74
		c15.005-1.879,21.378-13.145,27.751-29.264L2502.053,123.166z M2538.809,255.923c1.498,0,1.498-0.749,1.122-2.254l-32.627-87.385
		c-1.877-4.871-3.743-4.871-5.62,0l-30.755,87.385c-0.38,1.505,0,2.254,1.121,2.254H2538.809z"/>
	<path fill="#174885" stroke="#174885" stroke-width="3.0087" d="M2938.101,183.167c0-58.504,0-68.998-0.738-81.003
		c-0.751-12.752-3.754-18.759-16.126-21.376c-3.004-0.752-9.377-1.122-12.758-1.122c-1.5,0-3.003-0.757-3.003-2.248
		c0-2.252,1.878-3.009,6.01-3.009c8.624,0,18.742,0,27.003,0.376l15.375,0.755c2.617,0,77.239,0,85.878-0.375
		c7.122-0.38,13.121-1.128,16.125-1.877c1.877-0.377,3.369-1.877,5.246-1.877c1.127,0,1.502,1.5,1.502,3.375
		c0,2.633-1.879,7.128-3.005,17.633c-0.374,3.742-1.126,20.248-1.866,24.749c-0.376,1.878-1.126,4.12-2.63,4.12
		c-2.251,0-3.003-1.872-3.003-4.87c0-2.629-0.374-9.007-2.253-13.508c-2.628-5.993-6.371-10.492-26.617-12.746
		c-6.384-0.752-47.255-1.126-51.386-1.126c-1.491,0-2.242,1.126-2.242,3.754v103.5c0,2.617,0.364,3.749,2.242,3.749
		c4.882,0,51.009,0,59.636-0.746c9.002-0.751,14.247-1.502,17.616-5.256c2.63-2.994,4.13-4.871,5.633-4.871
		c1.127,0,1.878,0.744,1.878,2.994c0,2.252-1.878,8.624-3.004,21.006c-0.751,7.499-1.503,21.383-1.503,24.001
		c0,2.997,0,7.124-2.628,7.124c-1.867,0-2.619-1.504-2.619-3.371c0-3.753,0-7.503-1.5-12.38c-1.504-5.245-4.871-11.62-19.495-13.12
		c-10.14-1.133-47.266-1.879-53.639-1.879c-1.866,0-2.617,1.126-2.617,2.623v32.996c0,12.756-0.375,56.263,0,64.135
		c1.126,25.878,6.749,30.75,43.495,30.75c9.756,0,26.256,0,35.999-4.124c9.752-4.127,14.259-11.62,16.876-26.999
		c0.751-4.126,1.503-5.628,3.381-5.628c2.252,0,2.252,2.999,2.252,5.628c0,2.999-3.003,28.506-4.882,36.369
		c-2.617,9.758-5.621,9.758-20.244,9.758c-28.133,0-48.757-0.757-63.382-1.131c-14.623-0.741-23.622-1.115-29.244-1.115
		c-0.751,0-7.135,0-15.01,0.374c-7.5,0-16.125,0.741-21.748,0.741c-4.131,0-5.997-0.741-5.997-2.994
		c0-1.134,0.751-2.252,2.993-2.252c3.38,0,7.876-0.74,11.255-1.502c7.499-1.503,9.376-9.742,10.867-20.623
		c1.877-15.757,1.877-45.374,1.877-81.387V183.167z"/>
	<path fill="#174885" stroke="#174885" stroke-width="3.0087" d="M3172.068,314.415c0.751,26.254,3.745,34.139,12.757,36.381
		c5.986,1.503,13.497,1.879,16.5,1.879c1.492,0,2.619,1.118,2.619,2.628c0,1.877-2.254,2.618-5.998,2.618
		c-18.754,0-31.885-1.115-34.879-1.115c-3.004,0-16.876,1.115-31.875,1.115c-3.379,0-5.247-0.37-5.247-2.618
		c0-1.51,1.127-2.628,2.619-2.628c2.628,0,8.626-0.376,13.497-1.879c8.25-2.242,9.377-10.872,9.377-39.748V128.412
		c0-12.751,1.877-16.12,4.506-16.12c3.744,0,9.377,6.379,12.745,9.747c5.256,5.258,53.257,56.25,104.251,108.757
		c32.625,33.743,67.891,71.625,78.008,82.129l-3.368-159.762c-0.376-20.621-2.254-27.745-12.382-29.622
		c-5.997-1.126-13.497-1.502-16.125-1.502c-2.243,0-2.628-1.877-2.628-2.993c0-1.878,2.628-2.254,6.384-2.254
		c14.997,0,30.747,0.747,34.503,0.747c3.743,0,14.623-0.747,28.12-0.747c3.379,0,5.996,0.376,5.996,2.254
		c0,1.116-1.502,2.993-3.743,2.993c-1.503,0-4.13,0-7.886,0.746c-10.867,2.259-11.618,8.626-11.618,27.75l-0.753,186.766
		c0,20.994-0.373,22.873-2.617,22.873c-3.379,0-6.759-2.623-25.126-19.505c-3.38-2.993-51.005-49.879-85.884-86.249
		c-38.246-40.13-75.38-79.124-85.496-90.384L3172.068,314.415z"/>
	<path fill="#174885" stroke="#174885" stroke-width="3.0087" d="M3620.54,276.55c0-25.883-0.752-29.636-14.26-32.256
		c-2.629-0.377-8.25-0.746-11.254-0.746c-1.115,0-2.619-1.502-2.619-2.625c0-2.253,1.504-2.635,5.247-2.635
		c14.999,0,37.132,0.759,38.999,0.759c1.503,0,22.135-0.759,32.262-0.759c3.745,0,5.245,0.382,5.245,2.635
		c0,1.123-1.5,2.625-2.628,2.625c-2.242,0-4.494,0-8.25,0.746c-8.99,1.502-11.618,6.373-12.369,17.625
		c-0.375,10.129-0.375,19.501-0.375,33.002v35.629c0,14.621-0.377,14.999-4.508,17.254c-20.996,10.878-51.004,14.247-70.123,14.247
		c-25.126,0-72-2.999-108.756-34.12c-20.256-16.883-39.375-51.013-39.375-90.761c0-50.995,25.877-87.006,55.124-104.628
		c29.633-18.001,62.624-20.25,87.762-20.25c20.996,0,44.245,3.745,50.618,5.247c6.758,1.508,18.377,3.379,26.628,3.379
		c3.379,0,4.12,1.497,4.12,3c0,4.494-1.867,13.12-1.867,45.005c0,5.247-1.501,6.749-3.755,6.749c-1.866,0-2.241-1.877-2.241-4.881
		c-0.377-4.12-2.255-13.503-7.512-20.996c-8.238-12.006-33.377-24.751-76.119-24.751c-19.881,0-43.881,1.496-69.008,20.62
		c-19.131,14.634-32.626,43.129-32.626,80.262c0,44.991,23.249,77.247,34.88,88.126c26.241,24.37,53.997,33.368,84.381,33.368
		c11.618,0,26.992-1.118,35.619-5.989c4.131-2.255,6.76-3.755,6.76-9.759V276.55z"/>
	<path fill="#174885" stroke="#174885" stroke-width="3.0087" d="M3779.86,265.298c0,30.75,0,55.871,1.492,68.998
		c1.125,9.383,2.251,15.374,12.005,16.877c4.881,0.762,11.995,1.502,14.999,1.502c1.877,0,2.628,1.502,2.628,2.628
		c0,1.503-1.502,2.618-5.258,2.618c-18.367,0-39.749-1.115-41.24-1.115c-1.877,0-22.509,1.115-32.637,1.115
		c-3.368,0-5.246-0.741-5.246-2.618c0-1.126,0.751-2.628,2.616-2.628c3.004,0,7.136-0.74,10.139-1.502
		c6.373-1.503,7.501-7.494,8.627-16.877c1.491-13.127,1.867-38.248,1.867-68.998v-56.254c0-49.508,0-58.509-0.751-68.626
		c-0.751-10.873-3.37-15.755-10.492-17.252c-3.756-0.751-7.886-1.127-10.128-1.127c-1.503,0-2.629-1.502-2.629-2.623
		c0-1.877,1.502-2.624,5.245-2.624c10.88,0,31.512,0.747,33.389,0.747c1.491,0,22.873-0.747,33.001-0.747
		c3.745,0,5.246,0.747,5.246,2.624c0,1.121-1.501,2.623-2.627,2.623c-2.253,0-4.496,0-8.251,0.746
		c-9.001,1.877-10.869,6.378-11.62,17.633c-0.375,10.117-0.375,19.118-0.375,68.626V265.298z"/>
	<path fill="#174885" stroke="#174885" stroke-width="3.0087" d="M3902.092,314.415c0.752,26.254,3.744,34.139,12.747,36.381
		c5.995,1.503,13.495,1.879,16.5,1.879c1.5,0,2.628,1.118,2.628,2.628c0,1.877-2.254,2.618-5.997,2.618
		c-18.753,0-31.888-1.115-34.88-1.115c-3.004,0-16.876,1.115-31.873,1.115c-3.381,0-5.258-0.37-5.258-2.618
		c0-1.51,1.125-2.628,2.628-2.628c2.63,0,8.626-0.376,13.495-1.879c8.251-2.242,9.377-10.872,9.377-39.748V128.412
		c0-12.751,1.877-16.12,4.496-16.12c3.754,0,9.377,6.379,12.757,9.747c5.258,5.258,53.257,56.25,104.251,108.757
		c32.625,33.743,67.881,71.625,78.008,82.129l-3.379-159.762c-0.364-20.621-2.242-27.745-12.371-29.622
		c-5.997-1.126-13.508-1.502-16.125-1.502c-2.252,0-2.629-1.877-2.629-2.993c0-1.878,2.629-2.254,6.373-2.254
		c14.998,0,30.75,0.747,34.504,0.747c3.756,0,14.623-0.747,28.131-0.747c3.379,0,5.998,0.376,5.998,2.254
		c0,1.116-1.504,2.993-3.745,2.993c-1.501,0-4.132,0-7.886,0.746c-10.88,2.259-11.618,8.626-11.618,27.75l-0.751,186.766
		c0,20.994-0.377,22.873-2.629,22.873c-3.37,0-6.748-2.623-25.128-19.505c-3.368-2.993-50.993-49.879-85.872-86.249
		c-38.258-40.13-75.379-79.124-85.508-90.384L3902.092,314.415z"/>
	<path fill="#174885" stroke="#174885" stroke-width="3.0087" d="M4193.044,209.044c0-49.508,0-58.509-0.74-68.626
		c-0.753-10.873-2.63-16.131-13.509-17.633c-2.617-0.371-8.25-0.746-11.254-0.746c-1.127,0-2.617-1.502-2.617-2.623
		c0-1.877,1.49-2.624,5.246-2.624c14.998,0,36.381,0.747,38.248,0.747c2.252,0,71.26,0.375,78.759,0
		c6.373-0.371,12.369-1.501,14.999-1.877c1.503-0.371,3.003-1.492,4.496-1.492c1.126,0,1.5,1.492,1.5,2.999
		c0,2.248-1.865,5.998-2.615,15c-0.378,2.993-1.129,17.251-1.878,20.995c-0.378,1.501-1.503,3.38-3.007,3.38
		c-1.877,0-2.615-1.501-2.615-4.131c0-2.248-0.389-7.495-1.877-11.243c-2.254-5.246-5.624-7.512-23.627-9.758
		c-5.631-0.746-43.88-1.12-47.635-1.12c-1.502,0-1.867,1.12-1.867,3.366v86.635c0,2.248,0,3.381,1.867,3.381
		c4.131,0,47.635,0,55.135-0.757c7.877-0.746,12.746-1.122,16.127-4.501c2.252-2.248,3.742-4.125,4.869-4.125
		s1.877,0.756,1.877,2.633c0,1.868-1.877,7.124-2.627,17.629c-0.753,6.371-1.504,18.367-1.504,20.622
		c0,2.615-0.738,5.994-2.992,5.994c-1.504,0-2.253-1.126-2.253-2.992c0-3.002,0-6.378-1.502-10.501
		c-1.115-4.498-4.118-8.252-16.864-9.754c-9.014-1.128-44.257-1.497-49.89-1.497c-1.878,0-2.243,1.12-2.243,2.246v26.628
		c0,10.875-0.385,48,0,54.373c0.741,21.384,6.748,25.5,39.375,25.5c8.626,0,24.375,0,33.001-3.368
		c8.626-3.753,13.122-9.374,14.999-22.132c0.751-3.747,1.504-4.878,3.381-4.878s2.241,2.633,2.241,4.878
		c0,2.254-2.618,24.008-4.496,30.758c-2.253,8.253-5.622,8.253-18.378,8.253c-24.752,0-43.869-0.761-57.377-1.131
		c-13.873-0.745-22.498-0.745-27.379-0.745c-0.742,0-7.124,0-14.248,0.374c-6.373,0.371-13.872,0.741-19.119,0.741
		c-3.379,0-5.256-0.741-5.256-2.618c0-1.126,0.75-2.628,2.628-2.628c3.003,0,7.124-1.127,10.128-1.502
		c6.373-1.117,7.123-7.494,8.625-16.877c1.868-13.127,1.868-38.248,1.868-68.998V209.044z"/>
	<path fill="#174885" stroke="#174885" stroke-width="3.0087" d="M4399.635,209.044c0-49.508,0-58.509-0.75-68.626
		c-0.752-10.873-2.629-16.131-13.498-17.633c-2.628-0.371-8.25-0.746-11.254-0.746c-1.126,0-2.619-1.502-2.619-2.623
		c0-1.877,1.493-2.624,5.248-2.624c14.998,0,36.381,0.747,38.248,0.747c2.254,0,71.258,0.375,78.758,0
		c6.373-0.371,12.371-1.501,14.998-1.877c1.506-0.371,2.994-1.492,4.498-1.492c1.125,0,1.502,1.492,1.502,2.999
		c0,2.248-1.879,5.998-2.629,15c-0.377,2.993-1.126,17.251-1.865,20.995c-0.387,1.501-1.506,3.38-3.006,3.38
		c-1.879,0-2.618-1.501-2.618-4.131c0-2.248-0.388-7.495-1.878-11.243c-2.252-5.246-5.631-7.512-23.624-9.758
		c-5.633-0.746-43.879-1.12-47.636-1.12c-1.502,0-1.867,1.12-1.867,3.366v86.635c0,2.248,0,3.381,1.867,3.381
		c4.131,0,47.636,0,55.135-0.757c7.875-0.746,12.746-1.122,16.125-4.501c2.242-2.248,3.744-4.125,4.869-4.125
		c1.127,0,1.879,0.756,1.879,2.633c0,1.868-1.879,7.124-2.627,17.629c-0.752,6.371-1.504,18.367-1.504,20.622
		c0,2.615-0.739,5.994-3.003,5.994c-1.491,0-2.243-1.126-2.243-2.992c0-3.002,0-6.378-1.502-10.501
		c-1.127-4.498-4.119-8.252-16.865-9.754c-9.01-1.128-44.254-1.497-49.887-1.497c-1.879,0-2.244,1.12-2.244,2.246v26.628
		c0,10.875-0.387,48,0,54.373c0.74,21.384,6.75,25.5,39.373,25.5c8.627,0,24.378,0,33.004-3.368
		c8.625-3.753,13.119-9.374,14.998-22.132c0.752-3.747,1.502-4.878,3.377-4.878c1.883,0,2.246,2.633,2.246,4.878
		c0,2.254-2.617,24.008-4.496,30.758c-2.253,8.253-5.633,8.253-18.378,8.253c-24.751,0-43.882-0.761-57.38-1.131
		c-13.871-0.745-22.498-0.745-27.377-0.745c-0.754,0-7.127,0-14.249,0.374c-6.382,0.371-13.872,0.741-19.128,0.741
		c-3.37,0-5.246-0.741-5.246-2.618c0-1.126,0.75-2.628,2.627-2.628c2.994,0,7.125-1.127,10.127-1.502
		c6.373-1.117,7.115-7.494,8.618-16.877c1.876-13.127,1.876-38.248,1.876-68.998V209.044z"/>
	<path fill="#174885" stroke="#174885" stroke-width="3.0087" d="M4606.227,209.044c0-49.508,0-58.509-0.74-68.626
		c-0.75-10.873-2.629-16.131-13.509-17.633c-2.625-0.371-8.249-0.746-11.241-0.746c-1.128,0-2.631-1.502-2.631-2.623
		c0-1.877,1.503-2.624,5.246-2.624c15.012,0,37.134,0.747,39.012,0.747c3.369,0,31.123-0.747,41.25-0.747
		c20.998,0,44.246,1.879,61.498,13.873c8.249,5.997,22.874,21.376,22.874,43.505c0,23.624-9.753,46.498-40.503,72.744
		c27.004,33.761,49.881,62.632,69.01,82.51c17.613,17.996,28.494,21.005,36.746,22.124c6.383,1.127,9.752,1.127,11.631,1.127
		c1.875,0,3.002,1.502,3.002,2.628c0,1.877-1.877,2.618-7.887,2.618h-20.619c-18.754,0-27.003-1.873-35.255-6.373
		c-14.246-7.5-26.243-22.873-44.996-46.873c-13.884-17.253-28.507-37.883-35.629-46.499c-1.503-1.503-2.255-1.876-4.497-1.876
		l-42.004-0.754c-1.498,0-2.251,0.754-2.251,2.63v7.494c0,30.753,0,55.499,1.501,68.626c1.127,9.383,3.002,15.374,13.123,16.877
		c4.504,0.762,11.629,1.502,14.623,1.502c2.252,0,2.627,1.502,2.627,2.628c0,1.503-1.502,2.618-5.246,2.618
		c-18.004,0-38.998-1.115-40.5-1.115c-0.376,0-22.498,1.115-32.626,1.115c-3.38,0-5.256-0.741-5.256-2.618
		c0-1.126,0.749-2.628,2.625-2.628c2.994,0,7.127-0.74,10.13-1.502c6.373-1.503,7.123-7.494,8.626-16.877
		c1.866-13.127,1.866-38.248,1.866-68.998V209.044z M4634.734,236.042c0,1.879,0.753,3.005,2.251,4.125
		c4.873,2.623,21.748,4.881,36.371,4.881c7.875,0,16.877-0.38,24.752-5.625c11.256-7.5,19.879-24.377,19.879-48.752
		c0-39.761-21.746-62.634-57-62.634c-9.752,0-20.256,1.126-23.625,1.877c-1.502,0.751-2.628,1.877-2.628,3.743V236.042z"/>
	<path fill="#174885" stroke="#174885" stroke-width="3.0087" d="M4888.188,265.298c0,30.75,0,55.871,1.514,68.998
		c1.125,9.383,2.242,15.374,12.006,16.877c4.867,0.762,11.993,1.502,14.986,1.502c1.879,0,2.627,1.502,2.627,2.628
		c0,1.503-1.501,2.618-5.246,2.618c-18.377,0-39.759-1.115-41.248-1.115c-1.881,0-22.509,1.115-32.629,1.115
		c-3.38,0-5.256-0.741-5.256-2.618c0-1.126,0.75-2.628,2.631-2.628c3,0,7.121-0.74,10.125-1.502c6.373-1.503,7.5-7.494,8.625-16.877
		c1.492-13.127,1.879-38.248,1.879-68.998v-56.254c0-49.508,0-58.509-0.762-68.626c-0.74-10.873-3.369-15.755-10.502-17.252
		c-3.736-0.751-7.867-1.127-10.12-1.127c-1.499,0-2.616-1.502-2.616-2.623c0-1.877,1.49-2.624,5.246-2.624
		c10.87,0,31.498,0.747,33.379,0.747c1.489,0,22.871-0.747,32.99-0.747c3.752,0,5.256,0.747,5.256,2.624
		c0,1.121-1.504,2.623-2.619,2.623c-2.252,0-4.506,0-8.252,0.746c-8.998,1.877-10.877,6.378-11.627,17.633
		c-0.387,10.117-0.387,19.118-0.387,68.626V265.298z"/>
	<path fill="#174885" stroke="#174885" stroke-width="3.0087" d="M5010.43,314.415c0.74,26.254,3.755,34.139,12.76,36.381
		c5.994,1.503,13.493,1.879,16.487,1.879c1.503,0,2.63,1.118,2.63,2.628c0,1.877-2.244,2.618-5.998,2.618
		c-18.754,0-31.876-1.115-34.879-1.115c-2.993,0-16.875,1.115-31.875,1.115c-3.369,0-5.245-0.37-5.245-2.618
		c0-1.51,1.114-2.628,2.615-2.628c2.63,0,8.626-0.376,13.51-1.879c8.249-2.242,9.375-10.872,9.375-39.748V128.412
		c0-12.751,1.868-16.12,4.497-16.12c3.744,0,9.375,6.379,12.744,9.747c5.258,5.258,53.258,56.25,104.25,108.757
		c32.637,33.743,67.882,71.625,78.008,82.129l-3.381-159.762c-0.372-20.621-2.252-27.745-12.367-29.622
		c-5.996-1.126-13.495-1.502-16.125-1.502c-2.254,0-2.628-1.877-2.628-2.993c0-1.878,2.628-2.254,6.384-2.254
		c14.997,0,30.746,0.747,34.503,0.747c3.745,0,14.624-0.747,28.118-0.747c3.371,0,6.01,0.376,6.01,2.254
		c0,1.116-1.502,2.993-3.756,2.993c-1.502,0-4.129,0-7.874,0.746c-10.88,2.259-11.631,8.626-11.631,27.75l-0.739,186.766
		c0,20.994-0.387,22.873-2.641,22.873c-3.369,0-6.748-2.623-25.115-19.505c-3.379-2.993-51.016-49.879-85.883-86.249
		c-38.248-40.13-75.381-79.124-85.508-90.384L5010.43,314.415z"/>
	<path fill="#174885" stroke="#174885" stroke-width="3.0087" d="M5458.891,276.55c0-25.883-0.764-29.636-14.26-32.256
		c-2.615-0.377-8.248-0.746-11.24-0.746c-1.129,0-2.632-1.502-2.632-2.625c0-2.253,1.503-2.635,5.247-2.635
		c15.008,0,37.131,0.759,39.011,0.759c1.5,0,22.12-0.759,32.249-0.759c3.744,0,5.246,0.382,5.246,2.635
		c0,1.123-1.502,2.625-2.628,2.625c-2.243,0-4.497,0-8.249,0.746c-8.993,1.502-11.619,6.373-12.372,17.625
		c-0.374,10.129-0.374,19.501-0.374,33.002v35.629c0,14.621-0.377,14.999-4.506,17.254c-20.998,10.878-50.992,14.247-70.125,14.247
		c-25.125,0-71.999-2.999-108.746-34.12c-20.256-16.883-39.383-51.013-39.383-90.761c0-50.995,25.865-87.006,55.133-104.628
		c29.611-18.001,62.614-20.25,87.752-20.25c21.004,0,44.244,3.745,50.627,5.247c6.738,1.508,18.377,3.379,26.619,3.379
		c3.379,0,4.131,1.497,4.131,3c0,4.494-1.879,13.12-1.879,45.005c0,5.247-1.49,6.749-3.743,6.749c-1.88,0-2.253-1.877-2.253-4.881
		c-0.387-4.12-2.244-13.503-7.499-20.996c-8.265-12.006-33.378-24.751-76.132-24.751c-19.881,0-43.881,1.496-68.996,20.62
		c-19.133,14.634-32.637,43.129-32.637,80.262c0,44.991,23.249,77.247,34.878,88.126c26.255,24.37,54.001,33.368,84.383,33.368
		c11.63,0,27.001-1.118,35.629-5.989c4.118-2.255,6.749-3.755,6.749-9.759V276.55z"/>
</g>
<path fill="#174885" stroke="#174885" stroke-miterlimit="10" d="M720.991,591.954c0,20.779,0.396,23.55,11.877,24.746l6.334,0.593
	c1.189,0.789,0.792,4.35-0.395,4.943c-11.285-0.398-18.013-0.594-25.932-0.594c-7.918,0-14.849,0.195-27.519,0.594
	c-1.187-0.594-1.582-3.958,0-4.943l7.128-0.593c11.282-0.995,12.272-3.967,12.272-24.746v-88.49c0-6.14,0-6.336-5.938-6.336h-10.89
	c-8.511,0-19.397,0.397-24.348,4.95c-4.751,4.355-6.732,8.712-8.91,13.654c-1.583,1.19-4.354,0.204-5.143-1.384
	c3.167-8.908,6.134-21.577,7.521-29.492c0.593-0.399,3.168-0.595,3.761,0c1.187,6.335,7.721,6.132,16.828,6.132h80.173
	c10.688,0,12.471-0.393,15.44-5.536c0.991-0.4,3.167-0.205,3.565,0.586c-2.177,8.119-3.565,24.156-2.971,30.094
	c-0.79,1.581-4.159,1.581-5.147,0.398c-0.595-4.95-1.977-12.278-4.949-14.452c-4.553-3.37-12.075-4.95-22.961-4.95h-14.056
	c-5.938,0-5.741,0.196-5.741,6.732V591.954z"/>
<path fill="#174885" stroke="#174885" stroke-miterlimit="10" d="M796.209,509.993c0-11.678-0.196-12.865-6.139-16.432l-1.976-1.189
	c-0.991-0.586-0.991-3.362,0-3.957c4.948-1.58,14.254-4.552,21.377-8.312c0.795,0,1.584,0.396,1.982,1.188
	c-0.201,5.938-0.595,15.838-0.595,24.551v41.567c0,1.782,0.197,3.368,0.791,3.762c7.128-5.546,16.629-10.293,26.726-10.293
	c18.808,0,25.536,11.676,25.536,25.534v33.06c0,14.257,0.396,16.431,7.521,17.229l5.348,0.593c1.384,0.985,0.988,4.35-0.397,4.943
	c-7.126-0.398-12.866-0.594-19.797-0.594c-7.126,0-13.064,0.195-18.41,0.594c-1.384-0.594-1.78-3.958-0.396-4.943l3.959-0.593
	c7.326-1.196,7.522-2.973,7.522-17.229v-28.306c0-12.669-6.134-21.185-18.804-21.185c-6.731,0-11.881,2.377-15.441,5.349
	c-3.562,2.966-4.158,3.957-4.158,10.887v33.255c0,14.257,0.394,16.234,7.522,17.229l4.158,0.593c1.383,0.789,0.99,4.35-0.397,4.943
	c-5.938-0.398-11.68-0.594-18.607-0.594c-7.13,0-13.068,0.195-19.402,0.594c-1.387-0.594-1.78-3.958-0.396-4.943l4.951-0.593
	c7.326-0.799,7.522-2.973,7.522-17.229V509.993z"/>
<path fill="#174885" stroke="#174885" stroke-miterlimit="10" d="M906.471,570.964c-5.148,0-5.344,0.398-5.344,5.349
	c0,19.989,11.679,37.016,32.861,37.016c6.531,0,12.075-1.978,18.211-9.697c1.98-0.595,3.368,0.594,3.564,2.371
	c-6.533,13.466-20.785,18.416-31.082,18.416c-12.865,0-22.961-5.546-28.702-13.067c-5.938-7.72-8.315-17.025-8.315-25.731
	c0-24.354,16.037-44.742,39.788-44.742c17.028,0,28.116,11.676,28.116,23.556c0,2.77-0.399,4.355-0.796,5.146
	c-0.592,1.189-3.362,1.385-11.678,1.385H906.471z M918.743,565.027c14.65,0,19.005-0.79,20.588-1.979
	c0.593-0.399,1.187-1.19,1.187-3.763c0-5.544-3.761-12.473-15.243-12.473c-11.681,0-21.775,10.691-21.973,17.221
	c0,0.398,0,0.993,1.384,0.993H918.743z"/>
<path fill="#174885" stroke="#174885" stroke-miterlimit="10" d="M1050.185,546.813c0,5.349,0.593,5.349,6.531,5.349h13.46
	c8.118,0,14.453-0.398,16.825-1.188c2.18-0.791,3.764-1.783,4.952-6.93l1.779-7.923c0.992-1.181,4.359-1.181,5.15,0
	c0,4.756-0.792,12.671-0.792,19.998c0,7.125,0.792,14.649,0.792,19.2c-0.792,1.188-3.764,1.188-5.15,0l-1.977-7.718
	c-0.792-3.567-2.575-6.336-6.335-7.524c-2.773-0.791-7.72-0.986-15.244-0.986h-13.46c-5.938,0-6.531,0.195-6.531,5.342v27.521
	c0,20.779,0.395,23.751,12.075,24.746l6.728,0.593c1.188,0.789,0.793,4.35-0.395,4.943c-11.679-0.398-18.408-0.594-26.327-0.594
	c-8.714,0-15.445,0.195-24.747,0.594c-1.187-0.594-1.584-3.761-0.397-4.943l4.952-0.593c11.478-1.392,11.874-3.967,11.874-24.746
	v-71.27c0-20.788-0.396-23.557-11.874-24.941l-3.167-0.399c-1.191-0.79-0.795-4.355,0.392-4.949
	c8.315,0.398,15.048,0.594,22.967,0.594h36.423c12.669,0,24.149,0,26.723-0.594c0,9.111,0.2,18.613,0.594,26.136
	c-0.594,1.183-3.364,1.776-4.748,0.594c-1.587-8.914-3.96-16.039-13.86-18.809c-4.353-0.991-10.887-1.188-19.2-1.188h-12.076
	c-5.938,0-5.938,0.397-5.938,7.914V546.813z"/>
<path fill="#174885" stroke="#174885" stroke-miterlimit="10" d="M1141.849,592.541c0,13.662,3.367,22.768,18.408,22.768
	c5.347,0,11.682-2.176,16.036-5.938c2.575-2.377,3.959-5.341,3.959-11.48v-32.464c0-12.873-1.384-13.264-7.326-15.641l-2.571-0.993
	c-1.386-0.791-1.386-3.56,0.198-4.35c7.918-0.201,18.807-1.587,23.161-3.565c0.991,0.196,1.583,0.593,1.781,1.384
	c-0.397,3.762-0.595,9.901-0.595,17.221v33.263c0,15.635,0.595,21.577,6.14,21.577c2.374,0,4.946-0.398,7.719-0.993
	c1.188,0.993,1.386,4.95-0.197,5.741c-7.722,1.588-19.202,3.565-25.934,7.327c-0.99,0-1.979-0.595-2.376-1.392v-8.109
	c0-1.784-0.594-2.771-1.781-2.771c-5.938,3.757-15.639,10.294-27.319,10.294c-17.421,0-23.951-8.713-23.951-24.752v-33.052
	c0-12.474,0-14.257-5.938-16.829l-2.377-0.993c-1.187-0.986-0.991-3.761,0.396-4.35c9.106-0.201,16.829-1.985,21.181-3.565
	c1.187,0.196,1.781,0.593,1.981,1.384c-0.396,3.363-0.595,7.524-0.595,17.221V592.541z"/>
<path fill="#174885" stroke="#174885" stroke-miterlimit="10" d="M1302.787,546.813c0,5.349,0.593,5.349,6.532,5.349h13.463
	c8.114,0,14.449-0.398,16.823-1.188c2.179-0.791,3.763-1.783,4.952-6.93l1.779-7.923c0.992-1.181,4.357-1.181,5.147,0
	c0,4.756-0.79,12.671-0.79,19.998c0,7.125,0.79,14.649,0.79,19.2c-0.79,1.188-3.759,1.188-5.147,0l-1.977-7.718
	c-0.793-3.567-2.575-6.336-6.334-7.524c-2.773-0.791-7.722-0.986-15.243-0.986h-13.463c-5.938,0-6.532,0.195-6.532,5.342v27.521
	c0,20.779,0.397,23.751,12.077,24.746l6.726,0.593c1.192,0.789,0.795,4.35-0.391,4.943c-11.681-0.398-18.412-0.594-26.331-0.594
	c-8.712,0-15.442,0.195-24.745,0.594c-1.187-0.594-1.583-3.761-0.398-4.943l4.952-0.593c11.479-1.392,11.875-3.967,11.875-24.746
	v-71.27c0-20.788-0.397-23.557-11.875-24.941l-3.167-0.399c-1.191-0.79-0.794-4.355,0.393-4.949
	c8.315,0.398,15.047,0.594,22.965,0.594h36.425c12.669,0,24.148,0,26.722-0.594c0,9.111,0.199,18.613,0.595,26.136
	c-0.595,1.183-3.363,1.776-4.748,0.594c-1.587-8.914-3.961-16.039-13.859-18.809c-4.354-0.991-10.886-1.188-19.201-1.188h-12.077
	c-5.938,0-5.938,0.397-5.938,7.914V546.813z"/>
<path fill="#174885" stroke="#174885" stroke-miterlimit="10" d="M1449.886,581.856c0,24.746-17.023,42.562-41.769,42.562
	c-22.764,0-40.582-16.039-40.582-40.785c0-24.941,18.808-42.756,42.166-42.756C1431.873,540.877,1449.886,557.505,1449.886,581.856z
	 M1407.324,546.813c-13.062,0-22.764,12.473-22.764,34.247c0,18.018,8.118,37.415,25.538,37.415
	c17.421,0,22.765-18.209,22.765-33.451C1432.863,568.194,1426.133,546.813,1407.324,546.813z"/>
<path fill="#174885" stroke="#174885" stroke-miterlimit="10" d="M1488.291,592.541c0,13.662,3.363,22.768,18.41,22.768
	c5.345,0,11.68-2.176,16.034-5.938c2.573-2.377,3.956-5.341,3.956-11.48v-32.464c0-12.873-1.382-13.264-7.32-15.641l-2.574-0.993
	c-1.387-0.791-1.387-3.56,0.197-4.35c7.918-0.201,18.806-1.587,23.162-3.565c0.989,0.196,1.583,0.593,1.779,1.384
	c-0.393,3.762-0.593,9.901-0.593,17.221v33.263c0,15.635,0.593,21.577,6.138,21.577c2.374,0,4.949-0.398,7.719-0.993
	c1.191,0.993,1.386,4.95-0.198,5.741c-7.721,1.588-19.202,3.565-25.931,7.327c-0.992,0-1.981-0.595-2.38-1.392v-8.109
	c0-1.784-0.592-2.771-1.779-2.771c-5.938,3.757-15.641,10.294-27.32,10.294c-17.42,0-23.951-8.713-23.951-24.752v-33.052
	c0-12.474,0-14.257-5.938-16.829l-2.377-0.993c-1.187-0.986-0.991-3.761,0.396-4.35c9.106-0.201,16.827-1.985,21.181-3.565
	c1.188,0.196,1.781,0.593,1.98,1.384c-0.396,3.363-0.593,7.524-0.593,17.221V592.541z"/>
<path fill="#174885" stroke="#174885" stroke-miterlimit="10" d="M1577.563,564.831c0-7.719,0-8.712-5.343-12.278l-1.785-1.188
	c-0.79-0.79-0.79-2.966,0.201-3.56c4.55-1.588,15.836-6.732,19.794-9.698c0.793,0,1.783,0.393,2.177,1.386
	c-0.394,4.551-0.394,7.522-0.394,9.299c0,1.188,0.791,2.182,2.178,2.182c8.312-5.146,17.617-10.097,27.712-10.097
	c16.428,0,23.162,11.285,23.162,24.549v34.045c0,14.257,0.399,16.234,7.524,17.229l4.353,0.593c1.388,0.985,0.992,4.35-0.392,4.943
	c-5.943-0.398-11.68-0.594-18.613-0.594c-7.125,0-13.064,0.195-18.407,0.594c-1.387-0.594-1.782-3.958-0.398-4.943l3.762-0.593
	c7.328-1.196,7.523-2.973,7.523-17.229v-29.492c0-11.287-5.149-19.599-18.609-19.599c-7.522,0-14.056,3.167-16.827,6.928
	c-2.574,3.364-2.968,6.14-2.968,11.881v30.282c0,14.257,0.394,16.033,7.521,17.229l3.562,0.593c1.388,0.985,0.99,4.35-0.394,4.943
	c-5.343-0.398-11.085-0.594-18.013-0.594c-7.128,0-13.065,0.195-18.611,0.594c-1.384-0.594-1.78-3.958-0.393-4.943l4.156-0.593
	c7.323-0.995,7.521-2.973,7.521-17.229V564.831z"/>
<path fill="#174885" stroke="#174885" stroke-miterlimit="10" d="M1746.021,592.744c0,15.635,0.195,22.961,5.74,22.961
	c2.182,0,5.545-0.991,8.516-1.978c1.385,0.396,1.581,5.342-0.199,6.335c-8.317,1.188-20.588,4.152-26.133,6.334
	c-1.188,0-2.174-0.595-2.174-1.587v-3.363c0-2.971,0-5.342-0.399-6.138h-0.791c-8.712,5.942-15.441,9.109-24.943,9.109
	c-21.973,0-36.625-17.222-36.625-38.009c0-27.718,20.987-45.532,47.905-45.532c6.734,0,11.09,0.987,13.264,1.783
	c0.993,0,1.189-1.19,1.189-2.776v-29.891c0-11.678-0.196-12.865-6.135-16.432l-1.982-1.189c-0.986-0.586-0.986-3.362,0-3.957
	c4.95-1.58,14.256-4.552,21.382-8.312c0.789,0,1.58,0.396,1.979,1.188c-0.196,5.938-0.594,15.838-0.594,24.551V592.744z
	 M1731.373,563.049c0-3.958-0.791-5.741-2.178-7.72c-2.972-4.159-8.908-8.313-16.627-8.313c-18.016,0-27.322,15.634-27.322,32.854
	c0,18.02,10.097,35.045,29.5,35.045c5.342,0,12.076-2.377,15.243-5.545c1.188-1.188,1.384-4.158,1.384-7.326V563.049z"/>
<path fill="#174885" stroke="#174885" stroke-miterlimit="10" d="M1809.761,580.661c2.972-0.986,3.168-2.768,3.363-5.733
	l0.203-9.111c0.196-7.32-2.182-17.222-14.452-17.222c-5.545,0-12.274,2.771-12.67,8.91c-0.199,3.167-0.398,5.544-1.979,6.732
	c-2.971,2.377-8.314,3.761-11.285,3.761c-1.783,0-2.772-0.991-2.772-2.775c0-10.292,22.372-24.346,36.824-24.346
	c14.249,0,21.179,8.313,20.584,23.157l-1.188,34.449c-0.392,9.105,1.388,17.222,9.111,17.222c1.972,0,3.761-0.594,4.947-1.187
	c0.989-0.596,1.982-1.386,2.573-1.386c0.786,0,1.385,1.188,1.385,2.572c0,0.995-6.933,8.713-16.627,8.713
	c-4.751,0-9.502-1.783-12.869-6.14c-0.794-1.188-1.979-2.774-3.168-2.774c-1.384,0-3.762,1.789-7.719,3.964
	c-4.356,2.37-8.712,4.95-14.253,4.95c-5.743,0-10.491-1.588-13.855-4.551c-3.761-3.372-6.142-8.321-6.142-13.865
	c0-7.714,3.765-12.272,16.435-16.825L1809.761,580.661z M1797.49,615.504c3.954,0,10.097-2.966,12.076-4.943
	c2.374-2.378,2.573-5.147,2.573-9.307l0.392-11.677c0-2.182-0.79-2.582-1.979-2.582s-4.552,0.798-8.114,1.986
	c-11.681,3.958-17.421,6.93-17.421,14.649C1785.016,606.993,1787.393,615.504,1797.49,615.504z"/>
<path fill="#174885" stroke="#174885" stroke-miterlimit="10" d="M1878.445,551.959c-3.36,0-3.56,0.594-3.56,4.755v37.016
	c0,11.482,1.385,21.976,14.452,21.976c1.979,0,3.759-0.396,5.342-0.991c1.783-0.59,4.359-2.77,4.951-2.77
	c1.583,0,2.377,2.18,1.979,3.364c-3.559,4.159-10.688,9.109-20.784,9.109c-17.022,0-20.588-9.503-20.588-21.382V557.7
	c0-5.343-0.196-5.741-4.157-5.741h-5.542c-1.192-0.789-1.388-2.964-0.594-4.153c5.737-1.783,10.69-4.355,12.663-6.139
	c2.576-2.379,6.334-7.719,8.316-11.676c0.993-0.399,3.367-0.399,4.161,0.985v8.907c0,3.566,0.192,3.762,3.562,3.762h21.969
	c2.381,1.782,1.982,7.131,0.203,8.313H1878.445z"/>
<path fill="#174885" stroke="#174885" stroke-miterlimit="10" d="M1922.987,564.831c0-7.719,0-8.712-5.346-12.278l-1.782-1.188
	c-0.791-0.79-0.791-2.966,0.202-3.56c4.552-1.588,15.837-6.732,20.389-9.698c0.986,0,1.783,0.393,1.975,1.181
	c-0.395,6.93-0.79,16.434-0.79,24.551v35.632c0,14.257,0.396,16.234,7.523,17.229l4.156,0.593c1.385,0.985,0.99,4.35-0.394,4.943
	c-5.94-0.398-11.68-0.594-18.61-0.594c-7.125,0-13.065,0.195-18.609,0.594c-1.384-0.594-1.779-3.958-0.395-4.943l4.156-0.593
	c7.325-0.995,7.524-2.973,7.524-17.229V564.831z M1939.219,500.692c0,6.93-4.951,10.098-10.293,10.098
	c-6.138,0-10.096-4.356-10.096-9.705c0-6.531,4.95-10.489,10.69-10.489C1935.457,490.596,1939.219,495.148,1939.219,500.692z"/>
<path fill="#174885" stroke="#174885" stroke-miterlimit="10" d="M2043.742,581.856c0,24.746-17.025,42.562-41.772,42.562
	c-22.763,0-40.582-16.039-40.582-40.785c0-24.941,18.805-42.756,42.166-42.756C2025.723,540.877,2043.742,557.505,2043.742,581.856z
	 M2001.176,546.813c-13.061,0-22.766,12.473-22.766,34.247c0,18.018,8.117,37.415,25.542,37.415
	c17.415,0,22.765-18.209,22.765-33.451C2026.716,568.194,2019.983,546.813,2001.176,546.813z"/>
<path fill="#174885" stroke="#174885" stroke-miterlimit="10" d="M2070.06,564.831c0-7.719,0-8.712-5.342-12.278l-1.783-1.188
	c-0.79-0.79-0.79-2.966,0.195-3.56c4.552-1.588,15.838-6.732,19.802-9.698c0.79,0,1.776,0.393,2.175,1.386
	c-0.398,4.551-0.398,7.522-0.398,9.299c0,1.188,0.79,2.182,2.181,2.182c8.314-5.146,17.614-10.097,27.71-10.097
	c16.432,0,23.168,11.285,23.168,24.549v34.045c0,14.257,0.392,16.234,7.518,17.229l4.355,0.593c1.385,0.985,0.985,4.35-0.392,4.943
	c-5.943-0.398-11.685-0.594-18.61-0.594c-7.131,0-13.067,0.195-18.409,0.594c-1.392-0.594-1.783-3.958-0.398-4.943l3.762-0.593
	c7.321-1.196,7.523-2.973,7.523-17.229v-29.492c0-11.287-5.146-19.599-18.612-19.599c-7.518,0-14.055,3.167-16.823,6.928
	c-2.573,3.364-2.972,6.14-2.972,11.881v30.282c0,14.257,0.398,16.033,7.523,17.229l3.566,0.593c1.384,0.985,0.985,4.35-0.399,4.943
	c-5.342-0.398-11.083-0.594-18.011-0.594c-7.126,0-13.069,0.195-18.613,0.594c-1.385-0.594-1.776-3.958-0.393-4.943l4.154-0.593
	c7.327-0.995,7.523-2.973,7.523-17.229V564.831z"/>
<path fill="#174885" stroke="#174885" stroke-miterlimit="10" d="M2248.423,624.81c-16.634,0-27.121-5.146-30.884-7.321
	c-2.377-4.355-4.95-18.41-5.349-27.716c0.993-1.386,3.964-1.782,4.748-0.596c2.979,10.097,11.09,29.494,34.051,29.494
	c16.628,0,24.744-10.881,24.744-22.76c0-8.711-1.782-18.41-16.228-27.717l-18.81-12.271c-9.894-6.538-21.381-17.816-21.381-34.052
	c0-18.809,14.655-34.051,40.387-34.051c6.138,0,13.264,0.993,18.409,2.573c2.573,0.594,5.343,1.188,6.929,1.188
	c1.783,4.754,3.566,15.838,3.566,24.149c-0.79,1.19-3.957,1.784-4.951,0.595c-2.572-9.501-7.922-22.367-26.926-22.367
	c-19.396,0-23.556,12.866-23.556,21.977c0,11.479,9.502,19.592,16.829,24.347l15.837,9.899
	c12.474,7.719,24.745,19.201,24.745,38.009C2290.585,609.966,2274.155,624.81,2248.423,624.81z"/>
<path fill="#174885" stroke="#174885" stroke-miterlimit="10" d="M2373.526,544.241c1.58,1.383,2.964,4.551,2.964,7.921
	c0,3.56-1.972,7.319-4.349,7.319c-0.993,0-1.985-0.391-2.775-1.383c-4.35-5.342-11.677-10.489-19.795-10.489
	c-13.858,0-27.325,10.887-27.325,31.87c0,15.438,10.698,33.849,31.877,33.849c11.481,0,17.425-5.146,21.97-11.873
	c1.593-0.397,3.37,0.985,3.565,2.77c-6.732,14.647-21.577,20.193-33.059,20.193c-10.488,0-20.192-3.37-27.122-10.097
	c-6.922-6.732-11.474-16.432-11.474-29.297c0-21.381,15.04-44.147,47.902-44.147
	C2360.458,540.877,2368.184,541.864,2373.526,544.241z"/>
<path fill="#174885" stroke="#174885" stroke-miterlimit="10" d="M2397.473,509.993c0-11.678-0.195-12.865-6.138-16.432
	l-1.979-1.189c-0.986-0.586-0.986-3.362,0-3.957c4.95-1.58,14.257-4.552,21.382-8.312c0.79,0,1.58,0.396,1.979,1.188
	c-0.202,5.938-0.595,15.838-0.595,24.551v41.567c0,1.782,0.196,3.368,0.79,3.762c7.132-5.546,16.635-10.293,26.731-10.293
	c18.801,0,25.534,11.676,25.534,25.534v33.06c0,14.257,0.398,16.431,7.518,17.229l5.349,0.593c1.384,0.985,0.985,4.35-0.393,4.943
	c-7.132-0.398-12.872-0.594-19.801-0.594c-7.125,0-13.062,0.195-18.41,0.594c-1.385-0.594-1.782-3.958-0.392-4.943l3.958-0.593
	c7.327-1.196,7.516-2.973,7.516-17.229v-28.306c0-12.669-6.132-21.185-18.801-21.185c-6.733,0-11.88,2.377-15.438,5.349
	c-3.566,2.966-4.161,3.957-4.161,10.887v33.255c0,14.257,0.393,16.234,7.524,17.229l4.16,0.593c1.377,0.789,0.985,4.35-0.399,4.943
	c-5.937-0.398-11.677-0.594-18.605-0.594c-7.132,0-13.068,0.195-19.402,0.594c-1.385-0.594-1.784-3.958-0.399-4.943l4.951-0.593
	c7.327-0.799,7.522-2.973,7.522-17.229V509.993z"/>
<path fill="#174885" stroke="#174885" stroke-miterlimit="10" d="M2571.283,581.856c0,24.746-17.026,42.562-41.771,42.562
	c-22.766,0-40.582-16.039-40.582-40.785c0-24.941,18.809-42.756,42.162-42.756C2553.263,540.877,2571.283,557.505,2571.283,581.856z
	 M2528.721,546.813c-13.067,0-22.772,12.473-22.772,34.247c0,18.018,8.124,37.415,25.542,37.415
	c17.424,0,22.766-18.209,22.766-33.451C2554.256,568.194,2547.523,546.813,2528.721,546.813z"/>
<path fill="#174885" stroke="#174885" stroke-miterlimit="10" d="M2667.486,581.856c0,24.746-17.025,42.562-41.771,42.562
	c-22.766,0-40.582-16.039-40.582-40.785c0-24.941,18.802-42.756,42.162-42.756C2649.468,540.877,2667.486,557.505,2667.486,581.856z
	 M2624.918,546.813c-13.062,0-22.767,12.473-22.767,34.247c0,18.018,8.118,37.415,25.542,37.415
	c17.417,0,22.767-18.209,22.767-33.451C2650.46,568.194,2643.727,546.813,2624.918,546.813z"/>
<path fill="#174885" stroke="#174885" stroke-miterlimit="10" d="M2706.48,599.471c0,14.257,0.393,16.234,7.518,17.229l4.754,0.593
	c1.385,0.985,0.992,4.35-0.398,4.943c-6.53-0.398-12.271-0.594-19.2-0.594c-7.125,0-13.068,0.195-19.005,0.594
	c-1.384-0.594-1.782-3.958-0.397-4.943l4.559-0.593c7.32-0.995,7.517-2.973,7.517-17.229v-89.478
	c0-11.678-0.196-12.865-6.133-16.432l-1.979-1.189c-0.993-0.586-0.993-3.362,0-3.957c4.943-1.58,14.25-4.552,21.375-8.312
	c0.797,0,1.587,0.396,1.985,1.188c-0.202,5.938-0.595,15.838-0.595,24.551V599.471z"/>
<path fill="#174885" stroke="#174885" stroke-miterlimit="10" d="M2862.068,581.856c0,24.746-17.019,42.562-41.764,42.562
	c-22.766,0-40.588-16.039-40.588-40.785c0-24.941,18.808-42.756,42.168-42.756C2844.056,540.877,2862.068,557.505,2862.068,581.856z
	 M2819.507,546.813c-13.062,0-22.766,12.473-22.766,34.247c0,18.018,8.117,37.415,25.541,37.415
	c17.418,0,22.767-18.209,22.767-33.451C2845.049,568.194,2838.316,546.813,2819.507,546.813z"/>
<path fill="#174885" stroke="#174885" stroke-miterlimit="10" d="M2905.81,551.959c-3.363,0-3.363,0.398-3.363,5.741v41.771
	c0,14.257,0.399,16.634,7.523,17.229l7.125,0.593c1.385,0.985,0.994,4.35-0.397,4.943c-8.908-0.398-14.642-0.594-21.578-0.594
	c-7.125,0-13.062,0.195-19.005,0.594c-1.384-0.594-1.775-3.958-0.391-4.943l4.552-0.593c7.327-0.995,7.522-2.973,7.522-17.229V557.7
	c0-5.343,0-5.741-3.957-5.741h-6.929c-1.188-0.789-1.392-2.573-0.595-3.761l8.517-4.154c1.579-0.789,2.964-1.979,2.964-3.957
	c0-11.48,1.385-23.76,6.14-34.842c4.95-11.285,16.032-25.143,35.632-25.143c10.494,0,19.396,4.754,19.396,11.879
	c0,3.957-3.761,7.125-7.517,7.125c-2.181,0-3.37-0.791-4.755-2.377c-3.761-4.357-9.3-8.705-15.837-8.705
	c-6.132,0-11.082,3.762-14.054,10.887c-3.565,9.104-4.356,23.556-4.356,33.449v5.747c0,5.343,0,5.538,3.363,5.538h22.57
	c2.182,1.979,0.791,7.524-1.384,8.313H2905.81z"/>
<path fill="#174885" stroke="#174885" stroke-miterlimit="10" d="M3018.428,517.714c0-20.594-0.396-23.563-12.076-24.947
	l-3.168-0.394c-1.186-0.797-0.787-4.354,0.398-4.949c8.512,0.391,15.242,0.595,23.357,0.595h37.219c12.67,0,24.348,0,26.723-0.595
	c1.189,3.362,2.377,17.619,3.166,26.325c-0.789,1.188-3.957,1.588-4.946,0.398c-2.972-9.307-4.751-16.236-15.047-18.809
	c-4.155-0.986-10.489-1.188-19.202-1.188h-14.251c-5.939,0-5.939,0.397-5.939,7.923v39.587c0,5.544,0.596,5.544,6.532,5.544h11.482
	c8.314,0,14.451-0.391,16.826-1.187c2.375-0.79,3.762-1.98,4.751-6.93l1.583-8.11c0.992-1.189,4.355-1.189,5.146,0.195
	c0,4.748-0.791,12.474-0.791,19.989c0,7.134,0.791,14.655,0.791,19.007c-0.791,1.391-4.154,1.391-5.146,0.195l-1.782-7.714
	c-0.79-3.565-2.177-6.536-6.136-7.523c-2.771-0.796-7.521-0.993-15.242-0.993h-11.482c-5.937,0-6.532,0.197-6.532,5.35v27.912
	c0,10.488,0.596,17.222,3.761,20.584c2.374,2.377,6.533,4.553,23.954,4.553c15.243,0,20.981-0.79,25.337-2.966
	c3.564-1.984,8.909-8.906,14.057-19.206c1.385-0.993,4.157-0.393,4.947,1.384c-1.382,6.93-6.334,22.174-8.906,27.521
	c-17.814-0.397-35.435-0.593-53.054-0.593h-17.817c-8.512,0-15.242,0.195-26.923,0.593c-1.186-0.593-1.583-3.76-0.396-4.95
	l6.536-0.594c11.281-0.987,12.271-3.957,12.271-24.744V517.714z"/>
<path fill="#174885" stroke="#174885" stroke-miterlimit="10" d="M3126.936,561.854c0-7.72,0-8.705-5.344-12.271l-1.783-1.188
	c-0.792-0.796-0.792-2.972,0.199-3.567c4.553-1.58,15.838-6.732,19.793-9.696c0.796,0,1.785,0.391,2.178,1.385
	c-0.393,4.552-0.393,7.521-0.393,9.306c0,1.188,0.789,2.174,2.178,2.174c8.312-5.145,17.617-10.097,27.711-10.097
	c16.432,0,23.164,11.286,23.164,24.55v34.051c0,14.25,0.396,16.234,7.521,17.222l4.354,0.594c1.387,0.993,0.99,4.357-0.394,4.95
	c-5.94-0.397-11.679-0.593-18.61-0.593c-7.126,0-13.063,0.195-18.406,0.593c-1.389-0.593-1.785-3.957-0.397-4.95l3.76-0.594
	c7.326-1.188,7.521-2.972,7.521-17.222V567c0-11.279-5.147-19.599-18.606-19.599c-7.522,0-14.059,3.167-16.829,6.93
	c-2.573,3.362-2.966,6.138-2.966,11.88v30.288c0,14.25,0.393,16.033,7.521,17.222l3.562,0.594c1.385,0.993,0.988,4.357-0.395,4.95
	c-5.344-0.397-11.087-0.593-18.014-0.593c-7.131,0-13.068,0.195-18.611,0.593c-1.385-0.593-1.781-3.957-0.393-4.95l4.156-0.594
	c7.322-0.987,7.521-2.972,7.521-17.222V561.854z"/>
<path fill="#174885" stroke="#174885" stroke-miterlimit="10" d="M3299.75,545.024c2.176,0.993,1.782,7.726-1.188,8.124h-14.253
	c0.396,3.362,0.396,6.727,0.396,10.091c0,13.66-8.12,31.477-33.258,31.477c-3.563,0-6.334-0.391-8.712-0.595
	c-2.374,1.386-8.709,5.147-8.709,10.887c0,4.559,4.551,8.315,13.857,8.315c6.73,0,14.846-0.59,23.557-0.59
	c11.087,0,27.714,1.973,27.714,21.774c0,21.579-23.558,37.415-49.29,37.415c-24.351,0-32.861-13.068-32.861-22.961
	c0-3.169,0.791-5.748,2.176-7.329c3.365-3.558,8.906-8.712,13.461-13.265c1.78-1.781,3.367-3.558,1.584-4.747
	c-7.719-1.978-14.45-8.712-14.45-15.642c0-0.991,0.79-1.781,2.968-3.362c3.367-2.182,7.127-5.544,10.492-9.11
	c0.99-1.182,1.98-2.768,1.98-3.763c-6.732-3.558-14.848-11.277-14.848-23.946c0-17.032,14.65-29.899,32.268-29.899
	c7.521,0,14.45,1.986,19.005,3.957c6.335,2.776,7.721,3.169,12.075,3.169H3299.75z M3258.375,625.006
	c-6.334,0-14.252,0.398-17.023,2.175c-4.75,2.972-9.502,9.11-9.502,16.634c0,10.685,8.513,19.599,26.525,19.599
	c17.619,0,29.298-9.9,29.298-21.186c0-12.075-8.312-17.222-22.565-17.222H3258.375z M3270.649,568.392
	c0-13.467-5.541-24.745-17.616-24.745c-9.502,0-16.631,8.706-16.631,22.171c0,14.048,8.511,23.159,18.013,23.159
	C3265.108,588.977,3270.649,580.467,3270.649,568.392z"/>
<path fill="#174885" stroke="#174885" stroke-miterlimit="10" d="M3319.147,561.854c0-7.72,0-8.705-5.345-12.271l-1.782-1.188
	c-0.793-0.796-0.793-2.972,0.198-3.567c4.553-1.58,15.838-6.732,20.389-9.696c0.991,0,1.784,0.391,1.979,1.188
	c-0.396,6.928-0.789,16.431-0.789,24.543v35.637c0,14.25,0.394,16.234,7.523,17.222l4.155,0.594c1.386,0.993,0.991,4.357-0.396,4.95
	c-5.938-0.397-11.679-0.593-18.608-0.593c-7.127,0-13.064,0.195-18.608,0.593c-1.387-0.593-1.781-3.957-0.396-4.95l4.159-0.594
	c7.321-0.987,7.521-2.972,7.521-17.222V561.854z M3335.377,497.716c0,6.93-4.945,10.097-10.291,10.097
	c-6.139,0-10.096-4.357-10.096-9.697c0-6.539,4.947-10.496,10.689-10.496C3331.619,487.619,3335.377,492.172,3335.377,497.716z"/>
<path fill="#174885" stroke="#174885" stroke-miterlimit="10" d="M3370.019,561.854c0-7.72,0-8.705-5.345-12.271l-1.782-1.188
	c-0.792-0.796-0.792-2.972,0.199-3.567c4.552-1.58,15.837-6.732,19.794-9.696c0.795,0,1.783,0.391,2.177,1.385
	c-0.394,4.552-0.394,7.521-0.394,9.306c0,1.188,0.79,2.174,2.178,2.174c8.312-5.145,17.617-10.097,27.714-10.097
	c16.429,0,23.161,11.286,23.161,24.55v34.051c0,14.25,0.396,16.234,7.521,17.222l4.354,0.594c1.389,0.993,0.992,4.357-0.393,4.95
	c-5.941-0.397-11.679-0.593-18.611-0.593c-7.125,0-13.062,0.195-18.406,0.593c-1.389-0.593-1.785-3.957-0.396-4.95l3.76-0.594
	c7.326-1.188,7.521-2.972,7.521-17.222V567c0-11.279-5.148-19.599-18.607-19.599c-7.521,0-14.056,3.167-16.826,6.93
	c-2.575,3.362-2.969,6.138-2.969,11.88v30.288c0,14.25,0.394,16.033,7.521,17.222l3.562,0.594c1.387,0.993,0.99,4.357-0.395,4.95
	c-5.344-0.397-11.086-0.593-18.014-0.593c-7.129,0-13.066,0.195-18.61,0.593c-1.386-0.593-1.782-3.957-0.394-4.95l4.156-0.594
	c7.322-0.987,7.522-2.972,7.522-17.222V561.854z"/>
<path fill="#174885" stroke="#174885" stroke-miterlimit="10" d="M3480.278,567.993c-5.148,0-5.344,0.398-5.344,5.343
	c0,19.996,11.68,37.021,32.861,37.021c6.53,0,12.075-1.984,18.209-9.696c1.982-0.602,3.368,0.587,3.565,2.37
	c-6.532,13.46-20.785,18.409-31.081,18.409c-12.865,0-22.963-5.537-28.704-13.067c-5.937-7.712-8.315-17.019-8.315-25.73
	c0-24.346,16.036-44.743,39.793-44.743c17.025,0,28.11,11.685,28.11,23.564c0,2.768-0.396,4.354-0.793,5.139
	c-0.593,1.196-3.363,1.392-11.679,1.392H3480.278z M3492.551,562.057c14.65,0,19.004-0.798,20.588-1.985
	c0.594-0.393,1.187-1.182,1.187-3.756c0-5.55-3.76-12.474-15.244-12.474c-11.679,0-21.774,10.685-21.971,17.222
	c0,0.399,0,0.993,1.384,0.993H3492.551z"/>
<path fill="#174885" stroke="#174885" stroke-miterlimit="10" d="M3558.667,567.993c-5.148,0-5.344,0.398-5.344,5.343
	c0,19.996,11.678,37.021,32.86,37.021c6.531,0,12.075-1.984,18.212-9.696c1.98-0.602,3.366,0.587,3.563,2.37
	c-6.532,13.46-20.785,18.409-31.082,18.409c-12.864,0-22.962-5.537-28.702-13.067c-5.938-7.712-8.315-17.019-8.315-25.73
	c0-24.346,16.037-44.743,39.788-44.743c17.027,0,28.114,11.685,28.114,23.564c0,2.768-0.397,4.354-0.794,5.139
	c-0.592,1.196-3.364,1.392-11.679,1.392H3558.667z M3570.939,562.057c14.65,0,19.005-0.798,20.589-1.985
	c0.593-0.393,1.187-1.182,1.187-3.756c0-5.55-3.761-12.474-15.243-12.474c-11.68,0-21.775,10.685-21.972,17.222
	c0,0.399,0,0.993,1.384,0.993H3570.939z"/>
<path fill="#174885" stroke="#174885" stroke-miterlimit="10" d="M3630.723,561.854c0-7.72,0-8.705-5.346-12.271l-1.782-1.188
	c-0.79-0.796-0.79-2.972,0.198-3.567c4.553-1.58,15.046-6.732,19.996-9.696c0.987,0.195,1.579,0.595,1.579,1.385v11.479
	c0,0.994,0.202,1.588,0.597,1.783c6.93-5.741,14.451-11.88,21.775-11.88c4.947,0,8.909,3.169,8.909,7.923
	c0,6.531-5.345,9.104-8.513,9.104c-1.98,0-2.97-0.594-4.356-1.385c-2.968-1.979-5.938-3.167-8.71-3.167
	c-3.168,0-5.543,1.784-7.127,3.958c-1.979,2.769-2.575,8.516-2.575,15.242v26.926c0,14.25,0.397,16.629,7.923,17.222l7.125,0.594
	c1.386,0.993,0.989,4.357-0.396,4.95c-9.304-0.397-15.044-0.593-21.973-0.593c-7.127,0-13.064,0.195-18.213,0.593
	c-1.384-0.593-1.781-3.957-0.396-4.95l3.76-0.594c7.326-1.188,7.525-2.972,7.525-17.222V561.854z"/>
<path fill="#174885" stroke="#174885" stroke-miterlimit="10" d="M3696.438,561.854c0-7.72,0-8.705-5.344-12.271l-1.783-1.188
	c-0.791-0.796-0.791-2.972,0.199-3.567c4.551-1.58,15.837-6.732,20.388-9.696c0.99,0,1.784,0.391,1.979,1.188
	c-0.396,6.928-0.791,16.431-0.791,24.543v35.637c0,14.25,0.395,16.234,7.523,17.222l4.158,0.594c1.383,0.993,0.986,4.357-0.396,4.95
	c-5.938-0.397-11.681-0.593-18.607-0.593c-7.129,0-13.066,0.195-18.611,0.593c-1.385-0.593-1.781-3.957-0.394-4.95l4.154-0.594
	c7.325-0.987,7.524-2.972,7.524-17.222V561.854z M3712.671,497.716c0,6.93-4.95,10.097-10.295,10.097
	c-6.138,0-10.096-4.357-10.096-9.697c0-6.539,4.947-10.496,10.688-10.496C3708.909,487.619,3712.671,492.172,3712.671,497.716z"/>
<path fill="#174885" stroke="#174885" stroke-miterlimit="10" d="M3747.31,561.854c0-7.72,0-8.705-5.344-12.271l-1.784-1.188
	c-0.791-0.796-0.791-2.972,0.201-3.567c4.549-1.58,15.837-6.732,19.794-9.696c0.794,0,1.78,0.391,2.177,1.385
	c-0.396,4.552-0.396,7.521-0.396,9.306c0,1.188,0.793,2.174,2.179,2.174c8.312-5.145,17.619-10.097,27.715-10.097
	c16.43,0,23.162,11.286,23.162,24.55v34.051c0,14.25,0.396,16.234,7.521,17.222l4.356,0.594c1.386,0.993,0.989,4.357-0.396,4.95
	c-5.938-0.397-11.68-0.593-18.606-0.593c-7.13,0-13.067,0.195-18.412,0.593c-1.386-0.593-1.782-3.957-0.396-4.95l3.76-0.594
	c7.325-1.188,7.521-2.972,7.521-17.222V567c0-11.279-5.145-19.599-18.606-19.599c-7.522,0-14.058,3.167-16.826,6.93
	c-2.575,3.362-2.972,6.138-2.972,11.88v30.288c0,14.25,0.396,16.033,7.524,17.222l3.562,0.594c1.387,0.993,0.989,4.357-0.395,4.95
	c-5.346-0.397-11.087-0.593-18.014-0.593c-7.13,0-13.066,0.195-18.611,0.593c-1.384-0.593-1.781-3.957-0.393-4.95l4.154-0.594
	c7.323-0.987,7.523-2.972,7.523-17.222V561.854z"/>
<path fill="#174885" stroke="#174885" stroke-miterlimit="10" d="M3920.125,545.024c2.179,0.993,1.783,7.726-1.187,8.124h-14.252
	c0.396,3.362,0.396,6.727,0.396,10.091c0,13.66-8.118,31.477-33.258,31.477c-3.563,0-6.334-0.391-8.712-0.595
	c-2.374,1.386-8.708,5.147-8.708,10.887c0,4.559,4.551,8.315,13.856,8.315c6.732,0,14.848-0.59,23.558-0.59
	c11.087,0,27.715,1.973,27.715,21.774c0,21.579-23.561,37.415-49.293,37.415c-24.348,0-32.859-13.068-32.859-22.961
	c0-3.169,0.789-5.748,2.177-7.329c3.363-3.558,8.906-8.712,13.46-13.265c1.781-1.781,3.366-3.558,1.584-4.747
	c-7.719-1.978-14.451-8.712-14.451-15.642c0-0.991,0.791-1.781,2.969-3.362c3.366-2.182,7.128-5.544,10.49-9.11
	c0.992-1.182,1.98-2.768,1.98-3.763c-6.73-3.558-14.845-11.277-14.845-23.946c0-17.032,14.649-29.899,32.267-29.899
	c7.521,0,14.45,1.986,19.004,3.957c6.337,2.776,7.723,3.169,12.077,3.169H3920.125z M3878.754,625.006
	c-6.335,0-14.254,0.398-17.024,2.175c-4.751,2.972-9.502,9.11-9.502,16.634c0,10.685,8.511,19.599,26.526,19.599
	c17.617,0,29.296-9.9,29.296-21.186c0-12.075-8.312-17.222-22.566-17.222H3878.754z M3891.027,568.392
	c0-13.467-5.543-24.745-17.618-24.745c-9.502,0-16.631,8.706-16.631,22.171c0,14.048,8.513,23.159,18.016,23.159
	C3885.484,588.977,3891.027,580.467,3891.027,568.392z"/>
<path fill="#174885" stroke="#174885" stroke-miterlimit="10" d="M4016.53,577.69c2.968-0.992,3.167-2.768,3.362-5.74l0.199-9.104
	c0.199-7.327-2.175-17.221-14.452-17.221c-5.538,0-12.271,2.769-12.67,8.9c-0.195,3.167-0.391,5.545-1.979,6.732
	c-2.969,2.379-8.314,3.762-11.285,3.762c-1.776,0-2.77-0.991-2.77-2.768c0-10.293,22.369-24.354,36.821-24.354
	c14.256,0,21.185,8.32,20.588,23.165l-1.192,34.443c-0.393,9.11,1.391,17.227,9.111,17.227c1.979,0,3.76-0.593,4.949-1.194
	c0.99-0.587,1.979-1.384,2.573-1.384c0.79,0,1.385,1.188,1.385,2.578c0,0.987-6.929,8.706-16.628,8.706
	c-4.75,0-9.501-1.782-12.865-6.132c-0.797-1.188-1.981-2.775-3.167-2.775c-1.388,0-3.762,1.782-7.724,3.958
	c-4.352,2.377-8.708,4.949-14.252,4.949c-5.741,0-10.495-1.579-13.859-4.552c-3.761-3.363-6.139-8.312-6.139-13.857
	c0-7.719,3.762-12.271,16.432-16.83L4016.53,577.69z M4004.254,612.532c3.958,0,10.096-2.966,12.075-4.95
	c2.378-2.377,2.573-5.146,2.573-9.299l0.396-11.684c0-2.176-0.787-2.573-1.982-2.573c-1.185,0-4.545,0.796-8.111,1.979
	c-11.681,3.963-17.421,6.93-17.421,14.655C3991.784,604.022,3994.158,612.532,4004.254,612.532z"/>
<path fill="#174885" stroke="#174885" stroke-miterlimit="10" d="M4068.987,561.854c0-7.72,0-8.705-5.349-12.271l-1.782-1.188
	c-0.791-0.796-0.791-2.972,0.201-3.567c4.549-1.58,15.834-6.732,19.796-9.696c0.79,0,1.775,0.391,2.174,1.385
	c-0.398,4.552-0.398,7.521-0.398,9.306c0,1.188,0.797,2.174,2.182,2.174c8.313-5.145,17.62-10.097,27.717-10.097
	c16.428,0,23.157,11.286,23.157,24.55v34.051c0,14.25,0.398,16.234,7.523,17.222l4.359,0.594c1.381,0.993,0.986,4.357-0.398,4.95
	c-5.936-0.397-11.68-0.593-18.605-0.593c-7.129,0-13.069,0.195-18.413,0.593c-1.386-0.593-1.784-3.957-0.399-4.95l3.765-0.594
	c7.325-1.188,7.521-2.972,7.521-17.222V567c0-11.279-5.146-19.599-18.605-19.599c-7.523,0-14.058,3.167-16.826,6.93
	c-2.577,3.362-2.976,6.138-2.976,11.88v30.288c0,14.25,0.398,16.033,7.526,17.222l3.562,0.594c1.388,0.993,0.99,4.357-0.391,4.95
	c-5.35-0.397-11.09-0.593-18.019-0.593c-7.126,0-13.065,0.195-18.609,0.593c-1.382-0.593-1.78-3.957-0.396-4.95l4.153-0.594
	c7.327-0.987,7.53-2.972,7.53-17.222V561.854z"/>
<path fill="#174885" stroke="#174885" stroke-miterlimit="10" d="M4237.443,589.767c0,15.641,0.199,22.967,5.743,22.967
	c2.176,0,5.539-0.991,8.511-1.984c1.384,0.398,1.583,5.349-0.196,6.336c-8.314,1.188-20.592,4.159-26.133,6.335
	c-1.188,0-2.178-0.596-2.178-1.581v-3.362c0-2.972,0-5.349-0.398-6.14h-0.79c-8.712,5.936-15.438,9.103-24.944,9.103
	c-21.973,0-36.621-17.222-36.621-38.007c0-27.712,20.983-45.534,47.906-45.534c6.729,0,11.086,0.994,13.264,1.784
	c0.99,0,1.186-1.189,1.186-2.77v-29.891c0-11.684-0.195-12.872-6.132-16.432l-1.983-1.188c-0.988-0.594-0.988-3.364,0-3.958
	c4.947-1.588,14.254-4.558,21.379-8.312c0.794,0,1.587,0.391,1.982,1.181c-0.199,5.944-0.595,15.838-0.595,24.55V589.767z
	 M4222.792,560.071c0-3.957-0.79-5.74-2.175-7.719c-2.972-4.161-8.908-8.315-16.627-8.315c-18.019,0-27.321,15.642-27.321,32.862
	c0,18.012,10.096,35.038,29.496,35.038c5.345,0,12.074-2.371,15.242-5.538c1.189-1.194,1.385-4.159,1.385-7.326V560.071z"/>
<path fill="#174885" stroke="#174885" stroke-miterlimit="10" d="M4384.32,572.741c-1.384-4.35-2.175-4.943-8.118-4.943h-29.889
	c-4.95,0-6.135,0.594-7.523,4.748l-6.929,20.786c-2.965,8.908-4.353,14.25-4.353,16.432c0,2.377,0.989,3.56,5.74,3.957l6.534,0.594
	c1.385,0.993,1.385,4.162-0.399,4.95c-5.146-0.397-11.285-0.397-20.584-0.593c-6.537,0-13.662,0.397-19.004,0.593
	c-1.189-0.788-1.587-3.957-0.398-4.95l6.53-0.594c4.755-0.397,9.11-2.573,11.88-9.698c3.564-9.111,9.107-21.976,17.424-44.147
	l20.189-53.448c2.772-7.125,3.958-10.887,3.366-14.054c4.747-1.392,8.116-4.949,10.291-7.521c1.188,0,2.573,0.391,2.972,1.782
	c2.573,8.705,5.74,17.816,8.712,26.521l27.116,79.584c5.74,17.024,8.319,19.994,16.828,20.981l5.343,0.594
	c1.392,0.993,0.993,4.162,0,4.95c-8.111-0.397-15.04-0.593-23.948-0.593c-9.502,0-17.025,0.397-22.766,0.593
	c-1.588-0.788-1.783-3.957-0.398-4.95l5.74-0.594c4.16-0.397,6.929-1.58,6.929-3.565c0-2.176-0.992-5.74-2.573-10.488
	L4384.32,572.741z M4345.125,555.127c-1.58,4.552-1.384,4.748,4.16,4.748h24.345c5.74,0,6.139-0.79,4.356-6.14l-10.691-32.261
	c-1.58-4.756-3.363-10.097-4.552-12.474h-0.392c-0.595,0.987-2.581,5.741-4.757,11.676L4345.125,555.127z"/>
<path fill="#174885" stroke="#174885" stroke-miterlimit="10" d="M4441.536,561.854c0-7.72,0-8.705-5.348-12.271l-1.784-1.188
	c-0.789-0.796-0.789-2.972,0.203-3.567c5.146-2.174,14.445-6.929,19.599-10.682c1.182,0,1.979,0.391,2.371,1.376
	c-0.392,3.566-0.791,6.538-0.791,9.11c0,1.386,0.399,2.572,1.783,2.572c2.573-1.187,15.047-9.306,27.713-9.306
	c19.997,0,32.862,16.235,32.862,36.233c0,27.514-20.192,47.308-48.304,47.308c-3.56,0-9.104-0.396-10.887-0.79
	c-1.783,0.394-2.769,1.385-2.769,5.545v20.787c0,14.049,0.392,15.838,7.522,16.823l7.719,0.987c1.385,0.992,0.986,4.361-0.397,4.955
	c-9.503-0.396-15.243-0.594-22.172-0.594c-7.125,0-13.062,0.197-18.605,0.594c-1.385-0.594-1.784-3.963-0.399-4.955l4.16-0.595
	c7.321-0.985,7.523-2.966,7.523-17.216V561.854z M4456.185,598.674c0,6.334,1.972,8.711,5.937,11.88
	c3.957,2.971,10.096,4.355,14.256,4.355c16.232,0,25.734-15.046,25.734-35.631c0-15.844-8.908-31.877-26.728-31.877
	c-8.51,0-14.647,3.167-16.829,5.546c-1.776,2.18-2.37,5.145-2.37,11.683V598.674z"/>
<path fill="#174885" stroke="#174885" stroke-miterlimit="10" d="M4541.896,561.854c0-7.72,0-8.705-5.348-12.271l-1.784-1.188
	c-0.79-0.796-0.79-2.972,0.203-3.567c5.139-2.174,14.445-6.929,19.599-10.682c1.183,0,1.979,0.391,2.371,1.376
	c-0.393,3.566-0.79,6.538-0.79,9.11c0,1.386,0.397,2.572,1.775,2.572c2.58-1.187,15.055-9.306,27.723-9.306
	c19.991,0,32.857,16.235,32.857,36.233c0,27.514-20.188,47.308-48.302,47.308c-3.56,0-9.112-0.396-10.887-0.79
	c-1.783,0.394-2.77,1.385-2.77,5.545v20.787c0,14.049,0.393,15.838,7.524,16.823l7.712,0.987c1.392,0.992,0.993,4.361-0.392,4.955
	c-9.502-0.396-15.242-0.594-22.172-0.594c-7.133,0-13.068,0.197-18.605,0.594c-1.385-0.594-1.783-3.963-0.398-4.955l4.16-0.595
	c7.32-0.985,7.522-2.966,7.522-17.216V561.854z M4556.544,598.674c0,6.334,1.972,8.711,5.937,11.88
	c3.957,2.971,10.097,4.355,14.257,4.355c16.229,0,25.731-15.046,25.731-35.631c0-15.844-8.908-31.877-26.725-31.877
	c-8.509,0-14.656,3.167-16.829,5.546c-1.776,2.18-2.371,5.145-2.371,11.683V598.674z"/>
<path fill="#174885" stroke="#174885" stroke-miterlimit="10" d="M4657.497,596.499c0,14.25,0.392,16.234,7.523,17.222l4.747,0.594
	c1.392,0.993,0.993,4.357-0.392,4.95c-6.537-0.397-12.277-0.593-19.207-0.593c-7.124,0-13.061,0.195-19.004,0.593
	c-1.385-0.593-1.783-3.957-0.393-4.95l4.553-0.594c7.327-0.987,7.523-2.972,7.523-17.222v-89.477
	c0-11.684-0.196-12.872-6.139-16.432l-1.979-1.188c-0.992-0.594-0.992-3.364,0-3.958c4.951-1.588,14.257-4.558,21.382-8.312
	c0.791,0,1.58,0.391,1.979,1.181c-0.202,5.944-0.594,15.838-0.594,24.55V596.499z"/>
<path fill="#174885" stroke="#174885" stroke-miterlimit="10" d="M4693.721,561.854c0-7.72,0-8.705-5.341-12.271l-1.783-1.188
	c-0.797-0.796-0.797-2.972,0.195-3.567c4.553-1.58,15.838-6.732,20.39-9.696c0.986,0,1.783,0.391,1.979,1.188
	c-0.398,6.928-0.79,16.431-0.79,24.543v35.637c0,14.25,0.392,16.234,7.523,17.222l4.159,0.594c1.379,0.993,0.987,4.357-0.396,4.95
	c-5.938-0.397-11.685-0.593-18.607-0.593c-7.131,0-13.067,0.195-18.612,0.593c-1.385-0.593-1.782-3.957-0.392-4.95l4.153-0.594
	c7.321-0.987,7.522-2.972,7.522-17.222V561.854z M4709.958,497.716c0,6.93-4.957,10.097-10.299,10.097
	c-6.139,0-10.097-4.357-10.097-9.697c0-6.539,4.95-10.496,10.69-10.496C4706.189,487.619,4709.958,492.172,4709.958,497.716z"/>
<path fill="#174885" stroke="#174885" stroke-miterlimit="10" d="M4750.932,567.993c-5.154,0-5.35,0.398-5.35,5.343
	c0,19.996,11.684,37.021,32.862,37.021c6.53,0,12.075-1.984,18.208-9.696c1.984-0.602,3.369,0.587,3.565,2.37
	c-6.53,13.46-20.78,18.409-31.079,18.409c-12.867,0-22.962-5.537-28.703-13.067c-5.937-7.712-8.313-17.019-8.313-25.73
	c0-24.346,16.034-44.743,39.785-44.743c17.025,0,28.114,11.685,28.114,23.564c0,2.768-0.398,4.354-0.796,5.139
	c-0.589,1.196-3.363,1.392-11.678,1.392H4750.932z M4763.203,562.057c14.648,0,19.003-0.798,20.585-1.985
	c0.594-0.393,1.188-1.182,1.188-3.756c0-5.55-3.761-12.474-15.242-12.474c-11.684,0-21.773,10.685-21.969,17.222
	c0,0.399,0,0.993,1.377,0.993H4763.203z"/>
<path fill="#174885" stroke="#174885" stroke-miterlimit="10" d="M4887.514,589.767c0,15.641,0.196,22.967,5.74,22.967
	c2.182,0,5.545-0.991,8.516-1.984c1.385,0.398,1.581,5.349-0.195,6.336c-8.32,1.188-20.591,4.159-26.137,6.335
	c-1.188,0-2.174-0.596-2.174-1.581v-3.362c0-2.972,0-5.349-0.398-6.14h-0.79c-8.712,5.936-15.438,9.103-24.94,9.103
	c-21.977,0-36.625-17.222-36.625-38.007c0-27.712,20.984-45.534,47.903-45.534c6.733,0,11.089,0.994,13.264,1.784
	c0.993,0,1.188-1.189,1.188-2.77v-29.891c0-11.684-0.195-12.872-6.132-16.432l-1.985-1.188c-0.986-0.594-0.986-3.364,0-3.958
	c4.95-1.588,14.256-4.558,21.381-8.312c0.791,0,1.581,0.391,1.979,1.181c-0.195,5.944-0.594,15.838-0.594,24.55V589.767z
	 M4872.866,560.071c0-3.957-0.79-5.74-2.174-7.719c-2.973-4.161-8.908-8.315-16.627-8.315c-18.02,0-27.326,15.642-27.326,32.862
	c0,18.012,10.104,35.038,29.5,35.038c5.342,0,12.075-2.371,15.242-5.538c1.189-1.194,1.385-4.159,1.385-7.326V560.071z"/>
<path fill="#174885" stroke="#174885" stroke-miterlimit="10" d="M4998.17,621.839c-16.635,0-27.122-5.147-30.883-7.328
	c-2.378-4.355-4.951-18.409-5.35-27.71c0.992-1.392,3.965-1.782,4.754-0.601c2.973,10.103,11.083,29.5,34.052,29.5
	c16.628,0,24.745-10.888,24.745-22.766c0-8.706-1.783-18.412-16.236-27.711l-18.808-12.276
	c-9.895-6.531-21.375-17.816-21.375-34.053c0-18.802,14.648-34.043,40.38-34.043c6.139,0,13.264,0.985,18.409,2.572
	c2.579,0.595,5.349,1.188,6.929,1.188c1.783,4.748,3.566,15.838,3.566,24.149c-0.79,1.189-3.957,1.785-4.95,0.595
	c-2.573-9.502-7.915-22.375-26.92-22.375c-19.402,0-23.556,12.873-23.556,21.977c0,11.48,9.502,19.599,16.822,24.354l15.838,9.892
	c12.474,7.721,24.744,19.202,24.744,38.01C5040.333,606.988,5023.902,621.839,4998.17,621.839z"/>
<path fill="#174885" stroke="#174885" stroke-miterlimit="10" d="M5123.28,541.263c1.58,1.391,2.965,4.559,2.965,7.922
	c0,3.565-1.979,7.326-4.356,7.326c-0.986,0-1.979-0.396-2.769-1.384c-4.356-5.349-11.677-10.495-19.795-10.495
	c-13.858,0-27.318,10.888-27.318,31.871c0,15.445,10.691,33.854,31.87,33.854c11.481,0,17.418-5.151,21.976-11.878
	c1.581-0.399,3.363,0.991,3.561,2.769c-6.728,14.655-21.578,20.192-33.06,20.192c-10.488,0-20.192-3.362-27.122-10.097
	c-6.93-6.726-11.48-16.432-11.48-29.296c0-21.382,15.047-44.148,47.908-44.148C5110.211,537.898,5117.93,538.893,5123.28,541.263z"
	/>
<path fill="#174885" stroke="#174885" stroke-miterlimit="10" d="M5149.206,561.854c0-7.72,0-8.705-5.341-12.271l-1.784-1.188
	c-0.796-0.796-0.796-2.972,0.196-3.567c4.552-1.58,15.837-6.732,20.389-9.696c0.993,0,1.784,0.391,1.979,1.188
	c-0.393,6.928-0.791,16.431-0.791,24.543v35.637c0,14.25,0.398,16.234,7.523,17.222l4.161,0.594c1.384,0.993,0.985,4.357-0.399,4.95
	c-5.936-0.397-11.684-0.593-18.605-0.593c-7.132,0-13.068,0.195-18.613,0.593c-1.385-0.593-1.775-3.957-0.391-4.95l4.153-0.594
	c7.32-0.987,7.522-2.972,7.522-17.222V561.854z M5165.442,497.716c0,6.93-4.95,10.097-10.292,10.097
	c-6.146,0-10.104-4.357-10.104-9.697c0-6.539,4.95-10.496,10.69-10.496C5161.672,487.619,5165.442,492.172,5165.442,497.716z"/>
<path fill="#174885" stroke="#174885" stroke-miterlimit="10" d="M5206.415,567.993c-5.152,0-5.349,0.398-5.349,5.343
	c0,19.996,11.685,37.021,32.863,37.021c6.53,0,12.075-1.984,18.214-9.696c1.979-0.602,3.363,0.587,3.56,2.37
	c-6.53,13.46-20.782,18.409-31.079,18.409c-12.867,0-22.963-5.537-28.703-13.067c-5.937-7.712-8.314-17.019-8.314-25.73
	c0-24.346,16.04-44.743,39.792-44.743c17.026,0,28.108,11.685,28.108,23.564c0,2.768-0.398,4.354-0.79,5.139
	c-0.595,1.196-3.363,1.392-11.684,1.392H5206.415z M5218.686,562.057c14.648,0,19.004-0.798,20.584-1.985
	c0.596-0.393,1.189-1.182,1.189-3.756c0-5.55-3.762-12.474-15.242-12.474c-11.678,0-21.773,10.685-21.97,17.222
	c0,0.399,0,0.993,1.385,0.993H5218.686z"/>
<path fill="#174885" stroke="#174885" stroke-miterlimit="10" d="M5278.468,561.854c0-7.72,0-8.705-5.342-12.271l-1.79-1.188
	c-0.79-0.796-0.79-2.972,0.203-3.567c4.552-1.58,15.837-6.732,19.795-9.696c0.797,0,1.782,0.391,2.174,1.385
	c-0.392,4.552-0.392,7.521-0.392,9.306c0,1.188,0.79,2.174,2.175,2.174c8.314-5.145,17.62-10.097,27.717-10.097
	c16.432,0,23.156,11.286,23.156,24.55v34.051c0,14.25,0.4,16.234,7.525,17.222l4.355,0.594c1.384,0.993,0.993,4.357-0.393,4.95
	c-5.942-0.397-11.684-0.593-18.613-0.593c-7.124,0-13.061,0.195-18.408,0.593c-1.385-0.593-1.785-3.957-0.393-4.95l3.756-0.594
	c7.326-1.188,7.522-2.972,7.522-17.222V567c0-11.279-5.146-19.599-18.605-19.599c-7.524,0-14.054,3.167-16.83,6.93
	c-2.573,3.362-2.965,6.138-2.965,11.88v30.288c0,14.25,0.392,16.033,7.522,17.222l3.56,0.594c1.384,0.993,0.993,4.357-0.392,4.95
	c-5.342-0.397-11.089-0.593-18.012-0.593c-7.131,0-13.067,0.195-18.612,0.593c-1.385-0.593-1.782-3.957-0.392-4.95l4.154-0.594
	c7.32-0.987,7.522-2.972,7.522-17.222V561.854z"/>
<path fill="#174885" stroke="#174885" stroke-miterlimit="10" d="M5435.644,541.263c1.587,1.391,2.962,4.559,2.962,7.922
	c0,3.565-1.977,7.326-4.348,7.326c-0.993,0-1.979-0.396-2.776-1.384c-4.354-5.349-11.677-10.495-19.794-10.495
	c-13.858,0-27.318,10.888-27.318,31.871c0,15.445,10.692,33.854,31.871,33.854c11.488,0,17.423-5.151,21.976-11.878
	c1.581-0.399,3.362,0.991,3.565,2.769c-6.732,14.655-21.583,20.192-33.061,20.192c-10.492,0-20.199-3.362-27.12-10.097
	c-6.929-6.726-11.486-16.432-11.486-29.296c0-21.382,15.046-44.148,47.907-44.148
	C5422.576,537.898,5430.295,538.893,5435.644,541.263z"/>
<path fill="#174885" stroke="#174885" stroke-miterlimit="10" d="M5467.905,567.993c-5.146,0-5.342,0.398-5.342,5.343
	c0,19.996,11.676,37.021,32.861,37.021c6.53,0,12.076-1.984,18.207-9.696c1.986-0.602,3.372,0.587,3.567,2.37
	c-6.531,13.46-20.788,18.409-31.08,18.409c-12.864,0-22.962-5.537-28.702-13.067c-5.943-7.712-8.314-17.019-8.314-25.73
	c0-24.346,16.033-44.743,39.785-44.743c17.025,0,28.116,11.685,28.116,23.564c0,2.768-0.399,4.354-0.79,5.139
	c-0.596,1.196-3.372,1.392-11.684,1.392H5467.905z M5480.182,562.057c14.647,0,19.004-0.798,20.586-1.985
	c0.593-0.393,1.187-1.182,1.187-3.756c0-5.55-3.761-12.474-15.241-12.474c-11.678,0-21.773,10.685-21.975,17.222
	c0,0.399,0,0.993,1.383,0.993H5480.182z"/>
<line fill="#174885" stroke="#174885" stroke-width="7.2" x1="2765.132" y1="0" x2="2765.132" y2="429.373"/>
<path fill="#174885" d="M420.396,624.028c-0.357-3.41-2.782-9.724-5.415-14.715L108.887,52.122l0,0
	c-0.006-0.034-0.017-0.049-0.035-0.063l-0.558-1.022l-0.068,0.034c-2.622-4.129-7.067-11.345-9.031-13.591
	c-2.293-2.623-6.377-6.17-14.066-2.025c-0.437,0.228-4.944,2.658-9.543,5.131C70.959,43.018,66.43,45.392,66,45.62
	c-7.734,4.052-7.108,9.426-6.242,12.831c0.844,3.242,4.431,12.22,6.28,16.571l0.309-0.172l297.253,562.932
	c2.828,5.142,6.367,9.849,8.726,12.026c2.59,2.415,6.931,5.869,16.301,0.811c0.526-0.287,6.032-3.271,11.638-6.3
	c5.634-3.002,11.157-5.94,11.693-6.228C421.367,633.099,420.763,627.559,420.396,624.028z"/>
<path fill="#FFFFFF" d="M182.477,41.539c-9.035-17.992-19.453-17.757-25.954-16.55c-21.983,4.097-61.347,24-85.248,36.379
	C61.038,66.32,48.537,72.086,36.018,78.504L0,162.162h0.021l-0.015,0.02l88.778,20.294c12.578-6.304,24.621-12.993,34.667-18.333
	c24.099-11.983,63.396-32.003,79.667-47.336c4.827-4.544,11.153-12.824,1.978-30.717c-0.515-1.004-5.915-11.522-11.406-22.229
	C188.286,53.112,182.985,42.549,182.477,41.539z"/>
<path fill="#174885" d="M178.316,48.469c-7.462-14.865-16.764-14.317-22.603-13.073c-19.777,4.208-55.594,22.309-77.351,33.56
	c-9.308,4.528-20.671,9.818-32.055,15.646l-34.995,71.766h0.011l-0.011,0.013l78.581,14.11c11.438-5.759,22.41-11.801,31.555-16.647
	c21.924-10.92,57.678-29.133,72.752-42.617c4.454-3.991,10.378-11.181,2.79-25.97c-0.426-0.823-4.88-9.51-9.416-18.355
	C183.111,58.023,178.73,49.302,178.316,48.469z"/>
<path fill="#174885" d="M473.406,45.903c-0.432-0.226-4.929-2.694-9.507-5.196c-4.551-2.552-9.032-5.068-9.459-5.311
	c-7.614-4.271-11.757-0.796-14.095,1.792c-2.174,2.401-7.416,10.67-9.938,14.458l0.152,0.085L124.268,609.313
	c-2.641,4.991-5.068,11.305-5.424,14.715c-0.367,3.53-0.97,9.07,8.442,14.062c0.533,0.287,6.05,3.226,11.688,6.228
	c5.598,3.029,11.118,6.013,11.63,6.3c9.382,5.059,13.707,1.604,16.298-0.811c2.372-2.178,5.914-6.885,8.733-12.026L472.701,75.207
	l0.173,0.097c0.315-0.708,0.69-1.578,1.09-2.486l0.061-0.121l-0.014-0.007c1.995-4.634,4.678-11.176,5.411-13.84
	C480.351,55.472,481.07,50.097,473.406,45.903z"/>
<path fill="#FFFFFF" d="M522.916,103.771c-22.193-22.053-44.874-36.997-65.592-47.936c-20.386-11.517-52.8-25.13-76.278-29.593
	c-5.604-1.331-14.782-1.564-23.57,14.514c-0.994,1.827-21.444,39.242-22.452,41.082c-8.779,16.059-3.617,23.659,0.52,27.674
	c16.425,17.332,45.382,37.264,66.099,48.211c20.41,11.524,45.216,22.536,75.766,29.31c5.608,1.329,14.795,1.559,23.573-14.495
	c1.001-1.848,21.451-39.254,22.453-41.102C532.225,115.386,527.059,107.778,522.916,103.771z"/>
<path fill="#174885" d="M512.858,107.778c-20.728-19.493-41.601-32.999-60.582-43.051c-18.698-10.534-48.24-23.31-69.407-27.98
	c-5.075-1.337-13.303-1.897-20.534,11.323c-0.824,1.516-17.649,32.324-18.486,33.832c-7.222,13.22-2.314,19.848,1.547,23.401
	c15.373,15.285,42.08,33.255,61.037,43.301c18.713,10.542,41.346,20.808,68.954,27.724c5.065,1.346,13.287,1.897,20.522-11.333
	c0.822-1.512,17.666-32.307,18.482-33.822C521.623,117.944,516.704,111.326,512.858,107.778z"/>
<g>
	<path fill="#FFFFFF" d="M304.254,230.538v22.084h24.88c20.186-9.592,46.944-17.72,68.198-24.024
		c9.431-2.808,18.777-5.252,28.017-6.745V197.35C384.281,203.426,346.005,222.811,304.254,230.538z"/>
	<path fill="#FFFFFF" d="M117.599,198.5v24.681c6.921,1.451,13.898,3.328,20.933,5.417c21.24,6.305,48.005,14.433,68.182,24.024
		h23.948v-22.261C191.687,222.981,155.694,205.55,117.599,198.5z"/>
</g>
<polygon fill="#FFFFFF" points="145.829,222.89 239.638,248.417 283.912,237.903 312.428,249.912 401.74,226.651 372.467,518.58 
	168.338,520.825 "/>
<path fill="#174885" d="M523.001,262.996c-5.43-31.64-30.983-53.661-62.262-56.163c-55.881-4.494-104.101,25.393-158.302,34.959
	c-4.337,0.768-10.169-8.466-15.435-13.733c25.15-18.952,21.734-56.098-7.377-72.135c-2.009-2.31-1.278-23.691-0.124-24.644
	c2.371-1.977,20.929,1.564,23.564-0.72c2.635-2.301,2.114-24.574,0.425-26.706c-1.682-2.126-22.621,0.156-23.786-1.281
	c-1.191-1.435,0.573-21.467-1.394-23.046c-1.425-1.136-7.223-1.25-10.442-1.228c-3.227-0.022-9.044,0.092-10.447,1.228
	c-1.979,1.58-0.209,21.612-1.386,23.046c-1.183,1.438-22.093-0.845-23.792,1.281c-1.686,2.132-2.205,24.404,0.431,26.706
	c2.629,2.284,21.205-1.257,23.562,0.72c1.151,0.952,1.88,22.333-0.124,24.644c-29.102,16.037-32.524,53.183-7.388,72.135
	c-5.269,5.268-11.104,14.501-15.424,13.733c-54.205-9.566-102.428-39.453-158.32-34.959c-31.262,2.502-56.813,24.523-62.248,56.163
	c-9.795,56.949,31.121,100.733,50.998,149.072c6.27,15.251,11.776,35.757,10.792,53.401c0,0,162.372,0,191.155,0.01
	c0,0,0.756,0,2.192,0c1.429,0,2.204,0,2.204,0c28.768-0.01,191.143-0.01,191.143-0.01c-0.995-17.645,4.521-38.15,10.805-53.401
	C491.878,363.729,532.787,319.945,523.001,262.996z M244.746,389.1c-5.022,28.578-20.898,46.748-34.118,46.831
	c-8.672,0.018-15.618-3.242-21.94-8.77c-8.702-7.622-15.802-20.15-13.522-27.563c1.923-2.485,25.37,1.094,27.043-1.242
	c1.663-2.319-2.858-20.587-5.509-22.946c-2.657-2.359-23.813,0.796-26.648-1.53c-2.841-2.309-5.462-24.942-8.365-26.338
	c0,0-22.391-3.34-24.004-0.141c-1.643,3.205,7.561,22.08,5.974,25.299c-1.562,3.229-31.209-2.806-31.736,0.519
	c-0.511,3.344,1.706,19.979,4.547,22.422c2.847,2.474,30.52,2.63,30.52,2.63c5.744,4.395,7.262,13.31,7.282,22.437
	c0.052,11.585-8.954,17.573-23.329,13.55c-26.793-7.493-60.004-65.608-79.717-105.849c-14.473-29.573-23.212-77.969,14.806-92.465
	c23.185-8.829,47.506-3.84,72.446,3.574c26.121,7.749,60.589,18.25,80.904,30.862c4.988,3.091-5.928,0.623,12.092,40.574
	C239.856,329.529,248.262,369.11,244.746,389.1z M404.796,434.256c-14.374,4.023-23.381-1.965-23.337-13.55
	c0.039-9.127,1.546-18.042,7.294-22.437c0,0,27.661-0.156,30.513-2.63c2.841-2.443,5.065-19.078,4.534-22.422
	c-0.517-3.324-30.16,2.711-31.727-0.519c-1.571-3.219,7.627-22.094,5.988-25.299c-1.631-3.199-24.02,0.141-24.02,0.141
	c-2.895,1.396-5.529,24.029-8.35,26.338c-2.844,2.326-24.006-0.829-26.651,1.53c-2.658,2.359-7.176,20.627-5.521,22.946
	c1.675,2.336,25.121-1.243,27.063,1.242c2.265,7.413-4.836,19.941-13.534,27.563c-6.317,5.527-13.278,8.787-21.94,8.77
	c-13.212-0.083-29.1-18.253-34.118-46.831c-3.512-19.989,4.893-59.57,13.269-78.146c18.037-39.951,7.111-37.483,12.104-40.574
	c20.301-12.612,54.774-23.113,80.913-30.862c24.923-7.414,49.242-12.403,72.421-3.574c38.042,14.496,29.293,62.892,14.8,92.465
	C464.799,368.647,431.597,426.763,404.796,434.256z"/>
<rect x="70.173" y="491.935" fill="#174885" width="395.386" height="33.589"/>
<rect x="70.173" y="525.498" fill="#FFFFFF" width="395.386" height="10.177"/>
</svg>
