<?xml version="1.0" encoding="utf-8"?>
<!-- Generator: Adobe Illustrator 16.0.0, SVG Export Plug-In . SVG Version: 6.00 Build 0)  -->
<!DOCTYPE svg PUBLIC "-//W3C//DTD SVG 1.1//EN" "http://www.w3.org/Graphics/SVG/1.1/DTD/svg11.dtd">
<svg version="1.1" id="Layer_1" xmlns="http://www.w3.org/2000/svg" xmlns:xlink="http://www.w3.org/1999/xlink" x="0px" y="0px"
	 width="618.801px" height="88.785px" viewBox="0 0 618.801 88.785" enable-background="new 0 0 618.801 88.785"
	 xml:space="preserve">
<g>
	<path d="M41.602,42.109h37.29v36.276c-8.879,5.074-20.167,10.4-38.179,10.4C17.756,88.785,0,76.354,0,57.076V30.948
		C0,11.796,18.898,0,41.094,0c13.699,0,26.762,3.677,34.88,9.512l-4.566,8.244c-7.103-4.818-18.011-8.118-29.806-8.118
		c-16.489,0-30.567,8.373-30.567,22.196v24.353c0,14.334,13.444,22.957,29.679,22.957c12.558,0,20.294-3.17,27.143-6.722V51.241
		H41.602V42.109z"/>
	<path d="M146.879,49.085l22.577,38.43H157.28l-21.182-36.019h-31.202v36.019H93.862V1.267h44.266
		c17.884,0,29.552,8.625,29.552,23.339v3.044C167.681,39.572,158.93,46.675,146.879,49.085 M104.897,42.362h33.358
		c9.132-0.379,18.265-4.818,18.265-14.079v-3.17c0-8.499-7.483-14.207-19.026-14.207h-32.597V42.362z"/>
	<path d="M226.029,0.253l38.051,87.262h-12.303L240.743,62.15h-41.476l-11.289,25.365h-12.177l38.432-87.262H226.029z
		 M238.079,52.89l-18.011-40.586L201.929,52.89H238.079z"/>
	<path d="M327.5,42.743c11.289,3.044,18.645,9.767,18.645,19.659v3.805c0,13.827-11.668,21.308-29.68,21.308h-42.743V1.268h39.573
		c18.391,0,29.68,7.99,29.68,21.943v2.282C342.975,33.104,336.76,40.207,327.5,42.743 M284.758,38.812h28.792
		c10.654,0,18.391-4.565,18.391-12.81v-2.284c0-9.639-6.595-13.319-19.913-13.319h-27.269V38.812z M335.111,61.643
		c0-9.26-9.133-14.079-21.055-14.079h-29.298v30.821h30.44c11.796,0,19.913-3.932,19.913-13.064V61.643z"/>
	<path fill="#ED1C24" d="M378.24,32.85v22.831c0,11.923,9.259,16.742,21.941,16.742c9.641,0,18.265-1.774,24.861-5.706l6.341,14.204
		c-9.132,5.708-17.631,7.864-32.344,7.864c-23.083,0-40.206-10.782-40.206-31.962V31.835C358.833,12.048,377.351,0,398.914,0
		c14.586,0,23.972,2.284,33.357,8.625l-6.976,13.825c-6.85-3.932-14.586-6.088-25.24-6.088
		C388.386,16.361,378.24,22.195,378.24,32.85"/>
	<path fill="#ED1C24" d="M494.424,0.506l34.752,87.009h-21.435l-7.229-18.899h-33.739l-7.355,18.899h-21.437l35.007-87.009H494.424z
		 M496.833,53.904L483.77,19.66l-13.318,34.244H496.833z"/>
	<path fill="#ED1C24" d="M579.736,1.267c22.83,0,39.065,10.401,39.065,32.979v20.293c0,22.704-17.884,32.976-40.46,32.976h-39.066
		V1.267H579.736z M600.463,37.416c0-14.079-8.752-20.294-19.913-20.294h-21.436v54.542h20.04c11.415,0,21.309-5.708,21.309-20.295
		V37.416z"/>
</g>
</svg>
