<?xml version="1.0" encoding="utf-8"?>
<!-- Generator: Adobe Illustrator 16.0.0, SVG Export Plug-In . SVG Version: 6.00 Build 0)  -->
<!DOCTYPE svg PUBLIC "-//W3C//DTD SVG 1.1//EN" "http://www.w3.org/Graphics/SVG/1.1/DTD/svg11.dtd">
<svg version="1.1" id="Layer_1" xmlns="http://www.w3.org/2000/svg" xmlns:xlink="http://www.w3.org/1999/xlink" x="0px" y="0px"
	 width="611.47px" height="359.971px" viewBox="0 0 611.47 359.971" enable-background="new 0 0 611.47 359.971"
	 xml:space="preserve">
<g>
	<g>
		<path d="M0.48,360.45c0-100.632,0-201.263,0-301.895c0.745-0.577,1.562-1.082,2.225-1.741
			C20.879,38.772,39.039,20.717,57.19,2.652c0.671-0.668,1.232-1.446,1.845-2.172c184.256,0,368.513,0,552.914,0
			c0,119.99,0,239.98,0,359.97c-1.277,0.032-2.555,0.092-3.832,0.092c-200.629,0.005-401.258,0.005-601.887,0
			C4.314,360.542,2.396,360.482,0.48,360.45z M594.976,18.897c-176.301,0-352.268,0-528.931,0
			c-15.582,15.895-31.468,32.1-47.524,48.48c0,91.226,0,182.933,0,274.662c192.275,0,384.344,0,576.455,0
			C594.976,234.222,594.976,126.671,594.976,18.897z"/>
		<path fill-rule="evenodd" clip-rule="evenodd" fill="none" d="M59.035,0.48c-0.613,0.727-1.174,1.504-1.845,2.172
			C39.039,20.717,20.879,38.772,2.705,56.814c-0.664,0.659-1.48,1.164-2.225,1.741c0-19.319,0-38.637,0-58.075
			C19.998,0.48,39.517,0.48,59.035,0.48z"/>
		<path fill-rule="evenodd" clip-rule="evenodd" fill="none" d="M0.48,360.45c1.917,0.032,3.834,0.092,5.75,0.092
			c200.629,0.005,401.258,0.005,601.887,0c1.277,0,2.555-0.06,3.832-0.092c-0.08,0.16-0.151,0.453-0.241,0.459
			c-0.638,0.04-1.278,0.021-1.918,0.021c-202.384,0-404.767,0-607.15-0.021C1.92,360.91,1.2,360.61,0.48,360.45z"/>
		<path fill-rule="evenodd" clip-rule="evenodd" fill="none" d="M594.976,18.897c0,107.773,0,215.324,0,323.142
			c-192.111,0-384.18,0-576.455,0c0-91.729,0-183.436,0-274.662c16.057-16.38,31.942-32.585,47.524-48.48
			C242.708,18.897,418.675,18.897,594.976,18.897z M53.309,79.89c0.19-0.047,0.38-0.093,0.57-0.14
			c0.427,0.808,0.909,1.592,1.272,2.427c3.187,7.33,6.47,14.62,9.502,22.014c7.763,18.93,15.402,37.91,23.13,56.854
			c0.503,1.234,1.332,2.335,2.01,3.499c0.35,0.016,0.7,0.032,1.051,0.048c0.93-1.563,2.025-3.053,2.765-4.702
			c11.089-24.714,22.127-49.452,33.195-74.175c1.03-2.301,2.181-4.548,3.275-6.819c0.272,0.04,0.544,0.081,0.817,0.121
			c0,2.61,0,5.22,0,7.83c0,19.597,0.015,39.193-0.015,58.791c-0.005,3.676-0.123,7.355-0.321,11.026
			c-0.182,3.379-1.127,4.198-4.451,4.215c-2.08,0.011-4.161-0.037-6.239,0.023c-0.921,0.026-1.836,0.255-2.981,0.425
			c0,1.661,0,3.105,0,4.644c13.541,0,26.917,0,40.378,0c0-1.811,0-3.408,0-5.1c-2.483,0-4.714,0.015-6.945-0.003
			c-4.727-0.038-6.126-1.37-6.232-6.149c-0.17-7.673-0.383-15.349-0.362-23.023c0.046-17.191,0.22-34.382,0.354-51.573
			c0.03-3.89,1.272-5.097,5.239-5.146c1.963-0.024,3.927-0.004,5.969-0.004c0-2.026,0-3.626,0-4.81
			c-8.494,0-16.721-0.016-24.948,0.013c-1.589,0.006-2.546,0.839-3.224,2.369c-10.164,22.959-20.384,45.893-30.612,68.823
			c-0.319,0.715-0.859,1.333-1.463,2.25c-0.405-0.783-0.613-1.12-0.763-1.481C84.721,119.013,75.143,95.9,65.66,72.748
			c-0.927-2.262-2.125-3.17-4.626-3.125c-8.389,0.149-16.782,0.047-25.174,0.083c-0.988,0.004-1.975,0.27-3.102,0.435
			c0,1.694,0,3.085,0,4.83c2.337,0,4.548,0,6.761,0c7.427,0.001,7.891,0.422,7.851,7.848c-0.074,13.994-0.051,27.99-0.366,41.979
			c-0.201,8.945-0.75,17.893-1.484,26.811c-0.645,7.843-2.454,9.247-10.258,9.284c-1.541,0.008-3.08,0.201-4.78,0.319
			c0,1.888,0,3.327,0,4.771c12.129,0,24.003,0,36.019,0c0-1.785,0-3.383,0-5.112c-2.162,0-4.069,0.013-5.976-0.002
			c-5.061-0.042-6.718-1.29-7.16-6.319c-0.51-5.803-0.814-11.643-0.813-17.467c0-15.994,0.189-31.987,0.348-47.981
			C52.931,86.03,53.167,82.96,53.309,79.89z M217.053,187.764c1.904,0.5,3.758,0.925,5.572,1.479c2.097,0.64,3.585,2.054,3.613,4.29
			c0.112,9.339,0.088,18.679,0.107,28.019c0,0.062-0.093,0.125-0.23,0.298c-2.99-0.422-6.045-0.944-9.121-1.271
			c-7.285-0.772-14.241,0.276-20.429,4.438c-13.604,9.148-17.166,24.884-12.489,38.313c2.814,8.082,8.535,14.382,17.468,15.835
			c8.261,1.345,16.227-0.426,23.332-5.186c0.568-0.381,1.15-0.741,1.828-1.176c0.87,2.39,1.657,4.55,2.498,6.857
			c6.229-2.098,11.861-3.994,17.725-5.97c-0.383-1.263-0.642-2.113-0.852-2.807c-1.949-0.373-3.608-0.621-5.23-1.018
			c-2.316-0.564-3.8-1.909-3.921-4.472c-0.164-3.509-0.562-7.016-0.56-10.522c0.012-17.747,0.089-35.494,0.216-53.241
			c0.044-6.231,0.307-12.46,0.438-18.691c0.016-0.761-0.168-1.525-0.303-2.655c-6.715,1.307-13.154,2.56-19.661,3.826
			C217.053,185.642,217.053,186.64,217.053,187.764z M100.256,273.076c-3.022,0-5.732,0.139-8.422-0.036
			c-3.232-0.21-4.344-1.541-4.395-4.782c-0.129-8.313-0.368-16.627-0.348-24.94c0.041-16.869,0.215-33.737,0.352-50.606
			c0.035-4.258,1.139-5.35,5.397-5.421c2.126-0.035,4.253-0.007,6.443-0.007c0-2.007,0-3.604,0-4.963
			c-4.338,0-8.403,0.034-12.466-0.008c-7.995-0.083-15.989-0.229-23.984-0.297c-1.456-0.013-2.915,0.221-4.548,0.355
			c0,1.807,0,3.186,0,4.475c0.305,0.173,0.439,0.313,0.578,0.316c2.875,0.057,5.753,0.03,8.625,0.157
			c5.154,0.229,6.266,1.404,6.378,6.552c0.136,6.233,0.386,12.469,0.362,18.702c-0.067,17.43-0.172,34.861-0.422,52.289
			c-0.115,8.002-0.628,8.33-8.593,8.326c-1.947-0.001-3.894,0-6.085,0c0,2.146,0,3.588,0,5.051c13.811,0,27.418,0,41.129,0
			C100.256,276.506,100.256,275.021,100.256,273.076z M136.523,273.597c-1.383,0-2.489,0.008-3.595-0.001
			c-3.393-0.027-4.141-0.626-4.166-4.056c-0.069-9.517-0.157-19.037,0.032-28.551c0.132-6.611,3.704-11.369,10.014-13.074
			c2.823-0.763,6.041-0.777,8.957-0.329c5.218,0.801,8.171,4.147,8.243,9.359c0.155,11.188,0.001,22.379-0.053,33.568
			c-0.01,2.17-1.177,3.148-3.357,3.126c-1.479-0.016-2.959,0.189-4.646,0.31c0,1.691,0,3.035,0,4.362c9.044,0,17.801,0,26.834,0
			c0-1.605,0-3.095,0-4.708c-1.441,0-2.55-0.004-3.658,0.001c-4.383,0.018-4.978-0.571-4.979-4.962
			c-0.001-10.638,0.013-21.276-0.005-31.913c-0.011-6.616-5.084-13.462-11.402-15.365c-9.094-2.74-16.618,0.447-23.414,6.294
			c-0.761,0.654-1.509,1.323-2.644,2.319c-0.453-3.555-0.841-6.608-1.284-10.086c-1.498,0.692-2.3,1.009-3.05,1.42
			c-3.717,2.037-7.444,4.058-11.111,6.183c-0.827,0.479-1.429,1.347-2.134,2.034c0.752,0.729,1.382,1.723,2.279,2.141
			c3.773,1.758,5.509,4.673,5.505,8.763c-0.008,9.917,0.025,19.835-0.008,29.753c-0.009,2.864-0.646,3.351-3.636,3.448
			c-1.379,0.046-2.753,0.27-4.157,0.416c0,1.699,0,2.978,0,4.258c8.567,0,16.848,0,25.434,0
			C136.523,276.758,136.523,275.265,136.523,273.597z M285.237,225.938c1.211,0.179,2.061,0.32,2.915,0.426
			c5.191,0.646,6.02,1.588,6.023,6.908c0.004,8.634-0.303,17.283,0.105,25.898c0.28,5.907-2.359,9.487-7.116,12.18
			c-7.254,4.106-15.436,1.298-18.195-6.564c-0.96-2.735-1.483-5.775-1.47-8.673c0.048-10.864,0.406-21.728,0.623-32.591
			c0.013-0.665-0.188-1.334-0.22-1.538c-6.239,0-12.127,0-18.186,0c0,1.73,0,2.789,0,3.874c0.561,0.148,0.935,0.282,1.319,0.345
			c6.194,0.998,6.657,1.545,6.665,7.864c0.011,8.234-0.003,16.469,0.051,24.703c0.044,6.65,2.361,12.475,7.373,16.824
			c2.06,1.788,4.9,3.268,7.565,3.654c7.402,1.075,13.807-1.604,19.257-6.634c0.665-0.614,1.308-1.25,2.292-2.19
			c0.502,3.292,0.927,6.076,1.332,8.729c2.609,0.369,16.146-3.78,18.878-5.674c-0.207-0.883-0.434-1.848-0.698-2.979
			c-1.377,0.165-2.546,0.312-3.718,0.442c-3.944,0.445-5.598-0.645-5.602-4.562c-0.014-13.974,0.198-27.947,0.323-41.92
			c0.009-0.983,0.001-1.968,0.001-2.579c-6.594,0-12.754,0-19.173,0C285.439,223.551,285.345,224.667,285.237,225.938z
			 M166.505,137.698c-0.995,15.901,12.625,29.6,27.553,29.484c15.924-0.124,29.853-13.674,30.252-29.04
			c0.396-15.224-11.469-29.67-27.572-30.083C181.799,107.677,165.377,122.031,166.505,137.698z M327.638,129.089
			c1.079-8.8-5.235-18.263-13.601-20.22c-13.296-3.111-26.87,2.16-32.321,16.404c-2.81,7.341-2.879,15.018-0.803,22.412
			c3.535,12.587,10.838,17.822,21.781,19.301c10.726,1.449,20.003-3.183,25.288-12.701c0.628-1.13,1.021-2.39,1.597-3.765
			c-1.176-0.474-1.957-0.789-2.859-1.152c-0.689,0.854-1.315,1.563-1.87,2.324c-4.39,6.027-10.44,8.333-17.627,7.332
			c-13.915-1.938-19.374-17.937-16.382-29.337c0.884,0,1.829,0,2.774,0c10.151,0,20.302,0.019,30.453-0.028
			C325.267,129.654,326.466,129.285,327.638,129.089z M542.192,241.386c1.023-8.865-5.27-18.269-13.638-20.213
			c-13.205-3.068-26.679,2.072-32.225,16.211c-2.902,7.4-2.734,15.087-0.917,22.653c2.683,11.174,10.688,17.965,22.087,19.291
			c11.026,1.282,20.413-3.652,25.382-13.384c0.48-0.941,0.755-1.988,1.127-2.993c-0.662-0.397-0.979-0.651-1.341-0.787
			c-0.435-0.163-0.907-0.226-1.304-0.317c-0.29,0.197-0.527,0.297-0.676,0.471c-0.414,0.485-0.811,0.987-1.18,1.507
			c-4.378,6.167-10.485,8.529-17.771,7.505c-14.046-1.973-19.354-18.214-16.337-29.331c0.888,0,1.834,0,2.78,0
			c10.15,0,20.303,0.02,30.453-0.028C539.833,241.964,541.029,241.586,542.192,241.386z M334.484,79.428
			c1.76,0.672,3.005,1.17,4.266,1.625c4.556,1.643,6.131,3.735,6.325,8.485c0.131,3.193,0.333,6.387,0.339,9.581
			c0.034,19.024,0.037,38.048,0.012,57.073c-0.006,4.396-0.817,5.089-5.197,5.125c-1.932,0.017-3.861,0.194-5.868,0.304
			c0,1.829,0,3.097,0,4.379c10.813,0,21.318,0,32.052,0c0-1.601,0-3.087,0-4.703c-1.987,0-3.655,0.007-5.323-0.001
			c-4.614-0.022-5.406-0.767-5.485-5.45c-0.116-6.871-0.234-13.742-0.224-20.613c0.018-11.507,0.1-23.015,0.224-34.522
			c0.104-9.587,0.316-19.174,0.451-28.761c0.017-1.22-0.152-2.442-0.247-3.833c-0.978,0.158-1.571,0.121-2.033,0.349
			c-5.944,2.93-11.883,5.871-17.777,8.898C335.402,77.669,335.105,78.552,334.484,79.428z M387.968,221.737
			c-0.338-5.401,1.121-10.371-0.353-15.461c-1.178,0.563-2.201,1.165-2.76,2.058c-4.299,6.865-9.618,12.738-16.342,17.306
			c-0.559,0.38-1.002,0.932-1.779,1.67c3.18,3.259,7.258,0.597,10.562,2.178c0,0.77,0.011,1.559-0.002,2.347
			c-0.188,11.753-0.351,23.506-0.588,35.257c-0.056,2.729,0.881,5.004,2.601,7.013c6.211,7.258,20.002,6.999,26.051-0.479
			c0.094-0.116,0.11-0.295,0.268-0.742c-0.463-0.643-1.029-1.432-1.596-2.22c-0.056,0.23-0.111,0.461-0.167,0.691
			c-3.039,0.449-6.065,1.031-9.12,1.31c-3.125,0.284-5.176-1.502-6.293-4.228c-0.624-1.524-1.084-3.239-1.092-4.871
			c-0.051-11.028,0.033-22.057,0.1-33.085c0.003-0.438,0.266-0.874,0.493-1.577c5.903,0,11.788,0,17.896,0
			c0.65-2.394,1.24-4.562,1.949-7.165C400.947,221.737,394.598,221.737,387.968,221.737z M358.371,235.66
			c-0.803-3.7-1.519-7.197-2.355-10.666c-0.129-0.531-0.743-1.035-1.252-1.373c-7.886-5.229-20.62-4.102-27.491,2.405
			c-7.147,6.77-6.503,17.965,1.672,23.475c2.982,2.01,6.641,3.008,9.973,4.507c2.969,1.335,6.198,2.323,8.808,4.177
			c4.863,3.456,4.717,11.382,0.073,14.802c-5.139,3.785-13.088,2.453-16.502-2.902c-1.541-2.418-2.749-5.049-4.124-7.574
			c-0.594-1.092-1.227-2.161-1.904-3.35c-1.218,0.473-2.154,0.836-3.078,1.194c-0.062,0.579-0.193,0.985-0.13,1.358
			c0.714,4.171,1.397,8.35,2.248,12.493c0.149,0.729,0.911,1.489,1.589,1.929c7.271,4.708,19.017,4.323,26.178-0.548
			c9.599-6.527,10.049-23.612-2.252-28.566c-2.515-1.012-5.114-1.81-7.659-2.748c-2.542-0.938-5.179-1.709-7.567-2.95
			c-3.215-1.671-4.505-4.635-4.3-8.213c0.198-3.454,2.044-5.794,5.126-7.214c5.185-2.391,10.6-0.924,13.971,3.735
			c1.769,2.442,3.578,4.855,5.474,7.425C356.111,236.561,357.102,236.166,358.371,235.66z M588.768,235.701
			c-0.824-3.816-1.523-7.246-2.343-10.647c-0.13-0.538-0.708-1.099-1.225-1.395c-8.028-4.608-20.226-5.069-28.006,2.832
			c-6.618,6.723-5.878,17.483,1.89,22.824c3.024,2.079,6.752,3.135,10.151,4.674c2.966,1.344,6.204,2.31,8.819,4.154
			c4.967,3.504,4.778,11.555-0.016,14.946c-5.242,3.711-13.039,2.27-16.459-3.15c-1.403-2.225-2.534-4.621-3.786-6.94
			c-0.667-1.236-1.329-2.477-2.069-3.856c-1.246,0.469-2.186,0.822-3.146,1.183c-0.06,0.628-0.209,1.113-0.132,1.561
			c0.701,4.094,1.383,8.192,2.224,12.257c0.152,0.736,0.88,1.516,1.551,1.957c7.327,4.826,19.472,4.357,26.574-0.749
			c9.204-6.62,9.684-23.446-2.747-28.411c-2.443-0.976-4.967-1.75-7.441-2.651c-2.471-0.899-5.026-1.644-7.367-2.812
			c-3.435-1.713-4.826-4.768-4.551-8.541c0.261-3.562,2.289-5.866,5.49-7.209c5.111-2.145,10.302-0.646,13.558,3.85
			c1.771,2.445,3.577,4.864,5.479,7.447C586.437,236.569,587.438,236.196,588.768,235.701z M232.843,117.662
			c1.133,0.626,1.655,1.015,2.241,1.223c4.995,1.776,6.885,5.4,6.795,10.562c-0.165,9.43-0.062,18.864-0.142,28.296
			c-0.026,2.986-0.72,3.508-3.81,3.574c-1.868,0.041-3.734,0.174-5.76,0.273c0,1.796,0,3.12,0,4.404c10.306,0,20.265,0,30.508,0
			c0-1.548,0-3.056,0-4.71c-2.329,0-4.396,0.045-6.46-0.011c-3.089-0.083-4.205-0.928-4.258-3.926
			c-0.174-9.747-0.521-19.511-0.124-29.241c0.325-7.97,7.793-13.29,14.317-9.035c0.325,0.212,0.737,0.311,1.122,0.411
			c3.523,0.926,6.936-1.264,7.722-4.944c0.803-3.759-1.418-7.129-5.264-7.3c-2.146-0.095-4.466,0.418-6.473,1.234
			c-3.935,1.599-6.873,4.587-9.49,7.88c-0.554,0.697-1.188,1.331-2.217,2.474c-0.333-4.049-0.609-7.404-0.899-10.932
			c-1.006,0.22-1.59,0.23-2.059,0.467c-4.706,2.384-9.41,4.772-14.064,7.254C233.889,115.956,233.523,116.81,232.843,117.662z
			 M410.645,278.303c10.306,0,20.333,0,30.546,0c0-1.595,0-3.098,0-4.698c-1.343,0-2.371,0.001-3.399-0.001
			c-1.039-0.002-2.08,0.023-3.117-0.018c-3.051-0.122-4.123-0.936-4.177-4.016c-0.173-9.747-0.272-19.498-0.126-29.244
			c0.029-1.952,0.975-4.059,2.004-5.795c2.636-4.445,6.82-5.596,11.526-3.508c0.583,0.259,1.163,0.544,1.772,0.72
			c3.608,1.042,7.134-1.196,7.881-4.98c0.747-3.778-1.504-7.091-5.365-7.223c-2.148-0.073-4.463,0.453-6.466,1.279
			c-3.925,1.62-6.855,4.613-9.466,7.912c-0.538,0.682-1.187,1.276-2.152,2.303c-0.347-3.99-0.637-7.337-0.931-10.719
			c-0.83,0.065-1.19-0.003-1.45,0.129c-4.993,2.52-9.994,5.026-14.931,7.652c-0.566,0.301-0.762,1.298-1.16,2.028
			c0.883,0.481,1.344,0.818,1.86,1c5.077,1.795,7.045,5.436,6.938,10.72c-0.189,9.429-0.07,18.864-0.155,28.296
			c-0.026,2.863-0.74,3.405-3.652,3.487c-1.938,0.055-3.875,0.195-5.98,0.307C410.645,275.719,410.645,276.999,410.645,278.303z
			 M477.521,220.379c-0.812,0-1.08-0.076-1.273,0.011c-5.604,2.521-11.222,5.014-16.768,7.657c-0.612,0.293-0.803,1.473-1.291,2.444
			c1.379,0.371,2.135,0.591,2.899,0.776c4.736,1.149,6.017,2.187,6.084,6.893c0.156,11.021-0.048,22.047-0.116,33.07
			c-0.012,1.896-1.187,2.39-2.859,2.401c-2.27,0.016-4.538,0.142-7.028,0.228c0,1.763,0,3.047,0,4.46c9.972,0,19.732,0,29.676,0
			c0-1.661,0-3.138,0-4.733c-2.424,0-4.492-0.009-6.561,0.002c-1.611,0.009-2.569-0.694-2.712-2.368
			c-0.075-0.875-0.282-1.746-0.278-2.618c0.062-15.259,0.147-30.517,0.227-45.774C477.523,222.07,477.521,221.313,477.521,220.379z
			 M468.977,204.559c4.492-0.021,7.692-3.121,7.657-7.418c-0.033-3.906-2.734-6.565-6.681-6.575
			c-5.061-0.012-8.766,3.029-8.758,7.188C461.203,201.449,464.781,204.578,468.977,204.559z"/>
		<path fill-rule="evenodd" clip-rule="evenodd" d="M53.309,79.89c-0.142,3.07-0.378,6.14-0.409,9.21
			c-0.159,15.994-0.348,31.988-0.348,47.981c0,5.824,0.304,11.664,0.813,17.467c0.442,5.029,2.099,6.277,7.16,6.319
			c1.907,0.016,3.814,0.002,5.976,0.002c0,1.729,0,3.327,0,5.112c-12.016,0-23.89,0-36.019,0c0-1.444,0-2.884,0-4.771
			c1.7-0.118,3.24-0.311,4.78-0.319c7.805-0.037,9.613-1.44,10.258-9.284c0.733-8.918,1.283-17.866,1.484-26.811
			c0.314-13.989,0.292-27.985,0.366-41.979c0.04-7.426-0.424-7.846-7.851-7.848c-2.212,0-4.424,0-6.761,0c0-1.744,0-3.135,0-4.83
			c1.127-0.165,2.114-0.431,3.102-0.435c8.392-0.037,16.785,0.066,25.174-0.083c2.5-0.044,3.699,0.864,4.626,3.125
			c9.482,23.152,19.061,46.265,28.617,69.387c0.149,0.361,0.357,0.698,0.763,1.481c0.604-0.917,1.144-1.535,1.463-2.25
			c10.228-22.93,20.448-45.864,30.612-68.823c0.677-1.529,1.634-2.363,3.224-2.369c8.227-0.029,16.454-0.013,24.948-0.013
			c0,1.184,0,2.784,0,4.81c-2.042,0-4.006-0.02-5.969,0.004c-3.967,0.049-5.208,1.256-5.239,5.146
			c-0.133,17.191-0.307,34.382-0.354,51.573c-0.021,7.674,0.192,15.35,0.362,23.023c0.106,4.779,1.506,6.111,6.232,6.149
			c2.231,0.018,4.462,0.003,6.945,0.003c0,1.692,0,3.289,0,5.1c-13.461,0-26.837,0-40.378,0c0-1.538,0-2.982,0-4.644
			c1.145-0.17,2.06-0.398,2.981-0.425c2.078-0.06,4.159-0.012,6.239-0.023c3.324-0.017,4.27-0.836,4.451-4.215
			c0.198-3.671,0.316-7.351,0.321-11.026c0.03-19.597,0.015-39.194,0.015-58.791c0-2.61,0-5.22,0-7.83
			c-0.272-0.04-0.545-0.081-0.817-0.121c-1.094,2.271-2.245,4.519-3.275,6.819c-11.067,24.724-22.105,49.461-33.195,74.175
			c-0.74,1.649-1.835,3.138-2.765,4.702c-0.351-0.016-0.701-0.032-1.051-0.048c-0.678-1.163-1.506-2.264-2.01-3.499
			c-7.728-18.944-15.367-37.925-23.13-56.854c-3.032-7.394-6.315-14.684-9.502-22.014c-0.363-0.835-0.845-1.619-1.272-2.427
			C53.689,79.797,53.499,79.843,53.309,79.89z"/>
		<path fill-rule="evenodd" clip-rule="evenodd" d="M217.053,187.764c0-1.124,0-2.122,0-3.652c6.507-1.267,12.946-2.52,19.661-3.826
			c0.135,1.13,0.319,1.895,0.303,2.655c-0.131,6.231-0.395,12.46-0.438,18.691c-0.127,17.747-0.204,35.494-0.216,53.241
			c-0.003,3.507,0.396,7.014,0.56,10.522c0.121,2.562,1.605,3.907,3.921,4.472c1.623,0.396,3.281,0.645,5.23,1.018
			c0.21,0.693,0.468,1.544,0.852,2.807c-5.864,1.976-11.496,3.872-17.725,5.97c-0.841-2.308-1.627-4.468-2.498-6.857
			c-0.678,0.435-1.26,0.795-1.828,1.176c-7.104,4.76-15.07,6.53-23.332,5.186c-8.933-1.453-14.653-7.753-17.468-15.835
			c-4.676-13.43-1.114-29.165,12.489-38.313c6.188-4.162,13.144-5.211,20.429-4.438c3.076,0.326,6.131,0.849,9.121,1.271
			c0.137-0.173,0.23-0.235,0.23-0.298c-0.02-9.34,0.004-18.68-0.107-28.019c-0.027-2.236-1.516-3.65-3.613-4.29
			C220.811,188.688,218.958,188.264,217.053,187.764z M226.499,249.756c-0.032,0-0.063,0-0.095,0c0-4.234,0.084-8.471-0.022-12.701
			c-0.122-4.794-2.639-8.209-6.855-10.162c-7.542-3.493-19.25-2.856-24.477,8.538c-4.856,10.589-2.308,24.974,6.015,33.136
			c5.418,5.313,11.233,6.394,18.237,3.465c4.699-1.965,7.216-5.36,7.199-10.528C226.489,257.587,226.499,253.672,226.499,249.756z"
			/>
		<path fill-rule="evenodd" clip-rule="evenodd" d="M100.256,273.076c0,1.944,0,3.43,0,5.163c-13.71,0-27.318,0-41.129,0
			c0-1.463,0-2.905,0-5.051c2.192,0,4.139-0.001,6.085,0c7.965,0.004,8.479-0.324,8.593-8.326
			c0.25-17.428,0.355-34.859,0.422-52.289c0.024-6.233-0.226-12.469-0.362-18.702c-0.113-5.147-1.225-6.323-6.378-6.552
			c-2.872-0.127-5.75-0.101-8.625-0.157c-0.138-0.003-0.273-0.144-0.578-0.316c0-1.289,0-2.668,0-4.475
			c1.634-0.135,3.092-0.368,4.548-0.355c7.995,0.068,15.989,0.214,23.984,0.297c4.063,0.042,8.127,0.008,12.466,0.008
			c0,1.359,0,2.956,0,4.963c-2.19,0-4.317-0.028-6.443,0.007c-4.258,0.071-5.363,1.163-5.397,5.421
			c-0.137,16.869-0.311,33.737-0.352,50.606c-0.02,8.313,0.218,16.627,0.348,24.94c0.051,3.241,1.163,4.572,4.395,4.782
			C94.523,273.215,97.233,273.076,100.256,273.076z"/>
		<path fill-rule="evenodd" clip-rule="evenodd" d="M136.523,273.597c0,1.668,0,3.161,0,4.71c-8.585,0-16.867,0-25.434,0
			c0-1.28,0-2.559,0-4.258c1.404-0.146,2.778-0.37,4.157-0.416c2.99-0.098,3.627-0.584,3.636-3.448
			c0.033-9.918,0-19.836,0.008-29.753c0.003-4.09-1.732-7.005-5.505-8.763c-0.897-0.418-1.527-1.412-2.279-2.141
			c0.706-0.688,1.308-1.556,2.134-2.034c3.667-2.125,7.394-4.146,11.111-6.183c0.75-0.411,1.552-0.728,3.05-1.42
			c0.443,3.478,0.831,6.531,1.284,10.086c1.134-0.996,1.882-1.665,2.644-2.319c6.796-5.847,14.32-9.034,23.414-6.294
			c6.318,1.903,11.391,8.749,11.402,15.365c0.018,10.637,0.004,21.275,0.005,31.913c0.001,4.391,0.595,4.979,4.979,4.962
			c1.108-0.005,2.217-0.001,3.658-0.001c0,1.613,0,3.103,0,4.708c-9.033,0-17.79,0-26.834,0c0-1.327,0-2.671,0-4.362
			c1.687-0.12,3.167-0.325,4.646-0.31c2.18,0.022,3.347-0.956,3.357-3.126c0.054-11.189,0.208-22.381,0.053-33.568
			c-0.072-5.212-3.025-8.559-8.243-9.359c-2.916-0.448-6.134-0.434-8.957,0.329c-6.311,1.705-9.882,6.463-10.014,13.074
			c-0.189,9.514-0.101,19.034-0.032,28.551c0.025,3.43,0.772,4.028,4.166,4.056C134.035,273.604,135.141,273.597,136.523,273.597z"
			/>
		<path fill-rule="evenodd" clip-rule="evenodd" d="M285.237,225.938c0.107-1.271,0.202-2.387,0.343-4.056
			c6.419,0,12.579,0,19.173,0c0,0.611,0.007,1.596-0.001,2.579c-0.125,13.973-0.337,27.946-0.323,41.92
			c0.004,3.918,1.657,5.008,5.602,4.562c1.172-0.131,2.341-0.277,3.718-0.442c0.265,1.131,0.491,2.096,0.698,2.979
			c-2.732,1.894-16.269,6.043-18.878,5.674c-0.405-2.653-0.83-5.438-1.332-8.729c-0.983,0.94-1.627,1.576-2.292,2.19
			c-5.45,5.03-11.855,7.709-19.257,6.634c-2.665-0.387-5.505-1.866-7.565-3.654c-5.011-4.35-7.329-10.174-7.373-16.824
			c-0.055-8.234-0.041-16.469-0.051-24.703c-0.008-6.319-0.471-6.866-6.665-7.864c-0.385-0.062-0.758-0.196-1.319-0.345
			c0-1.085,0-2.144,0-3.874c6.059,0,11.947,0,18.186,0c0.032,0.204,0.233,0.873,0.22,1.538c-0.217,10.863-0.575,21.727-0.623,32.591
			c-0.013,2.897,0.51,5.938,1.47,8.673c2.759,7.862,10.941,10.671,18.195,6.564c4.757-2.692,7.396-6.272,7.116-12.18
			c-0.408-8.615-0.101-17.265-0.105-25.898c-0.003-5.32-0.832-6.262-6.023-6.908C287.298,226.258,286.449,226.116,285.237,225.938z"
			/>
		<path fill-rule="evenodd" clip-rule="evenodd" d="M166.505,137.698c-1.127-15.667,15.294-30.021,30.233-29.638
			c16.103,0.413,27.968,14.859,27.572,30.083c-0.4,15.366-14.329,28.916-30.252,29.04C179.13,167.298,165.51,153.6,166.505,137.698z
			 M177.723,137.447c-0.086,6.953,1.335,13.393,5.539,19.197c5.34,7.373,18.466,10.16,24.839-1.475
			c3.858-7.043,5.196-14.598,4.262-22.478c-0.853-7.189-4.028-13.278-9.996-17.628c-5.998-4.372-12.79-3.553-17.921,1.772
			C178.835,122.658,177.786,129.875,177.723,137.447z"/>
		<path fill-rule="evenodd" clip-rule="evenodd" d="M327.638,129.089c-1.172,0.196-2.371,0.564-3.571,0.57
			c-10.151,0.047-20.302,0.028-30.453,0.028c-0.945,0-1.89,0-2.774,0c-2.992,11.4,2.467,27.398,16.382,29.337
			c7.187,1.001,13.237-1.305,17.627-7.332c0.555-0.761,1.181-1.47,1.87-2.324c0.902,0.364,1.684,0.679,2.859,1.152
			c-0.575,1.375-0.969,2.635-1.597,3.765c-5.284,9.518-14.562,14.15-25.288,12.701c-10.942-1.479-18.246-6.714-21.781-19.301
			c-2.077-7.395-2.007-15.071,0.803-22.412c5.452-14.244,19.025-19.515,32.321-16.404
			C322.402,110.827,328.717,120.29,327.638,129.089z M291.271,125.451c1.107,0.098,2.028,0.247,2.95,0.25
			c5.117,0.015,10.233,0.011,15.35-0.026c1.434-0.01,2.916,0.039,4.279-0.314c0.732-0.189,1.713-1.114,1.806-1.81
			c0.694-5.23-4.022-10.822-9.281-11.207C299.081,111.811,293.034,116.908,291.271,125.451z"/>
		<path fill-rule="evenodd" clip-rule="evenodd" d="M542.192,241.386c-1.163,0.2-2.359,0.578-3.558,0.584
			c-10.15,0.048-20.303,0.028-30.453,0.028c-0.946,0-1.893,0-2.78,0c-3.017,11.117,2.291,27.358,16.337,29.331
			c7.285,1.024,13.393-1.338,17.771-7.505c0.369-0.52,0.766-1.021,1.18-1.507c0.148-0.174,0.386-0.273,0.676-0.471
			c0.396,0.092,0.869,0.154,1.304,0.317c0.361,0.136,0.679,0.39,1.341,0.787c-0.372,1.005-0.646,2.052-1.127,2.993
			c-4.969,9.731-14.355,14.666-25.382,13.384c-11.399-1.326-19.404-8.117-22.087-19.291c-1.817-7.566-1.985-15.253,0.917-22.653
			c5.546-14.139,19.02-19.279,32.225-16.211C536.923,223.117,543.216,232.521,542.192,241.386z M505.867,237.785
			c1.025,0.091,1.877,0.229,2.729,0.23c5.517,0.012,11.032,0.008,16.549-0.026c1.113-0.007,2.307,0.051,3.312-0.327
			c0.735-0.277,1.675-1.17,1.749-1.869c0.586-5.59-4.223-10.96-9.837-11.178C513.33,224.342,507.233,229.73,505.867,237.785z"/>
		<path fill-rule="evenodd" clip-rule="evenodd" d="M334.484,79.428c0.621-0.876,0.918-1.759,1.513-2.064
			c5.895-3.027,11.833-5.968,17.777-8.898c0.462-0.228,1.056-0.191,2.033-0.349c0.095,1.391,0.264,2.613,0.247,3.833
			c-0.135,9.587-0.348,19.173-0.451,28.761c-0.124,11.507-0.206,23.015-0.224,34.522c-0.011,6.871,0.107,13.742,0.224,20.613
			c0.079,4.683,0.871,5.427,5.485,5.45c1.668,0.008,3.336,0.001,5.323,0.001c0,1.616,0,3.103,0,4.703c-10.733,0-21.238,0-32.052,0
			c0-1.282,0-2.55,0-4.379c2.007-0.109,3.937-0.287,5.868-0.304c4.38-0.037,5.191-0.73,5.197-5.125
			c0.025-19.024,0.022-38.049-0.012-57.073c-0.006-3.194-0.208-6.388-0.339-9.581c-0.194-4.75-1.77-6.843-6.325-8.485
			C337.489,80.599,336.244,80.101,334.484,79.428z"/>
		<path fill-rule="evenodd" clip-rule="evenodd" d="M387.968,221.737c6.63,0,12.979,0,19.827,0
			c-0.709,2.604-1.299,4.771-1.949,7.165c-6.107,0-11.992,0-17.896,0c-0.228,0.703-0.49,1.14-0.493,1.577
			c-0.066,11.028-0.15,22.057-0.1,33.085c0.008,1.632,0.468,3.347,1.092,4.871c1.117,2.726,3.168,4.512,6.293,4.228
			c3.055-0.278,6.081-0.86,9.12-1.31c0.056-0.23,0.111-0.461,0.167-0.691c0.566,0.788,1.133,1.577,1.596,2.22
			c-0.157,0.447-0.174,0.626-0.268,0.742c-6.049,7.479-19.84,7.737-26.051,0.479c-1.72-2.009-2.656-4.284-2.601-7.013
			c0.237-11.751,0.4-23.504,0.588-35.257c0.013-0.788,0.002-1.577,0.002-2.347c-3.304-1.581-7.382,1.081-10.562-2.178
			c0.777-0.738,1.221-1.29,1.779-1.67c6.724-4.567,12.043-10.44,16.342-17.306c0.559-0.893,1.582-1.494,2.76-2.058
			C389.089,211.366,387.63,216.336,387.968,221.737z"/>
		<path fill-rule="evenodd" clip-rule="evenodd" d="M358.371,235.66c-1.27,0.506-2.26,0.9-3.505,1.396
			c-1.896-2.569-3.705-4.982-5.474-7.425c-3.371-4.659-8.786-6.126-13.971-3.735c-3.082,1.42-4.928,3.76-5.126,7.214
			c-0.205,3.578,1.085,6.542,4.3,8.213c2.389,1.241,5.025,2.012,7.567,2.95c2.545,0.938,5.145,1.736,7.659,2.748
			c12.301,4.954,11.851,22.039,2.252,28.566c-7.161,4.871-18.907,5.256-26.178,0.548c-0.678-0.439-1.439-1.2-1.589-1.929
			c-0.851-4.144-1.534-8.322-2.248-12.493c-0.063-0.373,0.068-0.779,0.13-1.358c0.924-0.358,1.86-0.722,3.078-1.194
			c0.678,1.188,1.311,2.258,1.904,3.35c1.375,2.525,2.583,5.156,4.124,7.574c3.414,5.355,11.363,6.688,16.502,2.902
			c4.644-3.42,4.79-11.346-0.073-14.802c-2.609-1.854-5.839-2.842-8.808-4.177c-3.332-1.499-6.99-2.497-9.973-4.507
			c-8.175-5.51-8.819-16.705-1.672-23.475c6.871-6.507,19.605-7.635,27.491-2.405c0.509,0.338,1.123,0.842,1.252,1.373
			C356.853,228.463,357.568,231.96,358.371,235.66z"/>
		<path fill-rule="evenodd" clip-rule="evenodd" d="M588.768,235.701c-1.33,0.495-2.331,0.868-3.551,1.322
			c-1.902-2.583-3.709-5.002-5.479-7.447c-3.256-4.495-8.446-5.994-13.558-3.85c-3.201,1.343-5.229,3.647-5.49,7.209
			c-0.275,3.773,1.116,6.828,4.551,8.541c2.341,1.168,4.896,1.912,7.367,2.812c2.475,0.901,4.998,1.676,7.441,2.651
			c12.431,4.965,11.951,21.791,2.747,28.411c-7.103,5.106-19.247,5.575-26.574,0.749c-0.671-0.441-1.398-1.221-1.551-1.957
			c-0.841-4.064-1.522-8.163-2.224-12.257c-0.077-0.447,0.072-0.933,0.132-1.561c0.96-0.36,1.899-0.714,3.146-1.183
			c0.74,1.38,1.402,2.62,2.069,3.856c1.252,2.319,2.383,4.716,3.786,6.94c3.42,5.42,11.217,6.861,16.459,3.15
			c4.794-3.392,4.982-11.442,0.016-14.946c-2.615-1.845-5.854-2.811-8.819-4.154c-3.399-1.539-7.127-2.595-10.151-4.674
			c-7.768-5.341-8.508-16.102-1.89-22.824c7.78-7.901,19.978-7.44,28.006-2.832c0.517,0.296,1.095,0.856,1.225,1.395
			C587.244,228.455,587.943,231.885,588.768,235.701z"/>
		<path fill-rule="evenodd" clip-rule="evenodd" d="M232.843,117.662c0.681-0.852,1.046-1.706,1.686-2.046
			c4.654-2.481,9.358-4.87,14.064-7.254c0.469-0.237,1.052-0.248,2.059-0.467c0.29,3.528,0.566,6.883,0.899,10.932
			c1.03-1.144,1.664-1.777,2.217-2.474c2.617-3.292,5.555-6.281,9.49-7.88c2.006-0.816,4.327-1.329,6.473-1.234
			c3.846,0.17,6.067,3.541,5.264,7.3c-0.786,3.681-4.198,5.871-7.722,4.944c-0.385-0.101-0.796-0.199-1.122-0.411
			c-6.524-4.255-13.992,1.064-14.317,9.035c-0.397,9.73-0.05,19.494,0.124,29.241c0.053,2.998,1.169,3.843,4.258,3.926
			c2.064,0.056,4.131,0.011,6.46,0.011c0,1.654,0,3.162,0,4.71c-10.243,0-20.202,0-30.508,0c0-1.284,0-2.608,0-4.404
			c2.025-0.1,3.892-0.233,5.76-0.273c3.09-0.066,3.784-0.588,3.81-3.574c0.081-9.432-0.022-18.866,0.142-28.296
			c0.089-5.161-1.8-8.785-6.795-10.562C234.498,118.676,233.976,118.288,232.843,117.662z"/>
		<path fill-rule="evenodd" clip-rule="evenodd" d="M410.645,278.303c0-1.304,0-2.584,0-4.368c2.105-0.111,4.042-0.252,5.98-0.307
			c2.912-0.082,3.626-0.624,3.652-3.487c0.085-9.432-0.034-18.867,0.155-28.296c0.106-5.284-1.861-8.925-6.938-10.72
			c-0.517-0.182-0.978-0.519-1.86-1c0.398-0.73,0.594-1.728,1.16-2.028c4.937-2.626,9.938-5.133,14.931-7.652
			c0.26-0.132,0.62-0.063,1.45-0.129c0.294,3.382,0.584,6.729,0.931,10.719c0.966-1.026,1.614-1.621,2.152-2.303
			c2.61-3.299,5.541-6.292,9.466-7.912c2.003-0.826,4.317-1.353,6.466-1.279c3.861,0.132,6.112,3.444,5.365,7.223
			c-0.747,3.784-4.272,6.022-7.881,4.98c-0.609-0.176-1.189-0.461-1.772-0.72c-4.706-2.088-8.891-0.938-11.526,3.508
			c-1.029,1.736-1.975,3.843-2.004,5.795c-0.146,9.746-0.047,19.497,0.126,29.244c0.054,3.08,1.126,3.894,4.177,4.016
			c1.037,0.041,2.078,0.016,3.117,0.018c1.028,0.002,2.057,0.001,3.399,0.001c0,1.601,0,3.104,0,4.698
			C430.978,278.303,420.95,278.303,410.645,278.303z"/>
		<path fill-rule="evenodd" clip-rule="evenodd" d="M477.521,220.379c0,0.935,0.003,1.691-0.001,2.448
			c-0.079,15.258-0.165,30.516-0.227,45.774c-0.004,0.872,0.203,1.743,0.278,2.618c0.143,1.674,1.101,2.377,2.712,2.368
			c2.068-0.011,4.137-0.002,6.561-0.002c0,1.596,0,3.072,0,4.733c-9.943,0-19.704,0-29.676,0c0-1.413,0-2.697,0-4.46
			c2.49-0.086,4.759-0.212,7.028-0.228c1.673-0.012,2.848-0.505,2.859-2.401c0.068-11.023,0.272-22.05,0.116-33.07
			c-0.067-4.706-1.348-5.743-6.084-6.893c-0.765-0.186-1.521-0.405-2.899-0.776c0.488-0.972,0.679-2.151,1.291-2.444
			c5.546-2.644,11.163-5.136,16.768-7.657C476.44,220.303,476.708,220.379,477.521,220.379z"/>
		<path fill-rule="evenodd" clip-rule="evenodd" d="M468.977,204.559c-4.195,0.02-7.773-3.109-7.781-6.805
			c-0.008-4.159,3.697-7.2,8.758-7.188c3.946,0.01,6.647,2.669,6.681,6.575C476.669,201.438,473.469,204.538,468.977,204.559z"/>
		<path fill-rule="evenodd" clip-rule="evenodd" fill="none" d="M226.499,249.756c0,3.916-0.01,7.831,0.002,11.747
			c0.017,5.168-2.5,8.563-7.199,10.528c-7.004,2.929-12.819,1.849-18.237-3.465c-8.323-8.162-10.872-22.547-6.015-33.136
			c5.226-11.395,16.935-12.031,24.477-8.538c4.216,1.953,6.733,5.368,6.855,10.162c0.106,4.23,0.022,8.467,0.022,12.701
			C226.436,249.756,226.467,249.756,226.499,249.756z"/>
		<path fill-rule="evenodd" clip-rule="evenodd" fill="none" d="M177.723,137.447c0.062-7.572,1.112-14.789,6.722-20.612
			c5.131-5.326,11.923-6.144,17.921-1.772c5.968,4.35,9.144,10.439,9.996,17.628c0.935,7.88-0.404,15.435-4.262,22.478
			c-6.373,11.635-19.499,8.848-24.839,1.475C179.059,150.84,177.637,144.4,177.723,137.447z"/>
		<path fill-rule="evenodd" clip-rule="evenodd" fill="none" d="M291.271,125.451c1.763-8.543,7.809-13.641,15.104-13.107
			c5.259,0.385,9.976,5.977,9.281,11.207c-0.093,0.696-1.073,1.621-1.806,1.81c-1.363,0.353-2.846,0.304-4.279,0.314
			c-5.116,0.037-10.233,0.041-15.35,0.026C293.3,125.698,292.378,125.549,291.271,125.451z"/>
		<path fill-rule="evenodd" clip-rule="evenodd" fill="none" d="M505.867,237.785c1.366-8.055,7.463-13.443,14.501-13.17
			c5.614,0.218,10.423,5.588,9.837,11.178c-0.074,0.699-1.014,1.592-1.749,1.869c-1.005,0.378-2.198,0.32-3.312,0.327
			c-5.517,0.034-11.032,0.038-16.549,0.026C507.744,238.014,506.893,237.876,505.867,237.785z"/>
	</g>
</g>
</svg>
