<?xml version="1.0" encoding="utf-8"?>
<!-- Generator: Adobe Illustrator 16.0.0, SVG Export Plug-In . SVG Version: 6.00 Build 0)  -->
<!DOCTYPE svg PUBLIC "-//W3C//DTD SVG 1.1//EN" "http://www.w3.org/Graphics/SVG/1.1/DTD/svg11.dtd">
<svg version="1.1" id="Layer_1" xmlns="http://www.w3.org/2000/svg" xmlns:xlink="http://www.w3.org/1999/xlink" x="0px" y="0px"
	 width="676.927px" height="228.756px" viewBox="0 0 676.927 228.756" enable-background="new 0 0 676.927 228.756"
	 xml:space="preserve">
<path fill="#4D4D4F" d="M110.785,156.838c43.728,0,76.952-35.286,76.952-77.496C187.737,34.316,164.748,0,108.784,0H0v9.723
	c20.452,0,24.923,5.589,24.923,21.51v196.956h40.645V69.362c0-14.229-0.591-30.459,5.837-43.785
	c6.235-12.994,18.217-16.286,32.667-14.83c34.034,3.402,41.834,35.753,41.834,67.22c0,31.188-4.493,66.418-41.834,66.418
	c-8.562,0-16.128-1.596-22.612-5.596l-5.163,7.323C86.295,153.455,95.666,156.838,110.785,156.838 M596.458,183.187
	c-16.175,18.273-39.242,31.274-63.958,29.744c-56.849-3.574-66.253-52.837-66.253-100.451c0-42.903,5.765-101.507,62.14-101.999
	c22.869-0.249,58.452,6.227,61.719,40.005h8.753V0h-69.471c-68.826,0-108.779,34.933-108.779,120.4
	c0,63.705,43.294,107.843,97.521,108.351c33.902,0.3,65.232-13.355,86.005-39.151L596.458,183.187z M358.845,219.285
	c-22.267-1.553-35.72-3.027-34.298-53.152V34.349c0-15.538,8.741-17.558,22.715-17.558h56.713V0H203.967v16.791h57.108
	c13.855,0,22.856,2.145,22.856,17.604v132.084c0,66.961,45.451,62.641,74.914,61.711V219.285z"/>
<path fill="#4D4D4F" d="M667.196,40.765c-4.237,4.252-9.341,6.364-15.438,6.364c-6.028,0-11.152-2.111-15.367-6.364
	c-4.207-4.241-6.293-9.359-6.293-15.383c0-5.987,2.086-11.083,6.337-15.296c4.245-4.257,9.349-6.391,15.323-6.391
	c6.022,0,11.124,2.134,15.438,6.391c4.214,4.214,6.314,9.31,6.314,15.296C673.51,31.406,671.41,36.524,667.196,40.765
	 M669.582,7.639c-4.953-4.915-10.883-7.342-17.866-7.342c-6.864,0-12.826,2.428-17.688,7.342c-4.891,4.866-7.321,10.83-7.321,17.72
	c0,6.951,2.431,12.877,7.262,17.825c4.878,4.885,10.801,7.346,17.748,7.346c6.983,0,12.913-2.461,17.866-7.346
	c4.893-4.948,7.346-10.875,7.346-17.825C676.927,18.417,674.474,12.471,669.582,7.639"/>
<path fill="#4D4D4F" d="M654.303,24.182c-1.113,0.376-2.83,0.571-5.059,0.571h-1.926V14.296h1.648c2.928,0,5.051,0.398,6.374,1.117
	c1.341,0.723,1.98,2.084,1.98,4.162C657.322,21.871,656.305,23.357,654.303,24.182 M661.86,38.116
	c-0.045-0.764-0.045-1.517-0.045-2.205v-2.089c0-1.509-0.52-3.051-1.597-4.606c-1.068-1.55-2.694-2.529-4.922-2.916
	c1.746-0.238,3.191-0.723,4.26-1.377c1.837-1.257,2.815-3.168,2.815-5.78c0-3.639-1.498-6.137-4.546-7.405
	c-1.708-0.719-4.427-1.065-8.038-1.065h-7.526V39.99h5.058V28.403h1.317c2.776,0,4.688,0.342,5.795,0.956
	c1.874,1.103,2.793,3.353,2.793,6.785v2.295l0.098,0.933c0,0.098,0.074,0.26,0.074,0.354c0.054,0.079,0.054,0.192,0.099,0.264h4.877
	l-0.203-0.335C662.041,39.373,661.98,38.88,661.86,38.116"/>
</svg>
