<?xml version="1.0" encoding="utf-8"?>
<!-- Generator: Adobe Illustrator 16.0.0, SVG Export Plug-In . SVG Version: 6.00 Build 0)  -->
<!DOCTYPE svg PUBLIC "-//W3C//DTD SVG 1.1//EN" "http://www.w3.org/Graphics/SVG/1.1/DTD/svg11.dtd">
<svg version="1.1"
	 id="svg2" xmlns:dc="http://purl.org/dc/elements/1.1/" xmlns:svg="http://www.w3.org/2000/svg" xmlns:inkscape="http://www.inkscape.org/namespaces/inkscape" xmlns:sodipodi="http://sodipodi.sourceforge.net/DTD/sodipodi-0.dtd" xmlns:cc="http://web.resource.org/cc/" xmlns:rdf="http://www.w3.org/1999/02/22-rdf-syntax-ns#" sodipodi:docbase="C:\Documents and Settings\John\My Documents\My Pictures" inkscape:version="0.44.1" sodipodi:docname="Alcoa.eps(converted)-page1.svg" sodipodi:version="0.32"
	 xmlns="http://www.w3.org/2000/svg" xmlns:xlink="http://www.w3.org/1999/xlink" x="0px" y="0px" width="135.954px"
	 height="101.799px" viewBox="0 0 135.954 101.799" enable-background="new 0 0 135.954 101.799" xml:space="preserve">
<sodipodi:namedview  inkscape:pageopacity="0.0" inkscape:window-height="573" inkscape:window-width="853" inkscape:pageshadow="2" inkscape:window-x="22" inkscape:window-y="29" inkscape:current-layer="g20" guidetolerance="10.0" pagecolor="#ffffff" objecttolerance="10.0" borderopacity="1.0" inkscape:zoom="2.9281553" bordercolor="#666666" inkscape:cy="64.375" gridtolerance="10.0" inkscape:cx="85.625" id="base">
	</sodipodi:namedview>
<g id="g4" transform="translate(105.288,79.6358)">
	<path id="path6" fill="#394A94" d="M10.186,13.869h10.418l-5.209-9.027L10.186,13.869z M30.666,22.142h-5.221l-2.297-3.951H7.638
		l-2.43,3.951H0L11.826,2.042C12.461,0.77,13.869,0,15.395,0c1.521,0,2.798,0.771,3.562,2.042L30.666,22.142z"/>
</g>
<g id="g8" transform="translate(79.081,79.7688)">
	<path id="path10" fill="#394A94" d="M20.361,17.3V4.708H5.089V17.3H20.361z M19.211,0c3.431,0,6.229,2.799,6.229,6.232v9.53
		c0,3.45-2.798,6.247-6.229,6.247H6.23c-3.434,0-6.23-2.797-6.23-6.247v-9.53C0,2.798,2.796,0,6.23,0H19.211z"/>
</g>
<g id="g12" transform="translate(54.021,79.7688)">
	<path id="path14" fill="#394A94" d="M6.233,22.009h16.278V17.3H5.094V4.708h17.418V0H6.233C2.8,0,0,2.798,0,6.232v9.53
		C0,19.212,2.8,22.009,6.233,22.009z"/>
</g>
<g id="g16" transform="translate(31.886,79.6358)">
	<path id="path18" fill="#394A94" d="M6.11,22.142h13.733v-4.709H5.089V0H0v15.896C0,19.345,2.677,22.142,6.11,22.142z"/>
</g>
<g id="g20" transform="translate(31.886,0)">
	<path id="path22" fill="#394A94" d="M21.635,28.369h29.379L36.256,45.036L21.635,28.369z M52.031,63.476l15.646-18.44L36.256,8.139
		L4.839,45.036l15.775,18.44l15.642-17.938L52.031,63.476z M58.515,0c7.77,0,14.119,6.364,14.119,14.118v43.896
		c0,7.755-6.35,14.119-14.119,14.119H14.116C6.36,72.134,0,65.769,0,58.014V14.118C0,6.364,6.36,0,14.116,0H58.515z"/>
</g>
<g id="g24" transform="translate(0,79.6558)">
	<path id="path26" fill="#394A94" d="M10.184,13.867h10.421l-5.209-9.028L10.184,13.867z M30.666,22.143h-5.221l-2.297-3.954H7.64
		l-2.431,3.954H0L11.825,2.041C12.462,0.769,13.867,0,15.396,0c1.521,0,2.797,0.769,3.562,2.041L30.666,22.143z"/>
</g>
</svg>
