<?xml version="1.0" encoding="utf-8"?>
<!-- Generator: Adobe Illustrator 16.0.0, SVG Export Plug-In . SVG Version: 6.00 Build 0)  -->
<!DOCTYPE svg PUBLIC "-//W3C//DTD SVG 1.1//EN" "http://www.w3.org/Graphics/SVG/1.1/DTD/svg11.dtd">
<svg version="1.1" id="Layer_1" xmlns="http://www.w3.org/2000/svg" xmlns:xlink="http://www.w3.org/1999/xlink" x="0px" y="0px"
	 width="187.086px" height="43.319px" viewBox="0 0 187.086 43.319" enable-background="new 0 0 187.086 43.319"
	 xml:space="preserve">
<g>
	<path fill-rule="evenodd" clip-rule="evenodd" fill="#E71E25" d="M21.728,4.873c-2.437,0.068-4.806,0.542-7.04,1.557l2.911,5.144
		c1.286-0.542,2.775-0.88,4.129-0.88c0.474,0,0.88,0.068,1.354,0.135c5.55,0.406,10.018,6.16,9.611,11.642
		c-0.474,6.025-5.279,9.814-10.965,10.086c-0.339,0-0.745,0-1.083,0c-3.723-0.812-6.836-2.369-8.664-5.889L5.889,16.109
		c-0.812,2.437-1.083,4.738-0.88,7.243c0.947,7.986,7.04,14.078,15.026,15.025c0.542,0.068,1.151,0.068,1.692,0.068
		c9.273-0.135,16.719-7.514,16.854-16.719C38.447,12.59,31.475,5.55,22.608,4.873C22.337,4.873,21.999,4.873,21.728,4.873
		L21.728,4.873z M21.728,43.319C9.815,43.319,0,33.573,0,21.727c0-5.821,2.302-11.101,6.092-15.026l10.356,17.87
		c0.474,0.811,1.15,1.557,1.963,2.166c0.947,0.541,2.031,0.947,3.181,0.947c0.068,0,0.136,0,0.136,0
		c4.196,0.135,7.107-4.4,5.686-8.123c-0.812-2.369-3.181-3.926-5.686-3.926c-0.339,0-0.677,0-1.016,0.068
		c-1.828,0.203-3.655,1.76-4.467,3.384L8.055,4.873C11.778,1.827,16.583,0,21.728,0c11.98,0,21.728,9.747,21.728,21.727
		C43.456,33.573,33.708,43.319,21.728,43.319L21.728,43.319z"/>
	<path fill-rule="evenodd" clip-rule="evenodd" fill="#E71E25" d="M77.028,24.299l-3.316-5.618
		c-0.135,0.542-0.203,1.083-0.203,1.692v15.5h3.52h2.437v-7.311L77.028,24.299L77.028,24.299z M112.292,23.149l3.182,5.482v7.174
		h-0.067v0.068h-3.114h-3.587V16.989L112.292,23.149L112.292,23.149z M112.292,20.17l3.182,5.414v-3.52c0-2.571,4.332-2.774,4.332,0
		v13.74h3.993v0.068h3.452V22.065c0-2.571,4.332-2.774,4.332,0v13.809h6.701V21.727c0-7.648-9.611-9.07-13.132-4.264
		c-2.165-2.978-6.633-3.587-9.746-1.828v-0.947h-3.114h-3.181L112.292,20.17L112.292,20.17z M149.656,26.803l-7.311-12.657
		c0,7.243,0,14.485,0,21.659h5.957v-0.879c1.354,0.676,2.91,1.082,4.603,1.082c5.753,0,10.491-4.738,10.491-10.559
		c0-5.753-4.738-10.491-10.491-10.491c-1.692,0-3.249,0.406-4.603,1.083V7.31h-5.957c0,2.437,0,1.354,0,3.791l7.446,12.792
		c0.541-1.084,1.76-1.895,3.113-1.895c1.896,0,3.452,1.557,3.452,3.451s-1.557,3.451-3.452,3.451
		C151.416,28.901,150.198,28.09,149.656,26.803L149.656,26.803z M173.482,27.006l-4.874-8.393c-1.624,1.828-2.571,4.195-2.571,6.836
		c0,5.82,4.737,10.559,10.559,10.559c5.754,0,10.491-4.738,10.491-10.559c0-5.753-4.737-10.491-10.491-10.491
		c-2.64,0-5.009,0.948-6.904,2.572l3.791,6.431c0.541-1.152,1.76-1.963,3.113-1.963c1.896,0,3.452,1.557,3.452,3.451
		s-1.557,3.451-3.452,3.451C175.242,28.901,174.023,28.157,173.482,27.006L173.482,27.006z M96.724,30.391
		c1.084-0.406,1.828-1.422,2.031-2.572h6.904c-1.016,4.264-4.535,7.514-8.936,8.123c-0.405,0-0.88,0.066-1.354,0.066
		c-5.753,0-10.491-4.738-10.491-10.559c0-2.301,0.745-4.332,1.963-6.092l5.415,9.273c0.542,1.219,1.692,2.029,3.113,2.029
		C95.844,30.661,96.319,30.594,96.724,30.391L96.724,30.391z M96.724,23.622h2.099c-0.135-1.285-0.947-2.301-2.099-2.774
		c-0.405-0.204-0.88-0.271-1.354-0.271c-1.827,0-3.249,1.285-3.384,3.045H96.724L96.724,23.622z M96.724,15.026
		c-0.405,0-0.88-0.068-1.354-0.068c-2.842,0-5.55,1.218-7.445,3.181l5.009,8.664v-0.473h3.79h9.139c0-0.34,0.067-0.609,0.067-0.881
		C105.93,20.17,101.869,15.703,96.724,15.026L96.724,15.026z M77.028,21.321l-2.504-4.264c0.677-0.812,1.557-1.354,2.504-1.625
		c0.542-0.204,1.151-0.271,1.692-0.271h4.806v5.55h-1.354c-1.557,0-2.708,1.083-2.708,2.707v2.1L77.028,21.321L77.028,21.321z
		 M56.316,26.803l-7.378-12.657c0,7.243,0,14.485,0,21.659h5.956v-0.879c1.422,0.676,2.979,1.082,4.603,1.082
		c5.753,0,10.559-4.738,10.559-10.559c0-5.753-4.806-10.491-10.559-10.491c-1.625,0-3.181,0.406-4.603,1.083V7.31h-5.956
		c0,2.437,0,1.354,0,3.791l7.446,12.792c0.542-1.084,1.76-1.895,3.113-1.895c1.896,0,3.452,1.557,3.452,3.451
		s-1.557,3.451-3.452,3.451C58.076,28.901,56.857,28.09,56.316,26.803L56.316,26.803z"/>
</g>
</svg>
