<?xml version="1.0" encoding="utf-8"?>
<!-- Generator: Adobe Illustrator 16.0.0, SVG Export Plug-In . SVG Version: 6.00 Build 0)  -->
<!DOCTYPE svg PUBLIC "-//W3C//DTD SVG 1.1//EN" "http://www.w3.org/Graphics/SVG/1.1/DTD/svg11.dtd">
<svg version="1.1" id="Layer_1" xmlns="http://www.w3.org/2000/svg" xmlns:xlink="http://www.w3.org/1999/xlink" x="0px" y="0px"
	 width="300px" height="50.292px" viewBox="0 0 300 50.292" enable-background="new 0 0 300 50.292" xml:space="preserve">
<path fill-rule="evenodd" clip-rule="evenodd" fill="#ED1C2E" d="M17.402,50.292h0.875v-2.363h2.222
	c1.236,0,1.916-0.733,1.916-1.842c0-1.096-0.679-1.689-1.974-1.689h-3.038 M18.276,47.171v-2.016h2.262
	c0.67,0,0.999,0.389,0.999,0.947c0,0.597-0.29,1.068-1.156,1.068H18.276z"/>
<polyline fill="#ED1C2E" points="31.579,50.292 36.399,50.292 36.399,49.531 32.454,49.531 32.454,47.624 36.202,47.624 
	36.202,46.863 32.454,46.863 32.454,45.155 36.318,45.155 36.318,44.397 31.579,44.397 "/>
<path fill-rule="evenodd" clip-rule="evenodd" fill="#ED1C2E" d="M45.675,50.292h0.875v-2.503h2.287
	c0.727,0,1.081,0.323,1.139,1.378c0.042,0.71,0.042,0.958,0.183,1.125h0.925c-0.198-0.232-0.234-0.507-0.282-1.604
	c-0.033-0.693-0.339-1.18-0.858-1.253v-0.018c0.644-0.206,0.989-0.734,0.989-1.452c0-0.752-0.429-1.567-1.609-1.567h-3.648
	 M46.549,47.028v-1.873h2.467c0.702,0,1.041,0.381,1.041,0.939c0,0.415-0.206,0.934-1.065,0.934H46.549z"/>
<polyline fill="#ED1C2E" points="60.158,50.292 61.033,50.292 61.033,47.656 64.55,47.656 64.55,46.898 61.033,46.898 
	61.033,45.155 64.723,45.155 64.723,44.397 60.158,44.397 "/>
<path fill-rule="evenodd" clip-rule="evenodd" fill="#ED1C2E" d="M73.436,47.344c0,1.511,0.907,3.095,3.278,3.095
	c2.369,0,3.278-1.584,3.278-3.095c0-1.514-0.909-3.097-3.278-3.097C74.342,44.247,73.436,45.83,73.436,47.344 M79.117,47.344
	c0,1.56-1.06,2.336-2.403,2.336c-1.346,0-2.403-0.776-2.403-2.336c0-1.562,1.057-2.337,2.403-2.337
	C78.057,45.007,79.117,45.782,79.117,47.344z"/>
<path fill-rule="evenodd" clip-rule="evenodd" fill="#ED1C2E" d="M89.222,50.292h0.876v-2.503h2.285
	c0.728,0,1.082,0.323,1.141,1.378c0.041,0.71,0.041,0.958,0.181,1.125h0.923c-0.195-0.232-0.228-0.507-0.279-1.604
	c-0.033-0.693-0.339-1.18-0.86-1.253v-0.018c0.645-0.206,0.992-0.734,0.992-1.452c0-0.752-0.429-1.567-1.61-1.567h-3.65
	 M90.099,47.028v-1.873h2.468c0.702,0,1.041,0.381,1.041,0.939c0,0.415-0.208,0.934-1.067,0.934H90.099z"/>
<polyline fill="#ED1C2E" points="107.272,49.283 104.936,44.397 103.706,44.397 103.706,50.292 104.582,50.292 104.582,45.501 
	104.598,45.501 106.885,50.292 107.662,50.292 109.956,45.401 109.972,45.401 109.972,50.292 110.846,50.292 110.846,44.397 
	109.632,44.397 "/>
<path fill-rule="evenodd" clip-rule="evenodd" fill="#ED1C2E" d="M123.957,47.813h-2.237l1.104-2.609 M125.031,50.292h0.998
	l-2.666-5.895h-1l-2.666,5.895h0.941l0.75-1.719h2.889L125.031,50.292z"/>
<polyline fill="#ED1C2E" points="139.597,50.292 140.612,50.292 140.612,44.397 139.737,44.397 139.737,49.086 139.719,49.086 
	135.929,44.397 134.917,44.397 134.917,50.292 135.791,50.292 135.791,45.601 135.807,45.601 "/>
<path fill="#ED1C2E" d="M155.886,46.518c-0.148-1.767-1.775-2.271-2.956-2.271c-2.015,0-3.087,1.362-3.087,3.08
	c0,2.294,1.608,3.111,3.095,3.111c1.686,0,2.808-1.097,2.948-2.401h-0.876c-0.248,1.146-1.031,1.643-2.062,1.643
	c-1.629,0-2.231-1.148-2.231-2.263c0-1.61,0.884-2.41,2.279-2.41c1.238,0,1.884,0.693,2.014,1.511"/>
<polyline fill="#ED1C2E" points="165.142,50.292 169.965,50.292 169.965,49.531 166.018,49.531 166.018,47.624 169.766,47.624 
	169.766,46.863 166.018,46.863 166.018,45.155 169.881,45.155 169.881,44.397 165.142,44.397 "/>
<path fill-rule="evenodd" clip-rule="evenodd" fill="#ED1C2E" d="M190.214,50.292h3.485c1.279,0,1.866-0.86,1.866-1.702
	c0-0.853-0.438-1.297-1.114-1.454V47.12c0.477-0.176,0.858-0.529,0.858-1.247c0-0.925-0.563-1.476-1.817-1.476h-3.278
	 M191.091,46.831v-1.676h2.336c0.718,0,1.007,0.313,1.007,0.851c0,0.472-0.313,0.825-0.958,0.825H191.091z M191.091,49.531v-1.939
	h2.441c0.893,0,1.157,0.478,1.157,0.939c0,0.504-0.256,1-1.232,1H191.091z"/>
<path fill-rule="evenodd" clip-rule="evenodd" fill="#ED1C2E" d="M204.921,50.292h0.874v-2.503h2.288
	c0.724,0,1.081,0.323,1.139,1.378c0.042,0.71,0.042,0.958,0.181,1.125h0.925c-0.197-0.232-0.231-0.507-0.28-1.604
	c-0.034-0.693-0.338-1.18-0.858-1.253v-0.018c0.643-0.206,0.99-0.734,0.99-1.452c0-0.752-0.429-1.567-1.61-1.567h-3.647
	 M205.795,47.028v-1.873h2.469c0.701,0,1.039,0.381,1.039,0.939c0,0.415-0.203,0.934-1.063,0.934H205.795z"/>
<path fill-rule="evenodd" clip-rule="evenodd" fill="#ED1C2E" d="M222.995,47.813h-2.239l1.108-2.609 M224.066,50.292h1
	l-2.667-5.895h-0.997l-2.667,5.895h0.941l0.75-1.719h2.892L224.066,50.292z"/>
<polyline fill="#ED1C2E" points="238.312,50.292 239.516,50.292 236.562,46.839 239.361,44.397 238.121,44.397 234.827,47.359 
	234.827,44.397 233.952,44.397 233.952,50.292 234.827,50.292 234.827,48.366 235.902,47.417 "/>
<polyline fill="#ED1C2E" points="248.436,50.292 253.259,50.292 253.259,49.531 249.31,49.531 249.31,47.624 253.058,47.624 
	253.058,46.863 249.31,46.863 249.31,45.155 253.175,45.155 253.175,44.397 248.436,44.397 "/>
<path fill="#ED1C2E" d="M261.996,48.35c0,1.627,1.376,2.089,2.706,2.089c1.188,0,2.535-0.43,2.535-1.932
	c0-1.206-1.313-1.428-1.777-1.509l-1.443-0.25c-0.728-0.125-0.966-0.413-0.966-0.775c0-0.693,0.726-0.966,1.373-0.966
	c1.41,0,1.673,0.627,1.748,1.088h0.877c-0.084-1.419-1.332-1.848-2.512-1.848c-1.513,0-2.36,0.718-2.36,1.791
	c0,1.148,1.047,1.427,1.751,1.543l1.335,0.224c0.678,0.116,1.099,0.34,1.099,0.875c0,0.646-0.661,1-1.595,1
	c-0.891,0-1.881-0.274-1.896-1.33"/>
<polyline fill="#0060A9" points="179.319,24.737 180.734,16.978 186.904,16.978 188.199,9.827 182.03,9.827 183.317,2.729 
	172.547,4.915 171.658,9.827 167.618,9.827 166.323,16.978 170.363,16.978 168.997,24.737 "/>
<path fill-rule="evenodd" clip-rule="evenodd" fill="#0060A9" d="M200.002,20.091h8.953c0.583-3.223-0.714-4.805-3.333-4.805
	C202.674,15.286,200.71,17.688,200.002,20.091 M218.155,24.743h-29.291c0.016-0.433,0.079-0.875,0.16-1.324
	c1.486-8.186,7.39-14.247,17.486-14.247c9.008,0,13.625,4.64,12.202,12.5L218.155,24.743z"/>
<path fill="#0060A9" d="M231.915,24.743c0.021-0.419,0.075-0.854,0.158-1.324c0.722-3.985,3.406-6.441,7.719-6.441
	c2.347,0,4.62,0.709,6.883,1.474l0.455-8.243c-2.653-0.708-5.543-1.037-9.473-1.037c-10.045,0-14.632,6.934-15.896,13.92
	c-0.102,0.563-0.183,1.122-0.207,1.651"/>
<g>
	<path fill="#0060A8" d="M12.224,24.737c-0.627-1.737-0.762-3.756-0.383-5.848c0.878-4.857,5.362-10.917,14.207-10.917
		c2.945,0,5.667,0.653,8.357,1.472l0.66-8.461C31.998,0.437,28.746,0,25.581,0C12.643,0,2.571,6.771,0.387,18.834
		c-0.389,2.147-0.487,4.099-0.286,5.903"/>
</g>
<path fill="#0060A8" d="M64.762,24.737l1.478-8.306c0.535-2.948-0.596-7.259-10.203-7.259c-4.586,0-9.027,0.709-13.461,1.691
	l-1.972,6.661c3.731-1.312,7.943-2.568,11.766-2.568c1.474,0,3.369,0.384,3.044,2.186c-0.722,3.979-12.465,2.403-17.764,7.595
	C48.23,24.737,54.18,24.737,64.762,24.737"/>
<path fill="#0060A9" d="M81.752,24.737c0.931-5.13,4.386-7.05,7.661-7.05c0.929,0,1.863,0.272,2.796,0.545l0.828-8.788
	c-0.671-0.22-1.478-0.272-2.188-0.272c-3.058,0-5.246,1.527-7.277,3.713l-0.09-0.112l0.533-2.946h-9.937
	c0,0-2.438,13.456-2.67,14.91"/>
<path fill="#0060A9" d="M125.982,24.737c0,0,0.153-0.873,0.234-1.318c1.753-9.66-3.095-14.247-11.5-14.247
	c-2.184,0-4.311,0.272-6.582,0.764l1.68-9.28h-10.37l-4.365,24.081c0,0,6.354,0,10.417,0c0.019-0.216,0.031-0.401,0.067-0.608
	l1.249-6.877c1.269-0.384,2.737-0.657,4.158-0.657c3.711,0,5.659,2.511,4.878,6.824c-0.077,0.415-0.181,0.846-0.297,1.318"/>
<path fill="#0060A9" d="M261.365,24.743c1.729-5.589,4.865-7.056,7.281-7.056c3.275,0,3.922,2.457,3.487,4.86l-0.396,2.196h10.376
	l1.104-6.126c1.268-6.988-2.982-9.444-8.877-9.444c-4.095,0-7.788,1.092-11.039,4.587l-0.089-0.112l2.353-12.991h-10.372
	c0,0-4.331,24.095-4.325,24.086"/>
<path fill="#0060A9" d="M0.933,28.145c2.265,6.22,8.701,9.577,17.812,9.577c2.076,0,6.651-0.545,9.975-0.819l2.545-8.623
	c-3.25,0.764-6.598,1.472-11.075,1.472c-2.361,0-4.191-0.596-5.537-1.606"/>
<path fill="#0060A9" d="M35.57,28.145c-0.117,0.372-0.25,0.76-0.324,1.171c-0.949,5.24,2.409,8.406,8.959,8.406
	c1.42,0,2.932-0.22,4.373-0.327l2.604-5.952c-0.987,0.33-1.945,0.492-2.927,0.492c-1.583,0-3.021-0.492-2.716-2.184
	c0.113-0.628,0.454-1.153,0.944-1.606"/>
<path fill="#0060A9" d="M53.783,28.145l-1.653,8.922h10.373c0,0,0.962-5.312,1.627-8.922"/>
<polyline fill="#0060A9" points="70.798,28.145 69.146,37.067 79.517,37.067 81.134,28.145 "/>
<path fill="#0060A9" d="M113.825,28.145c-0.984,1.242-2.351,2.153-4.195,2.153c-1.806,0-2.936-0.919-3.558-2.153H94.499
	l-1.651,8.922h9.825l0.604-3.329l0.089,0.108c1.663,2.566,4.321,3.875,7.922,3.875c6.783,0,11.238-4.388,13.517-9.577"/>
<path fill="#0060A9" d="M168.374,28.145l-0.425,2.153c-1.088,6.002,2.531,7.423,7.771,7.423c2.403,0,4.797-0.272,7.2-0.872
	l2.541-7.698c-1.453,0.492-2.704,0.765-4.016,0.765c-1.629,0-2.34-0.63-2.499-1.771"/>
<path fill="#0060A9" d="M188.819,28.145c0.451,5.76,4.352,9.577,13.499,9.577c4.258,0,7.492-0.382,10.613-1.037l2.422-7.641
	c-3.161,0.873-6.549,1.802-9.77,1.802c-2.529,0-5.051-0.781-6.067-2.7"/>
<path fill="#0060A9" d="M221.494,28.145c0.537,6.423,5.09,9.577,12.3,9.577c2.73,0,5.463-0.327,8.204-0.979l2.649-8.3
	c-2.43,0.765-4.852,1.474-7.145,1.474c-2.207,0-3.811-0.583-4.722-1.771"/>
<polyline fill="#0060A9" points="250.209,28.145 248.596,37.067 258.968,37.067 260.582,28.145 "/>
<polyline fill="#0060A9" points="271.147,28.145 269.503,37.067 279.876,37.067 281.501,28.145 "/>
<path fill-rule="evenodd" clip-rule="evenodd" fill="#0060A8" d="M147.645,16.651c-18.318,0-21.23,20.949-3.841,20.949
	c-12.049,0-13.959-6.974-13.959-11.425c0-4.357,2.365-17.194,18.863-17.194c14.009,0,8.292,20.947-3.823,20.947
	c3.709,0,6.228-2.572,6.97-6.667c0.702-3.877-0.5-6.612-4.212-6.612"/>
<path fill-rule="evenodd" clip-rule="evenodd" fill="#0060A8" d="M144.798,29.924c18.318,0,21.23-20.951,3.843-20.951
	c12.047,0,13.958,6.976,13.958,11.425c0,4.357-2.364,17.196-18.865,17.196c-14.007,0-8.292-20.949,3.823-20.949
	c-3.709,0-6.228,2.574-6.97,6.669c-0.702,3.873,0.5,6.61,4.213,6.61"/>
<polyline fill="#0060A8" points="292.021,9.215 292.021,10.089 289.539,10.089 289.539,16.588 288.53,16.588 288.53,10.089 
	286.05,10.089 286.05,9.215 "/>
<path fill="#0060A8" d="M292.92,9.215h1.434l2.114,6.234l2.106-6.234H300v7.373h-0.956v-4.352c0-0.15,0.005-0.4,0.013-0.748
	c0.01-0.348,0.014-0.722,0.014-1.119l-2.112,6.218h-0.992l-2.116-6.218v0.226c0,0.179,0.004,0.455,0.012,0.825
	c0.011,0.37,0.015,0.641,0.015,0.815v4.352h-0.956"/>
<g>
</g>
<g>
</g>
<g>
</g>
<g>
</g>
<g>
</g>
</svg>
