<?xml version="1.0" encoding="utf-8"?>
<!-- Generator: Adobe Illustrator 16.0.0, SVG Export Plug-In . SVG Version: 6.00 Build 0)  -->
<!DOCTYPE svg PUBLIC "-//W3C//DTD SVG 1.1//EN" "http://www.w3.org/Graphics/SVG/1.1/DTD/svg11.dtd">
<svg version="1.1" id="Layer_1" xmlns="http://www.w3.org/2000/svg" xmlns:xlink="http://www.w3.org/1999/xlink" x="0px" y="0px"
	 width="292.818px" height="15.072px" viewBox="0 0 292.818 15.072" enable-background="new 0 0 292.818 15.072"
	 xml:space="preserve">
<g>
	<linearGradient id="SVGID_1_" gradientUnits="userSpaceOnUse" x1="6.2954" y1="0.3433" x2="6.2954" y2="14.749">
		<stop  offset="0" style="stop-color:#4083DA"/>
		<stop  offset="1" style="stop-color:#1E5A99"/>
	</linearGradient>
	<path fill="url(#SVGID_1_)" d="M0,3.006l0.565-2.663H12.59l-0.565,2.663H7.708L5.246,14.749H2.058L4.52,3.006H0z"/>
	<linearGradient id="SVGID_2_" gradientUnits="userSpaceOnUse" x1="18.7944" y1="0.3433" x2="18.7944" y2="14.749">
		<stop  offset="0" style="stop-color:#4083DA"/>
		<stop  offset="1" style="stop-color:#1E5A99"/>
	</linearGradient>
	<path fill="url(#SVGID_2_)" d="M17.392,0.343l-1.17,5.528h5.831l1.17-5.528h3.188l-3.047,14.406h-3.188l1.312-6.214h-5.831
		l-1.312,6.214h-3.167l3.026-14.406H17.392z"/>
	<linearGradient id="SVGID_3_" gradientUnits="userSpaceOnUse" x1="33.1294" y1="0.3433" x2="33.1294" y2="14.749">
		<stop  offset="0" style="stop-color:#4083DA"/>
		<stop  offset="1" style="stop-color:#1E5A99"/>
	</linearGradient>
	<path fill="url(#SVGID_3_)" d="M40.131,0.343l-0.545,2.663h-7.828l-0.646,3.087h7.244l-0.525,2.461h-7.243l-0.747,3.531h7.95
		l-0.565,2.663H26.128l3.006-14.406H40.131z"/>
	<linearGradient id="SVGID_4_" gradientUnits="userSpaceOnUse" x1="52.8218" y1="0" x2="52.8218" y2="15.0718">
		<stop  offset="0" style="stop-color:#4083DA"/>
		<stop  offset="1" style="stop-color:#1E5A99"/>
	</linearGradient>
	<path fill="url(#SVGID_4_)" d="M55.757,3.339c-0.478-0.451-1.1-0.676-1.867-0.676c-0.807,0-1.51,0.185-2.108,0.555
		c-0.599,0.37-1.089,0.847-1.473,1.433c-0.383,0.585-0.669,1.238-0.857,1.957c-0.188,0.72-0.283,1.422-0.283,2.108
		c0,0.498,0.064,0.968,0.192,1.412c0.127,0.444,0.323,0.837,0.585,1.181c0.262,0.343,0.599,0.615,1.009,0.817
		s0.905,0.303,1.483,0.303c0.431,0,0.837-0.077,1.221-0.232s0.723-0.363,1.019-0.625s0.545-0.568,0.747-0.918
		s0.336-0.713,0.403-1.09h3.168c-0.323,1.009-0.703,1.863-1.14,2.562c-0.437,0.7-0.928,1.268-1.473,1.705
		c-0.545,0.437-1.15,0.753-1.816,0.948c-0.666,0.195-1.389,0.292-2.169,0.292c-2.045,0-3.622-0.545-4.731-1.634
		s-1.665-2.663-1.665-4.721c0-1.17,0.182-2.28,0.545-3.329c0.363-1.049,0.884-1.974,1.563-2.774c0.679-0.8,1.506-1.436,2.481-1.907
		C51.567,0.235,52.66,0,53.871,0c0.834,0,1.607,0.115,2.32,0.343s1.328,0.568,1.846,1.019c0.518,0.451,0.918,1.009,1.201,1.675
		c0.282,0.666,0.417,1.436,0.403,2.31h-3.167C56.474,4.459,56.234,3.79,55.757,3.339z"/>
	<linearGradient id="SVGID_5_" gradientUnits="userSpaceOnUse" x1="68.085" y1="0" x2="68.085" y2="15.0718">
		<stop  offset="0" style="stop-color:#4083DA"/>
		<stop  offset="1" style="stop-color:#1E5A99"/>
	</linearGradient>
	<path fill="url(#SVGID_5_)" d="M61.498,5.387c0.363-1.049,0.884-1.974,1.563-2.774c0.679-0.8,1.506-1.436,2.481-1.907
		C66.518,0.235,67.611,0,68.821,0c0.969,0,1.85,0.131,2.643,0.394s1.466,0.656,2.018,1.18c0.552,0.525,0.979,1.17,1.281,1.937
		s0.454,1.654,0.454,2.663c0,1.184-0.175,2.314-0.524,3.39c-0.35,1.077-0.858,2.025-1.523,2.845c-0.666,0.82-1.486,1.47-2.461,1.947
		c-0.976,0.478-2.095,0.716-3.359,0.716c-2.045,0-3.622-0.545-4.731-1.634s-1.665-2.663-1.665-4.721
		C60.953,7.546,61.134,6.437,61.498,5.387z M64.312,10.128c0.127,0.444,0.323,0.837,0.585,1.181
		c0.262,0.343,0.599,0.615,1.009,0.817s0.905,0.303,1.483,0.303c0.78,0,1.459-0.185,2.038-0.555c0.578-0.37,1.062-0.848,1.453-1.433
		s0.683-1.234,0.877-1.947c0.195-0.712,0.293-1.412,0.293-2.098c0-0.511-0.058-0.992-0.172-1.442s-0.299-0.844-0.555-1.181
		c-0.256-0.336-0.585-0.605-0.989-0.807c-0.403-0.202-0.901-0.302-1.493-0.302c-0.807,0-1.51,0.185-2.108,0.555
		c-0.599,0.37-1.089,0.847-1.473,1.433c-0.383,0.585-0.669,1.238-0.857,1.957c-0.188,0.72-0.283,1.422-0.283,2.108
		C64.12,9.214,64.184,9.685,64.312,10.128z"/>
	<linearGradient id="SVGID_6_" gradientUnits="userSpaceOnUse" x1="83.4492" y1="0.3433" x2="83.4492" y2="14.749">
		<stop  offset="0" style="stop-color:#4083DA"/>
		<stop  offset="1" style="stop-color:#1E5A99"/>
	</linearGradient>
	<path fill="url(#SVGID_6_)" d="M82.138,0.343l3.915,10.25h0.04l2.058-10.25h2.905l-3.046,14.406h-3.168L80.887,4.641h-0.04
		l-2.058,10.108h-2.946l3.026-14.406H82.138z"/>
	<linearGradient id="SVGID_7_" gradientUnits="userSpaceOnUse" x1="98.2388" y1="0.3433" x2="98.2388" y2="14.749">
		<stop  offset="0" style="stop-color:#4083DA"/>
		<stop  offset="1" style="stop-color:#1E5A99"/>
	</linearGradient>
	<path fill="url(#SVGID_7_)" d="M91.943,3.006l0.565-2.663h12.025l-0.565,2.663h-4.318l-2.461,11.743h-3.188l2.461-11.743H91.943z"
		/>
	<linearGradient id="SVGID_8_" gradientUnits="userSpaceOnUse" x1="106.228" y1="0.3433" x2="106.228" y2="14.749">
		<stop  offset="0" style="stop-color:#4083DA"/>
		<stop  offset="1" style="stop-color:#1E5A99"/>
	</linearGradient>
	<path fill="url(#SVGID_8_)" d="M109.335,0.343l-3.047,14.406h-3.167l3.026-14.406H109.335z"/>
	<linearGradient id="SVGID_9_" gradientUnits="userSpaceOnUse" x1="116.6992" y1="0.3433" x2="116.6992" y2="14.749">
		<stop  offset="0" style="stop-color:#4083DA"/>
		<stop  offset="1" style="stop-color:#1E5A99"/>
	</linearGradient>
	<path fill="url(#SVGID_9_)" d="M115.388,0.343l3.915,10.25h0.04l2.058-10.25h2.905l-3.046,14.406h-3.168l-3.955-10.108h-0.04
		l-2.058,10.108h-2.946l3.026-14.406H115.388z"/>
	<linearGradient id="SVGID_10_" gradientUnits="userSpaceOnUse" x1="132.0532" y1="0.3433" x2="132.0532" y2="15.0718">
		<stop  offset="0" style="stop-color:#4083DA"/>
		<stop  offset="1" style="stop-color:#1E5A99"/>
	</linearGradient>
	<path fill="url(#SVGID_10_)" d="M136.664,11.46c-0.33,0.793-0.763,1.456-1.301,1.987s-1.197,0.935-1.977,1.21
		c-0.78,0.275-1.729,0.414-2.845,0.414c-0.699,0-1.389-0.074-2.068-0.222c-0.679-0.148-1.285-0.387-1.816-0.716
		s-0.962-0.767-1.291-1.312c-0.33-0.545-0.495-1.214-0.495-2.008c0-0.363,0.034-0.723,0.101-1.079
		c0.067-0.356,0.134-0.709,0.202-1.06l1.755-8.333h3.167l-1.755,8.333c-0.027,0.121-0.057,0.259-0.09,0.414
		c-0.034,0.155-0.068,0.32-0.101,0.495c-0.034,0.175-0.061,0.34-0.081,0.494c-0.021,0.155-0.03,0.292-0.03,0.414
		c0,0.175,0.037,0.377,0.111,0.605c0.074,0.229,0.212,0.44,0.414,0.635c0.202,0.195,0.477,0.36,0.827,0.495
		c0.35,0.135,0.8,0.202,1.352,0.202c0.646,0,1.17-0.084,1.574-0.252c0.403-0.168,0.729-0.404,0.979-0.707
		c0.249-0.303,0.444-0.676,0.585-1.12s0.272-0.935,0.394-1.473l1.795-8.535h3.168l-1.755,8.373
		C137.266,9.752,136.993,10.667,136.664,11.46z"/>
	<linearGradient id="SVGID_11_" gradientUnits="userSpaceOnUse" x1="147.0034" y1="0.3433" x2="147.0034" y2="15.0718">
		<stop  offset="0" style="stop-color:#4083DA"/>
		<stop  offset="1" style="stop-color:#1E5A99"/>
	</linearGradient>
	<path fill="url(#SVGID_11_)" d="M151.614,11.46c-0.33,0.793-0.764,1.456-1.301,1.987c-0.539,0.531-1.197,0.935-1.979,1.21
		c-0.779,0.275-1.728,0.414-2.844,0.414c-0.699,0-1.389-0.074-2.068-0.222c-0.679-0.148-1.285-0.387-1.816-0.716
		s-0.962-0.767-1.291-1.312c-0.33-0.545-0.495-1.214-0.495-2.008c0-0.363,0.034-0.723,0.101-1.079
		c0.067-0.356,0.134-0.709,0.202-1.06l1.755-8.333h3.167l-1.755,8.333c-0.027,0.121-0.057,0.259-0.09,0.414
		c-0.034,0.155-0.068,0.32-0.101,0.495c-0.034,0.175-0.061,0.34-0.081,0.494c-0.021,0.155-0.03,0.292-0.03,0.414
		c0,0.175,0.037,0.377,0.111,0.605c0.074,0.229,0.212,0.44,0.414,0.635c0.202,0.195,0.477,0.36,0.827,0.495
		c0.35,0.135,0.8,0.202,1.352,0.202c0.646,0,1.17-0.084,1.574-0.252c0.403-0.168,0.729-0.404,0.979-0.707
		c0.248-0.303,0.443-0.676,0.584-1.12c0.143-0.444,0.273-0.935,0.395-1.473l1.795-8.535h3.168l-1.756,8.373
		C152.216,9.752,151.944,10.667,151.614,11.46z"/>
	<linearGradient id="SVGID_12_" gradientUnits="userSpaceOnUse" x1="163.2051" y1="0.3433" x2="163.2051" y2="14.749">
		<stop  offset="0" style="stop-color:#4083DA"/>
		<stop  offset="1" style="stop-color:#1E5A99"/>
	</linearGradient>
	<path fill="url(#SVGID_12_)" d="M161.349,0.343l1.111,10.431h0.039l5.549-10.431h4.418l-3.045,14.406h-2.967l2.623-11.46h-0.041
		l-6.092,11.46h-2.422l-1.393-11.46h-0.041l-2.158,11.46h-2.986l3.027-14.406H161.349z"/>
	<linearGradient id="SVGID_13_" gradientUnits="userSpaceOnUse" x1="185.6523" y1="0" x2="185.6523" y2="15.0718">
		<stop  offset="0" style="stop-color:#4083DA"/>
		<stop  offset="1" style="stop-color:#1E5A99"/>
	</linearGradient>
	<path fill="url(#SVGID_13_)" d="M188.688,13.276c-0.471,0.646-1.021,1.106-1.654,1.382s-1.291,0.414-1.977,0.414
		c-2.045,0-3.623-0.545-4.732-1.634s-1.664-2.663-1.664-4.721c0-1.17,0.182-2.28,0.545-3.329s0.885-1.974,1.562-2.774
		c0.68-0.8,1.508-1.436,2.482-1.907C184.226,0.235,185.319,0,186.53,0c0.848,0,1.641,0.101,2.381,0.303
		c0.738,0.202,1.385,0.511,1.936,0.928c0.553,0.417,0.99,0.945,1.312,1.583c0.322,0.639,0.484,1.402,0.484,2.29h-3.168
		c-0.041-0.888-0.316-1.516-0.828-1.886c-0.51-0.37-1.209-0.555-2.098-0.555c-0.807,0-1.51,0.185-2.107,0.555
		c-0.6,0.37-1.09,0.847-1.475,1.433c-0.383,0.585-0.668,1.238-0.857,1.957c-0.188,0.72-0.281,1.422-0.281,2.108
		c0,0.498,0.062,0.968,0.191,1.412c0.127,0.444,0.322,0.837,0.586,1.181c0.262,0.343,0.598,0.615,1.008,0.817
		s0.904,0.303,1.482,0.303c0.605,0,1.127-0.077,1.564-0.232s0.814-0.366,1.129-0.636c0.316-0.269,0.578-0.595,0.787-0.979
		s0.381-0.804,0.516-1.261h-3.33l0.504-2.361h6.115l-1.656,7.788h-1.996v-1.473H188.688z"/>
	<linearGradient id="SVGID_14_" gradientUnits="userSpaceOnUse" x1="200.2588" y1="0.3413" x2="200.2588" y2="14.749">
		<stop  offset="0" style="stop-color:#4083DA"/>
		<stop  offset="1" style="stop-color:#1E5A99"/>
	</linearGradient>
	<path fill="url(#SVGID_14_)" d="M203.054,0.343c0.646-0.013,1.234,0.043,1.766,0.171s0.984,0.343,1.361,0.646
		s0.666,0.696,0.869,1.18c0.201,0.484,0.301,1.077,0.301,1.776c0,0.484-0.08,0.948-0.242,1.392c-0.16,0.444-0.389,0.837-0.686,1.18
		c-0.295,0.343-0.645,0.629-1.049,0.857c-0.404,0.229-0.848,0.377-1.332,0.444V8.03c0.592,0.188,0.988,0.515,1.191,0.979
		c0.201,0.464,0.303,0.985,0.303,1.564c0,0.323-0.018,0.709-0.051,1.16c-0.033,0.451-0.051,0.898-0.051,1.342
		c0,0.323,0.014,0.629,0.041,0.918c0.025,0.29,0.08,0.542,0.16,0.757h-3.086c-0.041-0.175-0.074-0.339-0.102-0.494
		s-0.039-0.313-0.039-0.474c0-0.484,0.025-0.972,0.08-1.463c0.053-0.491,0.08-0.979,0.08-1.463c0-0.35-0.051-0.636-0.15-0.857
		c-0.102-0.222-0.242-0.4-0.424-0.535c-0.182-0.134-0.4-0.225-0.656-0.272c-0.256-0.047-0.537-0.071-0.848-0.071h-2.986
		l-1.189,5.629h-3.148l3.006-14.406H203.054z M200.915,6.86c0.43,0,0.84-0.043,1.23-0.131s0.736-0.222,1.039-0.404
		s0.545-0.417,0.727-0.706c0.182-0.289,0.273-0.635,0.273-1.039c0-0.39-0.064-0.703-0.193-0.938
		c-0.127-0.235-0.299-0.414-0.514-0.535s-0.465-0.202-0.746-0.242c-0.283-0.041-0.578-0.061-0.889-0.061h-3.006l-0.848,4.055
		H200.915z"/>
	<linearGradient id="SVGID_15_" gradientUnits="userSpaceOnUse" x1="215.6738" y1="0" x2="215.6738" y2="15.0718">
		<stop  offset="0" style="stop-color:#4083DA"/>
		<stop  offset="1" style="stop-color:#1E5A99"/>
	</linearGradient>
	<path fill="url(#SVGID_15_)" d="M209.087,5.387c0.363-1.049,0.885-1.974,1.562-2.774c0.68-0.8,1.508-1.436,2.482-1.907
		C214.106,0.235,215.2,0,216.411,0c0.969,0,1.85,0.131,2.643,0.394s1.467,0.656,2.018,1.18c0.551,0.525,0.979,1.17,1.281,1.937
		s0.453,1.654,0.453,2.663c0,1.184-0.174,2.314-0.523,3.39c-0.35,1.077-0.857,2.025-1.523,2.845s-1.486,1.47-2.461,1.947
		c-0.977,0.478-2.096,0.716-3.359,0.716c-2.045,0-3.623-0.545-4.732-1.634s-1.664-2.663-1.664-4.721
		C208.542,7.546,208.724,6.437,209.087,5.387z M211.901,10.128c0.127,0.444,0.322,0.837,0.586,1.181
		c0.262,0.343,0.598,0.615,1.008,0.817s0.904,0.303,1.482,0.303c0.781,0,1.461-0.185,2.039-0.555s1.062-0.848,1.451-1.433
		c0.391-0.585,0.684-1.234,0.879-1.947c0.195-0.712,0.293-1.412,0.293-2.098c0-0.511-0.059-0.992-0.172-1.442
		c-0.115-0.451-0.301-0.844-0.555-1.181c-0.256-0.336-0.586-0.605-0.988-0.807c-0.404-0.202-0.902-0.302-1.494-0.302
		c-0.807,0-1.51,0.185-2.107,0.555c-0.6,0.37-1.09,0.847-1.475,1.433c-0.383,0.585-0.668,1.238-0.857,1.957
		c-0.188,0.72-0.281,1.422-0.281,2.108C211.71,9.214,211.772,9.685,211.901,10.128z"/>
	<linearGradient id="SVGID_16_" gradientUnits="userSpaceOnUse" x1="231.4414" y1="0.3433" x2="231.4414" y2="15.0718">
		<stop  offset="0" style="stop-color:#4083DA"/>
		<stop  offset="1" style="stop-color:#1E5A99"/>
	</linearGradient>
	<path fill="url(#SVGID_16_)" d="M236.052,11.46c-0.33,0.793-0.764,1.456-1.301,1.987c-0.539,0.531-1.197,0.935-1.979,1.21
		c-0.779,0.275-1.729,0.414-2.844,0.414c-0.701,0-1.391-0.074-2.068-0.222c-0.68-0.148-1.285-0.387-1.816-0.716
		s-0.961-0.767-1.291-1.312c-0.33-0.545-0.494-1.214-0.494-2.008c0-0.363,0.033-0.723,0.1-1.079c0.068-0.356,0.135-0.709,0.203-1.06
		l1.754-8.333h3.168l-1.754,8.333c-0.027,0.121-0.059,0.259-0.092,0.414c-0.033,0.155-0.066,0.32-0.102,0.495
		c-0.033,0.175-0.061,0.34-0.08,0.494c-0.02,0.155-0.029,0.292-0.029,0.414c0,0.175,0.037,0.377,0.109,0.605
		c0.074,0.229,0.213,0.44,0.414,0.635c0.203,0.195,0.479,0.36,0.828,0.495c0.35,0.135,0.799,0.202,1.352,0.202
		c0.645,0,1.17-0.084,1.574-0.252c0.402-0.168,0.729-0.404,0.979-0.707c0.248-0.303,0.443-0.676,0.584-1.12
		c0.143-0.444,0.273-0.935,0.395-1.473l1.795-8.535h3.168l-1.756,8.373C236.653,9.752,236.382,10.667,236.052,11.46z"/>
	<linearGradient id="SVGID_17_" gradientUnits="userSpaceOnUse" x1="245.2627" y1="0.3433" x2="245.2627" y2="14.749">
		<stop  offset="0" style="stop-color:#4083DA"/>
		<stop  offset="1" style="stop-color:#1E5A99"/>
	</linearGradient>
	<path fill="url(#SVGID_17_)" d="M247.14,0.343c0.727,0,1.395,0.07,2.006,0.212c0.613,0.141,1.141,0.373,1.584,0.696
		c0.445,0.323,0.791,0.753,1.039,1.292c0.25,0.538,0.375,1.204,0.375,1.997c0,0.794-0.152,1.503-0.455,2.129
		s-0.713,1.153-1.23,1.584s-1.113,0.76-1.785,0.988c-0.674,0.229-1.387,0.343-2.139,0.343h-3.914l-1.09,5.165h-3.148l2.986-14.406
		H247.14z M246.372,7.123c0.807,0,1.443-0.205,1.906-0.616c0.465-0.41,0.697-1.045,0.697-1.907c0-0.363-0.064-0.662-0.191-0.897
		c-0.129-0.235-0.301-0.417-0.516-0.545s-0.453-0.218-0.717-0.272c-0.262-0.054-0.533-0.081-0.816-0.081h-2.703l-0.889,4.318
		H246.372z"/>
	<linearGradient id="SVGID_18_" gradientUnits="userSpaceOnUse" x1="260.5557" y1="0.3433" x2="260.5557" y2="14.749">
		<stop  offset="0" style="stop-color:#4083DA"/>
		<stop  offset="1" style="stop-color:#1E5A99"/>
	</linearGradient>
	<path fill="url(#SVGID_18_)" d="M263.663,0.343l-3.047,14.406h-3.168l3.027-14.406H263.663z"/>
	<linearGradient id="SVGID_19_" gradientUnits="userSpaceOnUse" x1="271.0273" y1="0.3433" x2="271.0273" y2="14.749">
		<stop  offset="0" style="stop-color:#4083DA"/>
		<stop  offset="1" style="stop-color:#1E5A99"/>
	</linearGradient>
	<path fill="url(#SVGID_19_)" d="M269.716,0.343l3.914,10.25h0.041l2.057-10.25h2.906l-3.047,14.406h-3.168l-3.955-10.108h-0.039
		l-2.059,10.108h-2.945l3.025-14.406H269.716z"/>
	<linearGradient id="SVGID_20_" gradientUnits="userSpaceOnUse" x1="285.999" y1="0" x2="285.999" y2="15.0718">
		<stop  offset="0" style="stop-color:#4083DA"/>
		<stop  offset="1" style="stop-color:#1E5A99"/>
	</linearGradient>
	<path fill="url(#SVGID_20_)" d="M288.935,3.339c-0.479-0.451-1.1-0.676-1.867-0.676c-0.807,0-1.51,0.185-2.107,0.555
		c-0.6,0.37-1.09,0.847-1.475,1.433c-0.383,0.585-0.668,1.238-0.857,1.957c-0.188,0.72-0.281,1.422-0.281,2.108
		c0,0.498,0.062,0.968,0.191,1.412c0.127,0.444,0.322,0.837,0.586,1.181c0.262,0.343,0.598,0.615,1.008,0.817
		s0.904,0.303,1.482,0.303c0.432,0,0.838-0.077,1.221-0.232c0.385-0.155,0.723-0.363,1.02-0.625
		c0.295-0.262,0.545-0.568,0.746-0.918c0.203-0.35,0.336-0.713,0.404-1.09h3.168c-0.324,1.009-0.703,1.863-1.141,2.562
		c-0.438,0.7-0.928,1.268-1.473,1.705s-1.15,0.753-1.816,0.948s-1.389,0.292-2.168,0.292c-2.045,0-3.623-0.545-4.732-1.634
		s-1.664-2.663-1.664-4.721c0-1.17,0.182-2.28,0.545-3.329s0.885-1.974,1.562-2.774c0.68-0.8,1.508-1.436,2.482-1.907
		C284.743,0.235,285.837,0,287.048,0c0.834,0,1.607,0.115,2.32,0.343s1.328,0.568,1.846,1.019c0.518,0.451,0.918,1.009,1.201,1.675
		c0.281,0.666,0.416,1.436,0.402,2.31h-3.168C289.649,4.459,289.411,3.79,288.935,3.339z"/>
</g>
</svg>
