<?xml version="1.0" encoding="utf-8"?>
<!-- Generator: Adobe Illustrator 16.0.0, SVG Export Plug-In . SVG Version: 6.00 Build 0)  -->
<!DOCTYPE svg PUBLIC "-//W3C//DTD SVG 1.1//EN" "http://www.w3.org/Graphics/SVG/1.1/DTD/svg11.dtd">
<svg version="1.1" id="Layer_1" xmlns="http://www.w3.org/2000/svg" xmlns:xlink="http://www.w3.org/1999/xlink" x="0px" y="0px"
	 width="247.423px" height="47.535px" viewBox="0 0 247.423 47.535" enable-background="new 0 0 247.423 47.535"
	 xml:space="preserve">
<g>
	<path fill="#ED1C24" d="M0,46.273L13.053,5.467l-2.517-4.646l11.393,0.005c11.544,0,20.935-0.594,27.11,5.052
		c0.49,0.45,0.949,1.048,1.361,1.885c0.521,1.056,0.861,1.819,1.05,2.907c1.312,7.554-2.271,15.843-4.822,20.698
		c-1.309,2.489-3.241,4.779-5.16,6.759c-0.291,0.301-0.65,0.663-0.98,0.919c-3.399,2.626-7.127,4.91-12.058,6.022
		c-3.502,0.788-7.089,0.895-11.23,1.205H0z M13.729,38.307c-0.196,0.676-0.151,1.335,0.177,1.822
		c0.172,0.256,0.465,0.502,0.794,0.588c0.917,0.239,2.388,0.089,3.351,0.03c5.645-0.354,9.659-0.837,12.995-3.646
		c1.255-1.056,2.266-2.526,3.146-3.734c2.696-3.696,8.942-19.38,5.145-24.284C37.391,6.57,31.46,5.938,27.033,6.216
		c-0.424,0.026-2.819,0.123-3.014,0.309L13.729,38.307z"/>
	<path fill="#ED1C24" d="M198.509,39.923c-0.559-1.246-1.078-4.144-0.912-5.88l0,0c0.12-2.715,0.569-5.491,1.47-8.291
		c0.401-1.244,0.896-2.713,1.382-3.968c2.12-5.474,5.347-11.289,9.261-14.789c1.236-1.106,1.551-1.345,1.551-1.345
		c4.689-3.453,9.637-5.002,17.5-5.593c2.433-0.185,5.066,0.103,7.232,0.44c13.199,2.058,12.96,12.145,9.202,23.638
		c-1.906,5.828-4.339,10.975-8.273,15.002c-0.389,0.397-0.762,0.845-1.193,1.197c-3.845,3.124-8.284,5.731-14.317,6.674
		C211.85,48.5,201.353,47.031,198.509,39.923L198.509,39.923z M228.025,5.672c-2.306,0.047-5.929,1.242-8.408,3.146
		c-2.041,1.567-3.495,3.602-4.821,6.232c-0.561,1.112-0.722,1.436-0.928,1.938c-0.827,2.021-1.339,3.262-2.041,5.412
		c-1.771,5.417-6.043,17.729,2.44,19.198c1.956,0.338,4.474,0.381,6.498-0.146c3.11-0.812,5.57-2.947,7.203-5.263
		c3.409-4.835,5.499-11.067,7.174-17.61c0.663-2.597,1.381-6.391,0.382-9.173c-0.563-1.566-1.806-2.558-3.381-3.146
		C231.137,5.885,229.599,5.64,228.025,5.672z"/>
	<path fill="#ED1C24" d="M138.209,46.538h-9.82l-12.465-33.31L105.34,46.421c-2.715,0-5.43,0-8.144,0l13.076-40.695l-1.962-4.728
		c4.929,0,9.858,0,14.788,0l11.789,31.751l10.053-31.862h8.208L138.209,46.538z"/>
	<g>
		<path fill="#ED1C24" d="M54.213,46.362l13.49-40.881L65.474,0.91l36.652,0.039l-1.93,5.576L78.401,6.542l-4.255,13.36
			l15.198,0.034l-1.851,5.551c-5.065,0-10.135,0-15.2,0c-0.834,2.778-1.723,5.407-2.617,8.085c-0.382,1.146-1.824,5.919-1.529,6.41
			c0.371,0.616,0.955,0.736,1.647,0.882h20.697l-1.675,5.498H54.213z"/>
	</g>
	<path fill="#ED1C24" d="M193.628,9.465c-1.066-0.462-2.447-1.168-3.675-1.646c-3.52-1.37-9.688-2.796-13.995-1.294
		c-1.483,0.517-2.752,1.672-3.352,3.087c-0.459,1.084-0.924,2.729-0.297,4.162c0.857,1.96,4.254,3.674,6.795,4.805
		c3.587,1.596,7.714,3.952,9.908,6.967c1.352,1.858,1.506,5.118,0.793,7.761c-0.292,1.083-0.599,1.724-0.919,2.37
		c-1.991,4.012-5.786,7.234-9.723,8.862c-6.239,2.578-14.731,3.298-22.873,2.028c-2.023-0.316-3.871-0.47-5.675-1.029
		c-0.128-0.041-0.459-0.188-0.617-0.265l2.734-8.291c0.996,0.401,1.843,1.059,2.764,1.529c1.256,0.641,2.65,1.25,3.999,1.734
		c5.219,1.875,13.395,2.22,16.613-1.758c0.706-0.874,1.072-1.531,1.408-2.848c0.594-2.32-0.306-3.917-1.557-5.066
		c-1.835-1.687-4.325-2.749-6.673-3.91c-2.175-1.076-3.56-1.773-5.765-3.396c-0.567-0.417-1.541-1.277-1.997-1.808
		c-0.606-0.703-1.122-1.408-1.47-2.205c-0.76-1.734-0.722-4.093-0.235-6.027c1.405-5.595,5.815-8.805,10.672-10.966
		c2.057-0.916,4.567-1.372,7.085-1.734c1.542-0.222,2.706-0.191,4.116-0.265c0.811-0.042,2.374,0.016,3.091,0.043
		c2.038,0.075,4.165,0.184,6.258,0.428c1.133,0.132,2.133,0.276,3.411,0.529c0.534,0.105,1.081,0.268,1.646,0.47L193.628,9.465z"/>
</g>
</svg>
