<?xml version="1.0" encoding="utf-8"?>
<!-- Generator: Adobe Illustrator 16.0.0, SVG Export Plug-In . SVG Version: 6.00 Build 0)  -->
<!DOCTYPE svg PUBLIC "-//W3C//DTD SVG 1.1//EN" "http://www.w3.org/Graphics/SVG/1.1/DTD/svg11.dtd">
<svg version="1.1" id="Layer_1" xmlns="http://www.w3.org/2000/svg" xmlns:xlink="http://www.w3.org/1999/xlink" x="0px" y="0px"
	 width="400px" height="400px" viewBox="0 0 400 400" enable-background="new 0 0 400 400" xml:space="preserve">
<g>
	<path fill="#231F20" d="M199.998,400C89.723,400,0,310.276,0,199.992C0,89.717,89.723,0,199.998,0
		c110.278,0,200,89.717,200,199.992C399.998,310.276,310.276,400,199.998,400z M199.998,11.847
		c-103.746,0-188.146,84.406-188.146,188.146c0,103.756,84.4,188.16,188.146,188.16c103.748,0,188.149-84.404,188.149-188.16
		C388.147,96.252,303.746,11.847,199.998,11.847z"/>
	<g>
		<g>
			<path fill="#231F20" d="M61.494,297.4l3.501,0.553c-0.466,2.691-0.265,4.984,1.12,7.278c1.212,2.004,2.895,2.713,4.301,1.866
				l0.049-0.029c1.318-0.802,1.586-1.969,0.302-5.875c-1.421-4.506-1.598-7.42,1.805-9.471l0.049-0.037
				c3.169-1.908,6.946-0.595,9.162,3.071c1.625,2.687,2.097,5.317,1.726,8.095L80,302.598c0.238-2.412-0.105-4.469-1.125-6.158
				c-1.145-1.896-2.792-2.416-4.003-1.683l-0.054,0.036c-1.421,0.858-1.55,2.082-0.259,6.121c1.416,4.479,1.239,7.359-1.817,9.204
				l-0.049,0.029c-3.458,2.093-7.158,0.611-9.497-3.263C61.489,304.063,60.852,300.809,61.494,297.4z"/>
			<path fill="#231F20" d="M88.679,310.974l-4.493-5.16l2.654-2.313l11.494,13.208l-2.646,2.307l-4.496-5.158l-13.618,11.864
				l-2.514-2.883L88.679,310.974z"/>
			<path fill="#231F20" d="M104.185,321.354l2.715,2.23l-6.465,22.81l-3.092-2.542l1.611-5.414l-7.881-6.479l-5.019,2.616
				l-3.005-2.471L104.185,321.354z M100.018,334.962l2.599-9.034l-8.34,4.315L100.018,334.962z"/>
			<path fill="#231F20" d="M116.272,334.63l-5.884-3.479l1.784-3.026l15.071,8.902l-1.787,3.027l-5.887-3.481l-9.186,15.547
				l-3.291-1.943L116.272,334.63z"/>
			<path fill="#231F20" d="M130.24,338.329l14.891,5.86l-1.242,3.156l-11.359-4.469l-2.055,5.227l10.072,3.956l-1.248,3.15
				l-10.066-3.957l-2.125,5.396l11.512,4.522l-1.248,3.163l-15.03-5.917L130.24,338.329z"/>
			<path fill="#231F20" d="M148.917,345.389l3.427,0.777l7.98,17.097l3.291-14.548l3.631,0.816l-4.754,21.041l-3.092-0.697
				l-8.219-17.594l-3.384,14.972l-3.634-0.823L148.917,345.389z"/>
			<path fill="#231F20" d="M182.128,351.118l3.777,0.287l-1.61,21.511l-3.777-0.278L182.128,351.118z"/>
			<path fill="#231F20" d="M190.236,370.143l2.326-2.678c2.036,1.814,4.082,2.866,6.767,2.902c2.344,0.043,3.838-1.019,3.863-2.654
				v-0.06c0.019-1.537-0.831-2.38-4.821-3.369c-4.572-1.18-7.138-2.575-7.08-6.552v-0.056c0.055-3.696,3.174-6.205,7.463-6.146
				c3.134,0.05,5.62,1.041,7.78,2.829l-2.075,2.84c-1.921-1.48-3.854-2.284-5.82-2.313c-2.216-0.03-3.531,1.091-3.549,2.509v0.06
				c-0.031,1.666,0.944,2.423,5.056,3.471c4.548,1.174,6.892,2.847,6.837,6.42v0.06c-0.053,4.039-3.27,6.39-7.793,6.324
				C195.889,373.68,192.793,372.493,190.236,370.143z"/>
			<path fill="#231F20" d="M211.246,351.673l3.78-0.323l1.53,18.059l11.302-0.962l0.29,3.441l-15.074,1.276L211.246,351.673z"/>
			<path fill="#231F20" d="M237.271,348.285l3.439-0.718l13.712,19.361l-3.932,0.813l-3.197-4.654l-9.991,2.062l-1.114,5.554
				l-3.812,0.797L237.271,348.285z M245.252,360.076l-5.403-7.699l-1.869,9.207L245.252,360.076z"/>
			<path fill="#231F20" d="M252.336,345.065l3.293-1.243l16.075,9.857l-5.274-13.947l3.489-1.319l7.63,20.176l-2.967,1.124
				l-16.554-10.148l5.429,14.354l-3.488,1.318L252.336,345.065z"/>
			<path fill="#231F20" d="M274.031,336.435l6.854-4.208c5.778-3.544,12.208-2.031,15.378,3.146l0.036,0.049
				c3.176,5.177,1.646,11.644-4.129,15.187l-6.855,4.212L274.031,336.435z M290.365,347.667c3.857-2.367,4.783-6.516,2.58-10.111
				l-0.036-0.057c-2.203-3.597-6.358-4.697-10.218-2.33l-3.62,2.221l7.664,12.505L290.365,347.667z"/>
			<path fill="#231F20" d="M299.469,318.859l2.367-2.6l18.808,1.508l-11.021-10.055l2.507-2.756l15.947,14.542l-2.139,2.344
				l-19.357-1.55l11.344,10.337l-2.512,2.764L299.469,318.859z"/>
			<path fill="#231F20" d="M329.172,302.502l-15.608,0.743l2.274-3.851l11.293-0.354L322,288.936l2.205-3.742l6.826,13.969
				l7.407,4.369l-1.94,3.287L329.172,302.502z"/>
		</g>
		<g>
			<path fill="#231F20" d="M51.806,96.846l5.357-6.608c3.163-3.908,7.384-4.566,10.757-1.835l0.049,0.042
				c3.762,3.042,3.281,7.649,0.289,11.339l-2.688,3.324l5.378,4.365l-2.387,2.95L51.806,96.846z M65.679,97.533
				c1.805-2.228,1.684-4.626-0.06-6.035l-0.049-0.043c-1.963-1.595-4.137-1.011-5.924,1.193l-2.773,3.421l6.03,4.888L65.679,97.533z
				"/>
			<path fill="#231F20" d="M73.819,87.245l-0.036-0.042c-3.973-4.597-3.756-11.506,1.266-15.838
				c5.013-4.328,11.792-3.555,15.764,1.042l0.036,0.049c3.973,4.59,3.747,11.509-1.266,15.837
				C84.57,92.624,77.792,91.842,73.819,87.245z M87.881,75.103l-0.036-0.048c-2.743-3.174-7.33-3.817-10.568-1.01
				c-3.245,2.797-3.27,7.339-0.526,10.513l0.036,0.043c2.743,3.171,7.326,3.814,10.568,1.01
				C90.594,82.814,90.625,78.269,87.881,75.103z"/>
			<path fill="#231F20" d="M88.415,60.514l3.598-1.969l12.19,11.585l-3.041-16.64l2.815-1.541l12.35,11.563l-3.148-16.516
				l3.495-1.902l3.807,22.679l-2.864,1.571l-12.087-11.08l2.773,16.16l-2.864,1.561L88.415,60.514z"/>
			<path fill="#231F20" d="M124.067,42.727l7.673-2.429c6.469-2.052,12.343,0.971,14.178,6.76l0.019,0.054
				c1.835,5.795-1.205,11.707-7.674,13.758l-7.667,2.435L124.067,42.727z M137.222,57.583c4.316-1.376,6.219-5.18,4.94-9.207
				l-0.019-0.058c-1.278-4.024-5.037-6.1-9.362-4.73l-4.058,1.288l4.447,13.986L137.222,57.583z"/>
			<path fill="#231F20" d="M149.836,35.285l15.733-2.859l0.606,3.336l-12.008,2.179l1.005,5.519l10.641-1.933l0.605,3.336
				l-10.647,1.932l1.041,5.698l12.157-2.204l0.604,3.336l-15.883,2.879L149.836,35.285z"/>
			<path fill="#231F20" d="M172.546,31.583l9.594-0.715c2.7-0.198,4.883,0.441,6.365,1.695c1.223,1.078,1.988,2.63,2.125,4.508
				l0.006,0.061c0.262,3.534-1.702,5.814-4.651,6.897l6.411,7.716l-4.454,0.325l-5.844-7.11l-4.73,0.359l0.551,7.49l-3.772,0.284
				L172.546,31.583z M182.648,41.551c2.709-0.201,4.326-1.738,4.161-3.923l-0.006-0.056c-0.17-2.306-1.92-3.445-4.718-3.241
				l-5.507,0.414l0.542,7.217L182.648,41.551z"/>
			<path fill="#231F20" d="M205.927,40.994l0.007-0.06c0.384-6.125,5.276-10.852,11.798-10.44c3.967,0.243,6.283,1.774,8.219,3.869
				l-2.602,2.654c-1.627-1.708-3.407-2.901-5.863-3.053c-4.124-0.261-7.317,2.944-7.576,7.154l-0.006,0.067
				c-0.263,4.212,2.505,7.84,6.629,8.097c2.647,0.165,4.404-0.807,6.354-2.411l2.279,2.611c-2.386,2.197-4.944,3.524-8.971,3.268
				C209.915,52.36,205.547,47.177,205.927,40.994z"/>
			<path fill="#231F20" d="M229.285,42.544l0.014-0.061c1.067-5.975,6.571-10.16,13.101-8.998c6.521,1.175,10.194,6.928,9.12,12.906
				l-0.007,0.067c-1.07,5.968-6.581,10.153-13.104,8.991C231.886,54.28,228.214,48.522,229.285,42.544z M247.583,45.816l0.013-0.061
				c0.739-4.13-1.652-8.097-5.874-8.849c-4.217-0.752-7.761,2.088-8.496,6.212l-0.013,0.061c-0.741,4.13,1.652,8.096,5.874,8.854
				C243.3,52.786,246.842,49.94,247.583,45.816z"/>
			<path fill="#231F20" d="M266.706,39.649l3.341,1.084l2.308,23.601l-3.806-1.241l-0.478-5.625l-9.702-3.156l-3.719,4.264
				l-3.692-1.199L266.706,39.649z M267.801,53.839l-0.887-9.356l-6.182,7.061L267.801,53.839z"/>
			<path fill="#231F20" d="M285.604,50.81l-6.182-2.918l1.494-3.177l15.826,7.472l-1.496,3.175l-6.189-2.922l-7.696,16.327
				l-3.458-1.628L285.604,50.81z"/>
			<path fill="#231F20" d="M302.367,55.595l3.246,1.969l-11.21,18.44l-3.238-1.973L302.367,55.595z"/>
			<path fill="#231F20" d="M312.845,62.039l2.742,2.191l-0.258,18.866l9.296-11.658l2.919,2.319l-13.451,16.867l-2.482-1.973
				l0.265-19.423l-9.561,12.001l-2.92-2.325L312.845,62.039z"/>
			<path fill="#231F20" d="M325.398,86.567l0.048-0.043c4.572-3.954,11.465-3.802,15.723,1.114c2.463,2.85,3.188,5.288,3.217,8.194
				l-3.752,0.055c-0.017-2.186-0.403-4.009-2.195-6.079c-2.607-3.01-7.221-3.017-10.338-0.317l-0.055,0.043
				c-3.354,2.901-3.913,7.263-1.022,10.593c1.324,1.537,3.026,2.521,4.646,2.87l3.048-2.639l-3.606-4.173l2.493-2.165l6.009,6.956
				l-6.855,5.932c-2.769-0.423-5.929-1.726-8.43-4.614C319.907,97.189,320.644,90.679,325.398,86.567z"/>
		</g>
		<g>
			<path fill="#231F20" d="M96.743,196.729c17.319,20.391-2.932,52.501-31.717,52.501c-20.793,0-37.713-13.189-37.713-35.177
				c0-26.791,22.922-45.843,47.039-45.045c-1.732-3.464-2.664-7.198-2.664-10.79c0-13.995,9.858-24.521,23.456-24.521
				c12.124,0,22.516,7.193,22.516,19.992c0,10.925-8.127,16.788-8.127,16.788l-7.46-7.863c0.134,0,4.796-2.932,4.796-9.591
				c0-14.522-23.589-14.662-23.589,5.594c0,9.326,7.196,13.725,8.666,14.522c0,0.134,0.134,0.134,0.258,0.134l-4.127,7.196
				c-1.595-0.532-3.065-1.199-4.398-1.859c-20.385-7.326-44.641,10.525-44.641,35.174c0,15.461,13.597,24.922,26.919,24.922
				c19.586,0,33.314-22.522,22.652-36.247L96.743,196.729z"/>
			<path fill="#231F20" d="M102.863,229.244c12.525-14.654,44.507-57.037,50.242-64.898l10.395,5.598
				c-8.529,17.727-7.601,37.985-11.999,51.174c5.464-3.729,11.6-9.066,16.662-15.062l0.932-1.06c2,0.532,4.399,2.658,5.197,4.797
				c-10.393,12.124-24.388,23.315-38.511,25.184c-0.134,0-0.265,0.129-0.405,0.129c-1.333,0.142-2.533,0.268-3.859,0.268
				c-12.663,0-15.196-11.19-15.196-11.19l8.66-4.53c0,0,1.866,5.062,6.536,5.062c13.191,0,10.26-25.854,15.721-40.243
				c-4.928,6.529-31.315,40.511-39.175,49.569C106.062,232.712,104.063,230.979,102.863,229.244z"/>
			<path fill="#231F20" d="M135.509,263.359l55.297-95.948h13.862l-2.797,4.796c14.122-12.656,35.047-5.33,22.118,16.663
				l-15.322,26.254c-1.731,2.924-3.464,6.793-5.729,10.391c8.392-2.932,17.59-10.391,25.312-19.459l0.941-1.06
				c1.997,0.532,4.394,2.658,5.195,4.797c-11.327,13.19-24.521,25.184-44.642,25.58h-0.807c-12.656,0-15.188-11.19-15.188-11.19
				l7.862-3.735c2.532,5.202,7.735,4.003,9.999,0l20.918-36.246c3.599-6.265-6.127-13.993-21.584,7.064l-41.448,72.094H135.509z"/>
			<path fill="#231F20" d="M263.298,223.251c-18.657,23.586-52.108,12.521-34.644-17.454l5.993-10.273l6.796-11.858
				c8-13.856,16.262-18.121,26.919-18.121c13.061,0,20.79,13.725,12.394,28.247l-13.06,22.531
				c6.927-0.14,14.656-3.467,20.924-10.267l0.929-1.06c1.868,0.801,4.268,2.933,5.201,4.797
				c-7.067,8.394-20.127,13.458-28.388,13.458H263.298z M259.295,205.922h0.668l10.132-17.319
				c8.393-14.398-4.931-20.924-14.656-4.401l-6.669,11.323l-10.525,18.259c-8.262,14.396,7.595,16.528,14.13,5.335l0.127-0.268
				c-0.793-1.332-1.327-2.929-1.327-4.668C251.174,209.654,254.772,205.922,259.295,205.922z"/>
			<path fill="#231F20" d="M303.135,157.418h0.801c3.199,0,7.195-1.997,8.794-4.529c-3.997-0.673-6.663-3.206-6.663-6.669
				c0-5.062,3.732-7.327,7.062-7.327c3.865,0,7.869,2.67,7.869,7.467c0,9.594-9.466,16.388-17.195,16.388h-0.932L303.135,157.418z"
				/>
			<path fill="#231F20" d="M303.27,229.244c12.525-14.654,44.508-57.037,50.233-64.898l10.396,5.598
				c-8.528,17.727-7.593,37.985-11.993,51.174c5.465-3.729,11.59-9.066,16.657-15.062l0.93-1.06
				c2.006,0.532,4.406,2.658,5.203,4.797c-10.396,12.124-24.387,23.315-38.518,25.184c-0.133,0-0.268,0.129-0.392,0.129
				c-1.341,0.142-2.539,0.268-3.873,0.268c-12.656,0-15.188-11.19-15.188-11.19l8.659-4.53c0,0,1.866,5.062,6.529,5.062
				c13.199,0,10.26-25.854,15.721-40.243c-4.922,6.529-31.313,40.511-39.175,49.569C306.463,232.712,304.468,230.979,303.27,229.244
				z"/>
		</g>
		<polygon fill="#231F20" points="335.465,285.494 341.817,266.271 345.507,269.683 350.938,257.019 355.737,258.605 
			363.51,245.257 356.613,265.685 353.536,262.839 348.161,276.691 344.438,272.685 		"/>
		<polygon fill="#231F20" points="63.44,288.112 57.09,268.89 53.398,272.298 47.971,259.637 43.168,261.229 35.4,247.875 
			42.291,268.308 45.365,265.468 50.75,279.312 54.463,275.31 		"/>
		<polygon fill="#231F20" points="59.212,115.254 52.859,134.477 49.17,131.067 43.743,143.73 38.937,142.139 31.166,155.492 
			38.063,135.059 41.141,137.905 46.519,124.055 50.235,128.058 		"/>
		<polygon fill="#231F20" points="338.921,111.404 345.275,130.621 348.964,127.211 354.389,139.873 359.192,138.288 
			366.961,151.64 360.064,131.208 356.994,134.054 351.619,120.204 347.896,124.207 		"/>
	</g>
</g>
</svg>
