<?xml version="1.0" encoding="utf-8"?>
<!-- Generator: Adobe Illustrator 16.0.0, SVG Export Plug-In . SVG Version: 6.00 Build 0)  -->
<!DOCTYPE svg PUBLIC "-//W3C//DTD SVG 1.1//EN" "http://www.w3.org/Graphics/SVG/1.1/DTD/svg11.dtd">
<svg version="1.1" id="Layer_1" xmlns="http://www.w3.org/2000/svg" xmlns:xlink="http://www.w3.org/1999/xlink" x="0px" y="0px"
	 width="433px" height="108.25px" viewBox="0 0 433 108.25" enable-background="new 0 0 433 108.25" xml:space="preserve">
<g>
	<path fill="none" d="M246.793,81.521c6.072,0,10.599-1.699,13.608-5.095c1.078-1.219,1.956-2.562,2.644-4.019
		c-25.062-0.57-49.524-1.552-73.229-2.913v12.026H246.793z"/>
	<path fill="#A6CE39" d="M49.597,65.495l51.396,42.417h45.376L88.353,60.89c-13.335-1.533-26.267-3.198-38.756-4.985V65.495z"/>
	<path fill="#A6CE39" d="M0,107.912h30.585V53.034C20.025,51.356,9.816,49.587,0,47.729V107.912z"/>
	<path fill="#A6CE39" d="M260.401,76.427c-3.01,3.396-7.536,5.095-13.608,5.095h-56.977V69.495
		c-10.558-0.604-20.96-1.286-31.204-2.038v40.609h106.264c3.525,0,7.77-1.339,12.76-4.039c4.99-2.675,9.287-6.225,12.887-10.648
		c3.602-4.426,5.403-9.158,5.403-14.175v-6.286c-11.064-0.091-22.028-0.261-32.882-0.51
		C262.357,73.865,261.479,75.208,260.401,76.427z"/>
	<path fill="#A6CE39" d="M311.593,72.995v35.071h30.585V72.837c-9.037,0.106-18.135,0.167-27.303,0.167
		C313.777,73.004,312.688,72.997,311.593,72.995z"/>
	<path fill="#BDDA7C" d="M0,0v47.729c9.816,1.857,20.025,3.627,30.585,5.305V0H0z"/>
	<path fill="#BDDA7C" d="M140.016,0H98.651L49.597,40.619v15.285c12.489,1.787,25.421,3.452,38.756,4.985l-10.126-8.206L140.016,0z"
		/>
	<path fill="#BDDA7C" d="M430.95,66.549V41.364h-88.772l-0.154-5.504c0-2.137,1.106-4.449,3.293-6.868
		c2.186-2.446,4.579-3.651,7.176-3.651h80.258V0h-89.363c-5.016,0-10.006,1.493-14.945,4.477c-4.964,3.01-9.004,6.766-12.142,11.267
		c-3.138,4.528-4.707,8.899-4.707,13.117v44.135c1.095,0.002,2.185,0.009,3.282,0.009c9.168,0,18.266-0.061,27.303-0.167v-6.288
		H430.95z"/>
	<path fill="#BDDA7C" d="M291.707,17.983c-2.829-4.965-6.764-9.183-11.807-12.71C274.832,1.749,269.227,0,263.026,0H157.944v25.341
		h87.769c4.143,0,7.615,0.693,10.444,2.106c2.855,1.413,4.99,3.32,6.432,5.763c1.414,2.444,2.187,5.246,2.288,8.465V63.59
		c0,3.303-0.615,6.243-1.832,8.818c10.854,0.249,21.817,0.419,32.882,0.51V31.203C295.927,27.318,294.511,22.922,291.707,17.983z"/>
	<path fill="#BDDA7C" d="M189.816,41.519h-31.204v25.938c10.243,0.752,20.646,1.434,31.204,2.038V41.519z"/>
</g>
</svg>
