<?xml version="1.0" encoding="utf-8"?>
<!-- Generator: Adobe Illustrator 16.0.0, SVG Export Plug-In . SVG Version: 6.00 Build 0)  -->
<!DOCTYPE svg PUBLIC "-//W3C//DTD SVG 1.1//EN" "http://www.w3.org/Graphics/SVG/1.1/DTD/svg11.dtd">
<svg version="1.1" id="Layer_1" xmlns="http://www.w3.org/2000/svg" xmlns:xlink="http://www.w3.org/1999/xlink" x="0px" y="0px"
	 width="171.757px" height="59.009px" viewBox="0 0 171.757 59.009" enable-background="new 0 0 171.757 59.009"
	 xml:space="preserve">
<path fill-rule="evenodd" clip-rule="evenodd" fill="#FFFFFF" stroke="#FFFFFF" stroke-width="1.3917" stroke-miterlimit="2.6131" d="
	M23.654,30.914v22.139c0,2.905,2.253,5.261,5.031,5.261h137.346c2.778,0,5.03-2.355,5.03-5.261V29.598
	c0-2.905-2.252-5.261-5.03-5.261h-18.723L23.654,30.914L23.654,30.914z"/>
<path fill-rule="evenodd" clip-rule="evenodd" fill="#FFFFFF" stroke="#FFFFFF" stroke-width="1.3917" stroke-miterlimit="2.6131" d="
	M144.469,33.941c2.778,0,5.031-2.355,5.031-5.261V5.957c0-2.906-2.253-5.261-5.031-5.261H5.726c-2.778,0-5.03,2.355-5.03,5.261
	V28.68c0,2.906,2.252,5.261,5.03,5.261H144.469L144.469,33.941z"/>
<path fill-rule="evenodd" clip-rule="evenodd" fill="#EE3224" d="M25.099,31.41v21.084c0,2.767,2.209,5.01,4.932,5.01h134.653
	c2.723,0,4.932-2.243,4.932-5.01V30.157c0-2.767-2.209-5.01-4.932-5.01h-18.355L25.099,31.41L25.099,31.41z"/>
<path fill-rule="evenodd" clip-rule="evenodd" d="M143.11,33.149c2.723,0,4.932-2.243,4.932-5.01V6.498
	c0-2.767-2.209-5.01-4.932-5.01H7.087c-2.724,0-4.932,2.243-4.932,5.01v21.641c0,2.767,2.208,5.01,4.932,5.01H143.11L143.11,33.149z
	"/>
<polygon fill-rule="evenodd" clip-rule="evenodd" fill="#FFFFFF" points="16.08,22.841 24.815,22.841 24.815,27.775 10.498,27.775 
	10.498,6.509 16.08,6.509 16.08,22.841 "/>
<polygon fill-rule="evenodd" clip-rule="evenodd" fill="#FFFFFF" points="32.517,27.775 26.935,27.775 26.935,6.509 32.517,6.509 
	32.517,27.775 "/>
<polygon fill-rule="evenodd" clip-rule="evenodd" fill="#FFFFFF" points="41.531,27.775 35.949,27.775 35.949,6.509 45.382,6.509 
	51.383,22.841 51.606,22.841 51.271,6.509 56.853,6.509 56.853,27.775 47.336,27.775 41.419,11.442 41.196,11.442 41.531,27.775 "/>
<path fill-rule="evenodd" clip-rule="evenodd" fill="#FFFFFF" d="M77.948,19.722v0.624c0,2.325-0.028,4.423-1.925,6.04
	c-1.898,1.588-4.215,1.56-6.643,1.56c-5.694,0-9.852-0.284-9.852-8.053v-5.501c0-7.032,3.712-8.053,9.852-8.053
	c5.75,0,8.429,0.596,8.54,6.976v0.822h-5.749v-0.822c-0.196-1.9-1.508-2.042-3.406-2.042c-3.181,0-3.489,0.993-3.489,4.026v3.318
	c0,3.176,0.14,4.395,3.489,4.395c2.316,0,3.433-0.17,3.433-2.666v-0.624H77.948L77.948,19.722z"/>
<path fill-rule="evenodd" clip-rule="evenodd" fill="#FFFFFF" d="M79.784,20.148v-6.012c0-6.55,4.019-7.798,9.685-7.798
	c5.665,0,9.685,1.248,9.685,7.798v6.012c0,6.55-4.02,7.798-9.685,7.798C83.803,27.946,79.784,26.698,79.784,20.148L79.784,20.148z
	 M93.403,19.524v-4.792c0-3.147-1.032-3.459-3.935-3.459s-3.852,0.312-3.936,3.459v4.792c0.084,3.176,1.033,3.488,3.936,3.488
	S93.403,22.7,93.403,19.524L93.403,19.524z"/>
<polygon fill-rule="evenodd" clip-rule="evenodd" fill="#FFFFFF" points="107.267,22.841 116.003,22.841 116.003,27.775 
	101.686,27.775 101.686,6.509 107.267,6.509 107.267,22.841 "/>
<polygon fill-rule="evenodd" clip-rule="evenodd" fill="#FFFFFF" points="123.676,27.775 118.095,27.775 118.095,6.509 
	127.529,6.509 133.529,22.841 133.752,22.841 133.417,6.509 138.999,6.509 138.999,27.775 129.482,27.775 123.566,11.442 
	123.342,11.442 123.676,27.775 "/>
<path fill-rule="evenodd" clip-rule="evenodd" fill="#FFFFFF" d="M155.443,18.304h-1.271V12.26h2.222
	c1.535,0,2.441,0.445,2.441,1.826c0,1.114-0.644,1.515-1.433,1.574l1.52,2.644h-1.505l-1.374-2.54h-0.6V18.304L155.443,18.304z
	 M156.569,14.74c0.569,0,0.906-0.119,0.906-0.787c0-0.623-0.658-0.668-1.14-0.668h-0.893v1.455H156.569L156.569,14.74z
	 M156.364,20.902c-2.938,0-5.554-2.064-5.554-5.613c0-3.549,2.616-5.613,5.554-5.613c2.924,0,5.539,2.064,5.539,5.613
	C161.903,18.838,159.288,20.902,156.364,20.902L156.364,20.902z M156.364,10.982c-2.192,0-3.961,1.723-3.961,4.307
	s1.769,4.321,3.961,4.306v0.015c2.135,0,3.946-1.737,3.946-4.321S158.499,10.982,156.364,10.982L156.364,10.982z"/>
<polygon fill-rule="evenodd" clip-rule="evenodd" fill="#FFFFFF" points="50.043,43.956 56.619,43.956 56.619,46.858 50.043,46.858 
	50.043,49.905 57.194,49.905 57.194,53.329 45.934,53.329 45.934,37.672 57.05,37.672 57.05,41.096 50.043,41.096 50.043,43.956 "/>
<polygon fill-rule="evenodd" clip-rule="evenodd" fill="#FFFFFF" points="63.851,49.697 70.282,49.697 70.282,53.329 59.742,53.329 
	59.742,37.672 63.851,37.672 63.851,49.697 "/>
<polygon fill-rule="evenodd" clip-rule="evenodd" fill="#FFFFFF" points="75.994,43.956 82.569,43.956 82.569,46.858 75.994,46.858 
	75.994,49.905 83.144,49.905 83.144,53.329 71.885,53.329 71.885,37.672 83,37.672 83,41.096 75.994,41.096 75.994,43.956 "/>
<path fill-rule="evenodd" clip-rule="evenodd" fill="#FFFFFF" d="M98.78,47.4v0.46c0,1.711-0.021,3.256-1.418,4.446
	c-1.396,1.169-3.102,1.148-4.89,1.148c-4.191,0-7.253-0.21-7.253-5.93v-4.049c0-5.178,2.733-5.929,7.253-5.929
	c4.232,0,6.205,0.438,6.287,5.135v0.605h-4.232v-0.605c-0.144-1.398-1.109-1.503-2.507-1.503c-2.342,0-2.568,0.73-2.568,2.965v2.442
	c0,2.338,0.104,3.235,2.568,3.235c1.705,0,2.527-0.125,2.527-1.962V47.4H98.78L98.78,47.4z"/>
<polygon fill-rule="evenodd" clip-rule="evenodd" fill="#FFFFFF" points="107.529,53.329 103.419,53.329 103.419,41.305 
	99.474,41.305 99.474,37.672 111.679,37.672 111.679,41.305 107.529,41.305 107.529,53.329 "/>
<path fill-rule="evenodd" clip-rule="evenodd" fill="#FFFFFF" d="M112.85,37.672h7.932c3.555,0.062,5.301,0.835,5.301,4.738
	c0,2.61,0,4.134-2.918,4.822V47.4c1.686,0.062,2.773,1.002,2.773,2.776v3.152h-4.109v-2.191c0.042-1.17-0.451-1.962-1.685-1.962
	h-3.185v4.153h-4.109V37.672L112.85,37.672z M120.144,45.542c1.768,0,1.705-0.668,1.705-2.442c0-1.398-0.349-1.795-1.705-1.795
	h-3.185v4.237H120.144L120.144,45.542z"/>
<polygon fill-rule="evenodd" clip-rule="evenodd" fill="#FFFFFF" points="132.307,53.329 128.198,53.329 128.198,37.672 
	132.307,37.672 132.307,53.329 "/>
<path fill-rule="evenodd" clip-rule="evenodd" fill="#FFFFFF" d="M147.861,47.4v0.46c0,1.711-0.021,3.256-1.418,4.446
	c-1.396,1.169-3.102,1.148-4.89,1.148c-4.191,0-7.253-0.21-7.253-5.93v-4.049c0-5.178,2.733-5.929,7.253-5.929
	c4.232,0,6.205,0.438,6.287,5.135v0.605h-4.232v-0.605c-0.144-1.398-1.109-1.503-2.507-1.503c-2.343,0-2.568,0.73-2.568,2.965v2.442
	c0,2.338,0.103,3.235,2.568,3.235c1.706,0,2.527-0.125,2.527-1.962V47.4H147.861L147.861,47.4z"/>
</svg>
