<?xml version="1.0" encoding="utf-8"?>
<!-- Generator: Adobe Illustrator 16.0.0, SVG Export Plug-In . SVG Version: 6.00 Build 0)  -->
<!DOCTYPE svg PUBLIC "-//W3C//DTD SVG 1.1//EN" "http://www.w3.org/Graphics/SVG/1.1/DTD/svg11.dtd">
<svg version="1.1" id="Layer_1" xmlns="http://www.w3.org/2000/svg" xmlns:xlink="http://www.w3.org/1999/xlink" x="0px" y="0px"
	 width="918.102px" height="436.233px" viewBox="0 0 918.102 436.233" enable-background="new 0 0 918.102 436.233"
	 xml:space="preserve">
<path fill="#D2AA64" d="M677.64,218.112c0-37.184-9.34-72.215-25.79-102.876C615.066,46.682,542.689,0,459.518,0
	c-83.236,0-155.671,46.77-192.43,115.425c-16.385,30.612-25.683,65.575-25.683,102.688c0,38.734,10.122,75.123,27.86,106.666
	c37.391,66.487,108.632,111.455,190.252,111.455c81.59,0,152.789-44.922,190.2-111.358
	C667.496,293.307,677.64,256.886,677.64,218.112z"/>
<path fill="#D2AA64" d="M0,115.236c306.034,0,612.068,0,918.102,0c0,69.771,0,139.55,0,209.321c-306.034,0-612.068,0-918.102,0
	C0,254.786,0,185.008,0,115.236z"/>
<path fill="none" stroke="#000000" d="M660.187,218.112c0-110.723-89.943-200.666-200.669-200.666
	c-110.723,0-200.666,89.943-200.666,200.666c0,110.732,89.943,200.669,200.666,200.669
	C570.244,418.781,660.187,328.845,660.187,218.112z"/>
<path fill="#EC2124" d="M660.187,218.112c0-30.758-6.938-59.913-19.341-85.981C608.612,64.362,539.486,17.446,459.518,17.446
	c-79.857,0-148.905,46.789-181.198,114.418c-12.474,26.14-19.468,55.388-19.468,86.248c0,32.228,7.623,62.693,21.149,89.69
	c32.964,65.771,101.02,110.979,179.517,110.979c78.4,0,146.377-45.089,179.388-110.713
	C652.522,281.007,660.187,250.447,660.187,218.112z"/>
<path d="M17.034,132.271c294.542,0,589.091,0,883.634,0c0,58.514,0,117.028,0,175.538c-294.543,0-589.092,0-883.634,0
	C17.034,249.299,17.034,190.784,17.034,132.271z"/>
<path fill="#FFFFFF" d="M210.762,275.302c16.742-38.679,33.49-77.358,50.239-116.041c12.121,0,24.251,0,36.372,0
	c15.979,38.754,31.949,77.514,47.925,116.269c-12.254,0-24.511,0-36.765,0c-2.194-6.559-4.388-13.127-6.588-19.692
	c-15.684,0-31.368,0-47.062,0c-2.343,6.494-4.689,12.98-7.036,19.465C235.484,275.302,223.123,275.302,210.762,275.302z"/>
<path fill="#FFFFFF" d="M813.879,275.25c0-38.562,0-77.121,0-115.684c12.127,0,24.251,0,36.372,0c0,38.563,0,77.122,0,115.684
	C838.13,275.25,826.006,275.25,813.879,275.25z"/>
<path fill="#FFFFFF" d="M674.667,275.422c0-38.647,0-77.293,0-115.94c10.794,0,21.594,0,32.387,0
	c15.512,21.931,31.023,43.872,46.529,65.802c0.007-21.93,0.007-43.871,0.007-65.802c10.66,0,21.32,0,31.98,0
	c-0.019,38.647-0.038,77.293-0.058,115.935c-11.523,0-23.051,0-34.574,0c-14.321-19.926-28.652-39.858-42.979-59.783
	c0,19.925,0,39.857,0,59.789C696.861,275.422,685.765,275.422,674.667,275.422z"/>
<path fill="#FFFFFF" d="M610.627,275.429c0-38.621,0-77.242,0-115.863c12.12,0,24.25,0,36.371,0c0,38.621,0,77.242,0,115.863
	C634.877,275.429,622.748,275.429,610.627,275.429z"/>
<path fill="#FFFFFF" d="M519.681,275.429c0-29.142,0-58.293,0-87.435c-9.817,0-19.634,0-29.45,0c0-9.613,0-19.229,0-28.837
	c31.663,0,63.326,0,94.986,0c0,9.609,0,19.225,0,28.837c-9.817,0-19.634,0-29.44,0c0,29.142,0,58.293,0,87.435
	C543.74,275.429,531.71,275.429,519.681,275.429z"/>
<path fill="#FFFFFF" d="M364.645,276.022c0-38.887,0-77.773,0-116.667c21.36,0,42.729,0,42.729,0c14.72,0,22.444-0.471,30.891,2.417
	c8.447,2.892,14.941,8.389,19.792,14.921c4.852,6.539,8.467,16.43,9.324,24.306c0.856,7.87-0.776,16.596-4.18,22.946
	c-3.404,6.349-10.832,10.096-16.242,15.148c8.593,12.108,17.193,24.22,25.793,36.321c-12.183,0-24.372,0-36.554,0
	c-7.133-11.43-14.263-22.869-21.402-34.303c-6.559,0-13.117,0-19.679,0c0,11.654,0,23.304,0,34.954
	C384.957,276.055,374.803,276.042,364.645,276.022z"/>
<path fill="#FFFFFF" d="M194.013,275.49c-11.504,0-23.008,0-34.506,0c-0.049-20.99-0.094-41.97-0.14-62.953
	c-10.102,15.587-20.211,31.176-30.313,46.763c-10.489-17.514-20.983-35.025-31.472-52.539c-0.033,22.804-0.065,45.613-0.098,68.421
	c-10.933,0-21.866,0-32.799,0c0-38.686,0-77.371,0-116.061c11.625,0.087,23.249,0.175,34.866,0.26
	c10.414,17.625,20.821,35.246,31.235,52.864c9.43-17.706,18.861-35.418,28.295-53.124c11.643,0,23.287,0,34.931,0
	C194.013,197.907,194.013,236.697,194.013,275.49z"/>
<path d="M395.004,215.422c11.008,0,22.019,0,30.307,0c7.146,0,12.922-5.994,12.809-13.14c-0.113-7.204-6.003-13.133-13.208-13.133
	c-8.447,0-19.166,0-29.892,0C395.02,197.907,395.014,206.663,395.004,215.422z"/>
<path d="M261.818,233.319c11.062,0,22.129,0,33.201,0c-5.487-14.967-10.972-29.934-16.456-44.894
	C272.981,203.386,267.4,218.353,261.818,233.319z"/>
</svg>
