<?xml version="1.0" encoding="utf-8"?>
<!-- Generator: Adobe Illustrator 16.0.0, SVG Export Plug-In . SVG Version: 6.00 Build 0)  -->
<!DOCTYPE svg PUBLIC "-//W3C//DTD SVG 1.1//EN" "http://www.w3.org/Graphics/SVG/1.1/DTD/svg11.dtd">
<svg version="1.1" id="Layer_1" xmlns="http://www.w3.org/2000/svg" xmlns:xlink="http://www.w3.org/1999/xlink" x="0px" y="0px"
	 width="187.086px" height="30.611px" viewBox="0 0 187.086 30.611" enable-background="new 0 0 187.086 30.611"
	 xml:space="preserve">
<polygon display="none" fill-rule="evenodd" clip-rule="evenodd" fill="#FFFFFF" points="-2.835,-81.073 189.921,-81.073 
	189.921,111.683 -2.835,111.683 -2.835,-81.073 "/>
<polygon fill-rule="evenodd" clip-rule="evenodd" points="0,9.857 12.348,9.857 0,23.451 0,29.884 23.762,29.884 23.762,23.451 
	10.895,23.451 23.969,9.857 23.969,0.415 0,0.415 0,9.857 "/>
<path fill-rule="evenodd" clip-rule="evenodd" d="M39.326,0C31.025,0,24.28,6.849,24.28,15.253c0,8.508,6.745,15.357,15.046,15.357
	c8.405,0,15.15-6.85,15.15-15.357C54.476,6.849,47.731,0,39.326,0L39.326,0z M39.326,23.658c-3.943,0-7.056-3.217-7.056-7.16
	c0-4.046,3.113-7.263,7.056-7.263c3.943,0,7.16,3.217,7.16,7.263C46.486,20.441,43.27,23.658,39.326,23.658L39.326,23.658z"/>
<polygon fill-rule="evenodd" clip-rule="evenodd" points="64.437,0.415 55.825,0.415 55.825,29.884 76.682,29.884 76.682,23.451 
	64.437,23.451 64.437,0.415 "/>
<polygon fill-rule="evenodd" clip-rule="evenodd" points="69.833,9.857 78.653,9.857 78.653,29.884 86.85,29.884 86.85,9.857 
	95.463,9.857 95.463,0.415 69.833,0.415 69.833,9.857 "/>
<polygon fill-rule="evenodd" clip-rule="evenodd" points="97.538,0.415 97.33,0.415 97.33,29.884 117.149,29.884 117.149,23.451 
	105.528,23.451 105.528,20.441 117.149,20.441 117.149,13.904 105.528,13.904 105.528,9.857 117.149,9.857 117.149,0.415 
	97.538,0.415 "/>
<polygon fill-rule="evenodd" clip-rule="evenodd" points="148.278,29.884 136.657,14.631 147.552,0.415 137.591,0.415 
	128.771,11.31 128.771,0.415 120.573,0.415 120.573,29.884 128.771,29.884 128.771,18.054 138.214,29.884 148.278,29.884 "/>
<path fill-rule="evenodd" clip-rule="evenodd" fill="#5C6787" d="M160.107,0.415h26.979v9.442l-6.952,7.472
	c0,0-0.83,1.244-1.764,1.244c-0.83,0-1.453-1.244-1.453-1.244l-6.433-7.472c0,0-0.727-0.623-1.453-0.623
	c-0.622,0-1.349,0.623-1.349,0.623l-3.217,3.424h-4.358V0.415L160.107,0.415z"/>
<path fill-rule="evenodd" clip-rule="evenodd" fill="#5C6787" d="M187.086,29.884h-26.979v-9.443l6.952-7.47
	c0,0,0.831-1.245,1.66-1.245c0.83,0,1.557,1.245,1.557,1.245l6.434,7.47c0,0,0.727,0.623,1.453,0.623
	c0.622,0,1.245-0.623,1.245-0.623l3.217-3.424h4.461V29.884L187.086,29.884z"/>
</svg>
